<?xml version="1.0" encoding="UTF-8" standalone="no"?>
<!DOCTYPE svg PUBLIC "-//W3C//DTD SVG 1.1//EN"
 "http://www.w3.org/Graphics/SVG/1.1/DTD/svg11.dtd">
<!-- Generated by graphviz version 2.40.1 (20161225.0304)
 -->
<!-- Title: oneDegreeRelationshipsDiagram Pages: 1 -->
<svg width="391pt" height="347pt"
 viewBox="0.00 0.00 391.00 347.20" xmlns="http://www.w3.org/2000/svg" xmlns:xlink="http://www.w3.org/1999/xlink">
<g id="graph0" class="graph" transform="scale(1 1) rotate(0) translate(4 343.2)">
<title>oneDegreeRelationshipsDiagram</title>
<polygon fill="#ffffff" stroke="transparent" points="-4,4 -4,-343.2 387,-343.2 387,4 -4,4"/>
<text text-anchor="middle" x="72.4936" y="-7.3" font-family="Helvetica,sans-Serif" font-size="11.00" fill="#000000">Generated by SchemaSpy</text>
<!-- cart_item -->
<g id="node1" class="node">
<title>cart_item</title>
<g id="a_node1"><a xlink:href="../../tables/cart_item.html" xlink:title="cart_item" target="_top">
<polygon fill="#ffffff" stroke="transparent" points="196,-128.7 196,-306.7 375,-306.7 375,-128.7 196,-128.7"/>
<polygon fill="#f5f5f5" stroke="transparent" points="198.5,-281.7 198.5,-304.7 373.5,-304.7 373.5,-281.7 198.5,-281.7"/>
<polygon fill="none" stroke="#000000" points="198.5,-281.7 198.5,-304.7 373.5,-304.7 373.5,-281.7 198.5,-281.7"/>
<text text-anchor="start" x="203.5" y="-290.3" font-family="Helvetica,sans-Serif" font-weight="bold" font-size="11.00" fill="#000000">cart_item</text>
<text text-anchor="start" x="338.5437" y="-289.8" font-family="Helvetica,sans-Serif" font-size="11.00" fill="#000000">[table]</text>
<polygon fill="none" stroke="#000000" points="198.5,-259.7 198.5,-281.7 289.5,-281.7 289.5,-259.7 198.5,-259.7"/>
<image xlink:href="../../images/primaryKeys.png" width="11px" height="12px" preserveAspectRatio="xMinYMin meet" x="203.5" y="-276.7"/>
<text text-anchor="start" x="218.5" y="-266.8" font-family="Helvetica,sans-Serif" font-size="11.00" fill="#000000">cart_item_id</text>
<polygon fill="none" stroke="#000000" points="289.5,-259.7 289.5,-281.7 373.5,-281.7 373.5,-259.7 289.5,-259.7"/>
<text text-anchor="start" x="292.5" y="-267.4" font-family="Helvetica,sans-Serif" font-size="11.00" fill="#000000">int8[19]</text>
<polygon fill="none" stroke="#000000" points="198.5,-237.7 198.5,-259.7 289.5,-259.7 289.5,-237.7 198.5,-237.7"/>
<image xlink:href="../../images/foreignKeys.png" width="11px" height="12px" preserveAspectRatio="xMinYMin meet" x="203.5" y="-254.7"/>
<text text-anchor="start" x="218.5" y="-244.8" font-family="Helvetica,sans-Serif" font-size="11.00" fill="#000000">cart_id</text>
<polygon fill="none" stroke="#000000" points="289.5,-237.7 289.5,-259.7 373.5,-259.7 373.5,-237.7 289.5,-237.7"/>
<text text-anchor="start" x="292.5" y="-245.4" font-family="Helvetica,sans-Serif" font-size="11.00" fill="#000000">int4[10]</text>
<polygon fill="none" stroke="#000000" points="198.5,-215.7 198.5,-237.7 289.5,-237.7 289.5,-215.7 198.5,-215.7"/>
<image xlink:href="../../images/foreignKeys.png" width="11px" height="12px" preserveAspectRatio="xMinYMin meet" x="203.5" y="-232.7"/>
<text text-anchor="start" x="218.5" y="-222.8" font-family="Helvetica,sans-Serif" font-size="11.00" fill="#000000">product_id</text>
<polygon fill="none" stroke="#000000" points="289.5,-215.7 289.5,-237.7 373.5,-237.7 373.5,-215.7 289.5,-215.7"/>
<text text-anchor="start" x="292.5" y="-223.4" font-family="Helvetica,sans-Serif" font-size="11.00" fill="#000000">int4[10]</text>
<polygon fill="none" stroke="#000000" points="198.5,-193.7 198.5,-215.7 289.5,-215.7 289.5,-193.7 198.5,-193.7"/>
<text text-anchor="start" x="218.5" y="-200.8" font-family="Helvetica,sans-Serif" font-size="11.00" fill="#000000">quantity</text>
<polygon fill="none" stroke="#000000" points="289.5,-193.7 289.5,-215.7 373.5,-215.7 373.5,-193.7 289.5,-193.7"/>
<text text-anchor="start" x="292.5" y="-201.4" font-family="Helvetica,sans-Serif" font-size="11.00" fill="#000000">int4[10]</text>
<polygon fill="none" stroke="#000000" points="198.5,-171.7 198.5,-193.7 289.5,-193.7 289.5,-171.7 198.5,-171.7"/>
<text text-anchor="start" x="218.5" y="-178.8" font-family="Helvetica,sans-Serif" font-size="11.00" fill="#000000">created_at</text>
<polygon fill="none" stroke="#000000" points="289.5,-171.7 289.5,-193.7 373.5,-193.7 373.5,-171.7 289.5,-171.7"/>
<text text-anchor="start" x="292.3807" y="-179.4" font-family="Helvetica,sans-Serif" font-size="11.00" fill="#000000">timestamp[29,6]</text>
<polygon fill="none" stroke="#000000" points="198.5,-149.7 198.5,-171.7 289.5,-171.7 289.5,-149.7 198.5,-149.7"/>
<text text-anchor="start" x="218.5" y="-156.8" font-family="Helvetica,sans-Serif" font-size="11.00" fill="#000000">updated_at</text>
<polygon fill="none" stroke="#000000" points="289.5,-149.7 289.5,-171.7 373.5,-171.7 373.5,-149.7 289.5,-149.7"/>
<text text-anchor="start" x="292.3807" y="-157.4" font-family="Helvetica,sans-Serif" font-size="11.00" fill="#000000">timestamp[29,6]</text>
<polygon fill="#ffffff" stroke="transparent" points="198.5,-130.7 198.5,-149.7 248.5,-149.7 248.5,-130.7 198.5,-130.7"/>
<polygon fill="none" stroke="#000000" points="198.5,-130.7 198.5,-149.7 248.5,-149.7 248.5,-130.7 198.5,-130.7"/>
<text text-anchor="start" x="201.5" y="-136.8" font-family="Helvetica,sans-Serif" font-size="11.00" fill="#000000">&lt; 2</text>
<polygon fill="#ffffff" stroke="transparent" points="248.5,-130.7 248.5,-149.7 289.5,-149.7 289.5,-130.7 248.5,-130.7"/>
<polygon fill="none" stroke="#000000" points="248.5,-130.7 248.5,-149.7 289.5,-149.7 289.5,-130.7 248.5,-130.7"/>
<text text-anchor="start" x="280.3862" y="-136.8" font-family="Helvetica,sans-Serif" font-size="11.00" fill="#000000"> &#160;</text>
<polygon fill="#ffffff" stroke="transparent" points="289.5,-130.7 289.5,-149.7 373.5,-149.7 373.5,-130.7 289.5,-130.7"/>
<polygon fill="none" stroke="#000000" points="289.5,-130.7 289.5,-149.7 373.5,-149.7 373.5,-130.7 289.5,-130.7"/>
<text text-anchor="start" x="354.9053" y="-136.8" font-family="Helvetica,sans-Serif" font-size="11.00" fill="#000000">0 &gt;</text>
<polygon fill="none" stroke="#000000" stroke-width="2" points="197,-129.7 197,-305.7 374,-305.7 374,-129.7 197,-129.7"/>
</a>
</g>
</g>
<!-- cart -->
<g id="node2" class="node">
<title>cart</title>
<g id="a_node2"><a xlink:href="../../tables/cart.html" xlink:title="cart" target="_top">
<polygon fill="#ffffff" stroke="transparent" points="35,-230.2 35,-335.2 120,-335.2 120,-230.2 35,-230.2"/>
<polygon fill="#f5f5f5" stroke="transparent" points="35.5,-311.7 35.5,-334.7 120.5,-334.7 120.5,-311.7 35.5,-311.7"/>
<polygon fill="none" stroke="#000000" points="35.5,-311.7 35.5,-334.7 120.5,-334.7 120.5,-311.7 35.5,-311.7"/>
<text text-anchor="start" x="40.3332" y="-320.3" font-family="Helvetica,sans-Serif" font-weight="bold" font-size="11.00" fill="#000000">cart</text>
<text text-anchor="start" x="85.5437" y="-319.8" font-family="Helvetica,sans-Serif" font-size="11.00" fill="#000000">[table]</text>
<polygon fill="none" stroke="#000000" points="35.5,-289.7 35.5,-311.7 120.5,-311.7 120.5,-289.7 35.5,-289.7"/>
<image xlink:href="../../images/primaryKeys.png" width="11px" height="12px" preserveAspectRatio="xMinYMin meet" x="40.5" y="-306.7"/>
<text text-anchor="start" x="55.5" y="-296.8" font-family="Helvetica,sans-Serif" font-size="11.00" fill="#000000">cart_id</text>
<polygon fill="none" stroke="#000000" points="35.5,-267.7 35.5,-289.7 120.5,-289.7 120.5,-267.7 35.5,-267.7"/>
<image xlink:href="../../images/foreignKeys.png" width="11px" height="12px" preserveAspectRatio="xMinYMin meet" x="40.5" y="-284.7"/>
<text text-anchor="start" x="55.5" y="-274.8" font-family="Helvetica,sans-Serif" font-size="11.00" fill="#000000">user_id</text>
<polygon fill="none" stroke="#000000" points="35.5,-248.7 35.5,-267.7 120.5,-267.7 120.5,-248.7 35.5,-248.7"/>
<text text-anchor="start" x="38.5" y="-254.8" font-family="Helvetica,sans-Serif" font-size="11.00" fill="#000000">...</text>
<polygon fill="#ffffff" stroke="transparent" points="35.5,-229.7 35.5,-248.7 71.5,-248.7 71.5,-229.7 35.5,-229.7"/>
<polygon fill="none" stroke="#000000" points="35.5,-229.7 35.5,-248.7 71.5,-248.7 71.5,-229.7 35.5,-229.7"/>
<text text-anchor="start" x="38.5" y="-235.8" font-family="Helvetica,sans-Serif" font-size="11.00" fill="#000000">&lt; 1</text>
<polygon fill="#ffffff" stroke="transparent" points="71.5,-229.7 71.5,-248.7 91.5,-248.7 91.5,-229.7 71.5,-229.7"/>
<polygon fill="none" stroke="#000000" points="71.5,-229.7 71.5,-248.7 91.5,-248.7 91.5,-229.7 71.5,-229.7"/>
<text text-anchor="start" x="82.3862" y="-235.8" font-family="Helvetica,sans-Serif" font-size="11.00" fill="#000000"> &#160;</text>
<polygon fill="#ffffff" stroke="transparent" points="91.5,-229.7 91.5,-248.7 120.5,-248.7 120.5,-229.7 91.5,-229.7"/>
<polygon fill="none" stroke="#000000" points="91.5,-229.7 91.5,-248.7 120.5,-248.7 120.5,-229.7 91.5,-229.7"/>
<text text-anchor="start" x="101.9053" y="-235.8" font-family="Helvetica,sans-Serif" font-size="11.00" fill="#000000">1 &gt;</text>
</a>
</g>
</g>
<!-- cart_item&#45;&gt;cart -->
<g id="edge1" class="edge">
<title>cart_item:w&#45;&gt;cart:e</title>
<path fill="none" stroke="#000000" d="M184.166,-251.2081C157.4223,-261.5953 156.6306,-300.7 120.5,-300.7"/>
<polygon fill="#000000" stroke="#000000" points="190.6197,-250.0789 199.1205,-252.2461 194.5599,-249.3894 198.5,-248.7 198.5,-248.7 198.5,-248.7 194.5599,-249.3894 197.8795,-245.1539 190.6197,-250.0789 190.6197,-250.0789"/>
<ellipse fill="none" stroke="#000000" cx="187.4676" cy="-250.6304" rx="3.2" ry="3.2"/>
</g>
<!-- product -->
<g id="node3" class="node">
<title>product</title>
<g id="a_node3"><a xlink:href="../../tables/product.html" xlink:title="product" target="_top">
<polygon fill="#ffffff" stroke="transparent" points="8,-38.2 8,-209.2 147,-209.2 147,-38.2 8,-38.2"/>
<polygon fill="#f5f5f5" stroke="transparent" points="8.5,-185.7 8.5,-208.7 147.5,-208.7 147.5,-185.7 8.5,-185.7"/>
<polygon fill="none" stroke="#000000" points="8.5,-185.7 8.5,-208.7 147.5,-208.7 147.5,-185.7 8.5,-185.7"/>
<text text-anchor="start" x="13.5" y="-194.3" font-family="Helvetica,sans-Serif" font-weight="bold" font-size="11.00" fill="#000000">product</text>
<text text-anchor="start" x="112.5437" y="-193.8" font-family="Helvetica,sans-Serif" font-size="11.00" fill="#000000">[table]</text>
<polygon fill="none" stroke="#000000" points="8.5,-163.7 8.5,-185.7 147.5,-185.7 147.5,-163.7 8.5,-163.7"/>
<image xlink:href="../../images/primaryKeys.png" width="11px" height="12px" preserveAspectRatio="xMinYMin meet" x="13.5" y="-180.7"/>
<text text-anchor="start" x="28.5" y="-170.8" font-family="Helvetica,sans-Serif" font-size="11.00" fill="#000000">product_id</text>
<polygon fill="none" stroke="#000000" points="8.5,-141.7 8.5,-163.7 147.5,-163.7 147.5,-141.7 8.5,-141.7"/>
<image xlink:href="../../images/foreignKeys.png" width="11px" height="12px" preserveAspectRatio="xMinYMin meet" x="13.5" y="-158.7"/>
<text text-anchor="start" x="28.5" y="-148.8" font-family="Helvetica,sans-Serif" font-size="11.00" fill="#000000">product_brand_id</text>
<polygon fill="none" stroke="#000000" points="8.5,-119.7 8.5,-141.7 147.5,-141.7 147.5,-119.7 8.5,-119.7"/>
<image xlink:href="../../images/foreignKeys.png" width="11px" height="12px" preserveAspectRatio="xMinYMin meet" x="13.5" y="-136.7"/>
<text text-anchor="start" x="28.5" y="-126.8" font-family="Helvetica,sans-Serif" font-size="11.00" fill="#000000">product_category_id</text>
<polygon fill="#ffffff" stroke="transparent" points="8.5,-97.7 8.5,-119.7 147.5,-119.7 147.5,-97.7 8.5,-97.7"/>
<polygon fill="none" stroke="#000000" points="8.5,-97.7 8.5,-119.7 147.5,-119.7 147.5,-97.7 8.5,-97.7"/>
<text text-anchor="start" x="28.5" y="-104.8" font-family="Helvetica,sans-Serif" font-size="11.00" fill="#000000">valid_from</text>
<polygon fill="#ffffff" stroke="transparent" points="8.5,-75.7 8.5,-97.7 147.5,-97.7 147.5,-75.7 8.5,-75.7"/>
<polygon fill="none" stroke="#000000" points="8.5,-75.7 8.5,-97.7 147.5,-97.7 147.5,-75.7 8.5,-75.7"/>
<text text-anchor="start" x="28.5" y="-82.8" font-family="Helvetica,sans-Serif" font-size="11.00" fill="#000000">valid_to</text>
<polygon fill="none" stroke="#000000" points="8.5,-56.7 8.5,-75.7 147.5,-75.7 147.5,-56.7 8.5,-56.7"/>
<text text-anchor="start" x="11.5" y="-62.8" font-family="Helvetica,sans-Serif" font-size="11.00" fill="#000000">...</text>
<polygon fill="#ffffff" stroke="transparent" points="8.5,-37.7 8.5,-56.7 68.5,-56.7 68.5,-37.7 8.5,-37.7"/>
<polygon fill="none" stroke="#000000" points="8.5,-37.7 8.5,-56.7 68.5,-56.7 68.5,-37.7 8.5,-37.7"/>
<text text-anchor="start" x="11.5" y="-43.8" font-family="Helvetica,sans-Serif" font-size="11.00" fill="#000000">&lt; 2</text>
<polygon fill="#ffffff" stroke="transparent" points="68.5,-37.7 68.5,-56.7 100.5,-56.7 100.5,-37.7 68.5,-37.7"/>
<polygon fill="none" stroke="#000000" points="68.5,-37.7 68.5,-56.7 100.5,-56.7 100.5,-37.7 68.5,-37.7"/>
<text text-anchor="start" x="91.3862" y="-43.8" font-family="Helvetica,sans-Serif" font-size="11.00" fill="#000000"> &#160;</text>
<polygon fill="#ffffff" stroke="transparent" points="100.5,-37.7 100.5,-56.7 147.5,-56.7 147.5,-37.7 100.5,-37.7"/>
<polygon fill="none" stroke="#000000" points="100.5,-37.7 100.5,-56.7 147.5,-56.7 147.5,-37.7 100.5,-37.7"/>
<text text-anchor="start" x="122.7904" y="-43.8" font-family="Helvetica,sans-Serif" font-size="11.00" fill="#000000">14 &gt;</text>
</a>
</g>
</g>
<!-- cart_item&#45;&gt;product -->
<g id="edge2" class="edge">
<title>cart_item:w&#45;&gt;product:e</title>
<path fill="none" stroke="#000000" d="M184.5468,-221.9012C169.661,-209.0281 173.8017,-174.7 147.5,-174.7"/>
<polygon fill="#000000" stroke="#000000" points="190.9349,-224.0982 197.3292,-230.1043 194.7175,-225.3991 198.5,-226.7 198.5,-226.7 198.5,-226.7 194.7175,-225.3991 199.6708,-223.2957 190.9349,-224.0982 190.9349,-224.0982"/>
<ellipse fill="none" stroke="#000000" cx="187.9089" cy="-223.0574" rx="3.2" ry="3.2"/>
</g>
</g>
</svg>
