<?xml version="1.0" encoding="UTF-8" standalone="no"?>
<!DOCTYPE svg PUBLIC "-//W3C//DTD SVG 1.1//EN"
 "http://www.w3.org/Graphics/SVG/1.1/DTD/svg11.dtd">
<!-- Generated by graphviz version 2.40.1 (20161225.0304)
 -->
<!-- Title: oneDegreeRelationshipsDiagram Pages: 1 -->
<svg width="498pt" height="221pt"
 viewBox="0.00 0.00 498.00 221.20" xmlns="http://www.w3.org/2000/svg" xmlns:xlink="http://www.w3.org/1999/xlink">
<g id="graph0" class="graph" transform="scale(1 1) rotate(0) translate(4 217.2)">
<title>oneDegreeRelationshipsDiagram</title>
<polygon fill="#ffffff" stroke="transparent" points="-4,4 -4,-217.2 494,-217.2 494,4 -4,4"/>
<text text-anchor="middle" x="72.4936" y="-7.3" font-family="Helvetica,sans-Serif" font-size="11.00" fill="#000000">Generated by SchemaSpy</text>
<!-- cart -->
<g id="node1" class="node">
<title>cart</title>
<g id="a_node1"><a xlink:href="../../tables/cart.html" xlink:title="cart" target="_top">
<polygon fill="#ffffff" stroke="transparent" points="168,-54.7 168,-188.7 341,-188.7 341,-54.7 168,-54.7"/>
<polygon fill="#f5f5f5" stroke="transparent" points="170.5,-163.7 170.5,-186.7 339.5,-186.7 339.5,-163.7 170.5,-163.7"/>
<polygon fill="none" stroke="#000000" points="170.5,-163.7 170.5,-186.7 339.5,-186.7 339.5,-163.7 170.5,-163.7"/>
<text text-anchor="start" x="175.3332" y="-172.3" font-family="Helvetica,sans-Serif" font-weight="bold" font-size="11.00" fill="#000000">cart</text>
<text text-anchor="start" x="304.5437" y="-171.8" font-family="Helvetica,sans-Serif" font-size="11.00" fill="#000000">[table]</text>
<polygon fill="none" stroke="#000000" points="170.5,-141.7 170.5,-163.7 255.5,-163.7 255.5,-141.7 170.5,-141.7"/>
<image xlink:href="../../images/primaryKeys.png" width="11px" height="12px" preserveAspectRatio="xMinYMin meet" x="175.5" y="-158.7"/>
<text text-anchor="start" x="190.5" y="-148.8" font-family="Helvetica,sans-Serif" font-size="11.00" fill="#000000">cart_id</text>
<polygon fill="none" stroke="#000000" points="255.5,-141.7 255.5,-163.7 339.5,-163.7 339.5,-141.7 255.5,-141.7"/>
<text text-anchor="start" x="258.5" y="-149.4" font-family="Helvetica,sans-Serif" font-size="11.00" fill="#000000">int8[19]</text>
<polygon fill="none" stroke="#000000" points="170.5,-119.7 170.5,-141.7 255.5,-141.7 255.5,-119.7 170.5,-119.7"/>
<image xlink:href="../../images/foreignKeys.png" width="11px" height="12px" preserveAspectRatio="xMinYMin meet" x="175.5" y="-136.7"/>
<text text-anchor="start" x="190.5" y="-126.8" font-family="Helvetica,sans-Serif" font-size="11.00" fill="#000000">user_id</text>
<polygon fill="none" stroke="#000000" points="255.5,-119.7 255.5,-141.7 339.5,-141.7 339.5,-119.7 255.5,-119.7"/>
<text text-anchor="start" x="258.5" y="-127.4" font-family="Helvetica,sans-Serif" font-size="11.00" fill="#000000">int8[19]</text>
<polygon fill="none" stroke="#000000" points="170.5,-97.7 170.5,-119.7 255.5,-119.7 255.5,-97.7 170.5,-97.7"/>
<text text-anchor="start" x="190.5" y="-104.8" font-family="Helvetica,sans-Serif" font-size="11.00" fill="#000000">created_at</text>
<polygon fill="none" stroke="#000000" points="255.5,-97.7 255.5,-119.7 339.5,-119.7 339.5,-97.7 255.5,-97.7"/>
<text text-anchor="start" x="258.3807" y="-105.4" font-family="Helvetica,sans-Serif" font-size="11.00" fill="#000000">timestamp[29,6]</text>
<polygon fill="none" stroke="#000000" points="170.5,-75.7 170.5,-97.7 255.5,-97.7 255.5,-75.7 170.5,-75.7"/>
<text text-anchor="start" x="190.5" y="-82.8" font-family="Helvetica,sans-Serif" font-size="11.00" fill="#000000">updated_at</text>
<polygon fill="none" stroke="#000000" points="255.5,-75.7 255.5,-97.7 339.5,-97.7 339.5,-75.7 255.5,-75.7"/>
<text text-anchor="start" x="258.3807" y="-83.4" font-family="Helvetica,sans-Serif" font-size="11.00" fill="#000000">timestamp[29,6]</text>
<polygon fill="#ffffff" stroke="transparent" points="170.5,-56.7 170.5,-75.7 217.5,-75.7 217.5,-56.7 170.5,-56.7"/>
<polygon fill="none" stroke="#000000" points="170.5,-56.7 170.5,-75.7 217.5,-75.7 217.5,-56.7 170.5,-56.7"/>
<text text-anchor="start" x="173.5" y="-62.8" font-family="Helvetica,sans-Serif" font-size="11.00" fill="#000000">&lt; 1</text>
<polygon fill="#ffffff" stroke="transparent" points="217.5,-56.7 217.5,-75.7 255.5,-75.7 255.5,-56.7 217.5,-56.7"/>
<polygon fill="none" stroke="#000000" points="217.5,-56.7 217.5,-75.7 255.5,-75.7 255.5,-56.7 217.5,-56.7"/>
<text text-anchor="start" x="246.3862" y="-62.8" font-family="Helvetica,sans-Serif" font-size="11.00" fill="#000000"> &#160;</text>
<polygon fill="#ffffff" stroke="transparent" points="255.5,-56.7 255.5,-75.7 339.5,-75.7 339.5,-56.7 255.5,-56.7"/>
<polygon fill="none" stroke="#000000" points="255.5,-56.7 255.5,-75.7 339.5,-75.7 339.5,-56.7 255.5,-56.7"/>
<text text-anchor="start" x="320.9053" y="-62.8" font-family="Helvetica,sans-Serif" font-size="11.00" fill="#000000">1 &gt;</text>
<polygon fill="none" stroke="#000000" stroke-width="2" points="169,-55.7 169,-187.7 340,-187.7 340,-55.7 169,-55.7"/>
</a>
</g>
</g>
<!-- user -->
<g id="node2" class="node">
<title>user</title>
<g id="a_node2"><a xlink:href="../../tables/user.html" xlink:title="user" target="_top">
<polygon fill="#ffffff" stroke="transparent" points="8,-38.2 8,-165.2 119,-165.2 119,-38.2 8,-38.2"/>
<polygon fill="#f5f5f5" stroke="transparent" points="8.5,-141.7 8.5,-164.7 119.5,-164.7 119.5,-141.7 8.5,-141.7"/>
<polygon fill="none" stroke="#000000" points="8.5,-141.7 8.5,-164.7 119.5,-164.7 119.5,-141.7 8.5,-141.7"/>
<text text-anchor="start" x="13.3042" y="-150.3" font-family="Helvetica,sans-Serif" font-weight="bold" font-size="11.00" fill="#000000">user</text>
<text text-anchor="start" x="84.5437" y="-149.8" font-family="Helvetica,sans-Serif" font-size="11.00" fill="#000000">[table]</text>
<polygon fill="none" stroke="#000000" points="8.5,-119.7 8.5,-141.7 119.5,-141.7 119.5,-119.7 8.5,-119.7"/>
<image xlink:href="../../images/primaryKeys.png" width="11px" height="12px" preserveAspectRatio="xMinYMin meet" x="13.5" y="-136.7"/>
<text text-anchor="start" x="28.5" y="-126.8" font-family="Helvetica,sans-Serif" font-size="11.00" fill="#000000">user_id</text>
<polygon fill="#ffffff" stroke="transparent" points="8.5,-97.7 8.5,-119.7 119.5,-119.7 119.5,-97.7 8.5,-97.7"/>
<polygon fill="none" stroke="#000000" points="8.5,-97.7 8.5,-119.7 119.5,-119.7 119.5,-97.7 8.5,-97.7"/>
<text text-anchor="start" x="28.5" y="-104.8" font-family="Helvetica,sans-Serif" font-size="11.00" fill="#000000">email</text>
<polygon fill="#ffffff" stroke="transparent" points="8.5,-75.7 8.5,-97.7 119.5,-97.7 119.5,-75.7 8.5,-75.7"/>
<polygon fill="none" stroke="#000000" points="8.5,-75.7 8.5,-97.7 119.5,-97.7 119.5,-75.7 8.5,-75.7"/>
<text text-anchor="start" x="28.5" y="-82.8" font-family="Helvetica,sans-Serif" font-size="11.00" fill="#000000">phone_number</text>
<polygon fill="none" stroke="#000000" points="8.5,-56.7 8.5,-75.7 119.5,-75.7 119.5,-56.7 8.5,-56.7"/>
<text text-anchor="start" x="11.5" y="-62.8" font-family="Helvetica,sans-Serif" font-size="11.00" fill="#000000">...</text>
<polygon fill="#ffffff" stroke="transparent" points="8.5,-37.7 8.5,-56.7 50.5,-56.7 50.5,-37.7 8.5,-37.7"/>
<polygon fill="none" stroke="#000000" points="8.5,-37.7 8.5,-56.7 50.5,-56.7 50.5,-37.7 8.5,-37.7"/>
<text text-anchor="start" x="11.5" y="-43.8" font-family="Helvetica,sans-Serif" font-size="11.00" fill="#000000"> &#160;</text>
<polygon fill="#ffffff" stroke="transparent" points="50.5,-37.7 50.5,-56.7 77.5,-56.7 77.5,-37.7 50.5,-37.7"/>
<polygon fill="none" stroke="#000000" points="50.5,-37.7 50.5,-56.7 77.5,-56.7 77.5,-37.7 50.5,-37.7"/>
<text text-anchor="start" x="68.3862" y="-43.8" font-family="Helvetica,sans-Serif" font-size="11.00" fill="#000000"> &#160;</text>
<polygon fill="#ffffff" stroke="transparent" points="77.5,-37.7 77.5,-56.7 119.5,-56.7 119.5,-37.7 77.5,-37.7"/>
<polygon fill="none" stroke="#000000" points="77.5,-37.7 77.5,-56.7 119.5,-56.7 119.5,-37.7 77.5,-37.7"/>
<text text-anchor="start" x="94.7904" y="-43.8" font-family="Helvetica,sans-Serif" font-size="11.00" fill="#000000">14 &gt;</text>
</a>
</g>
</g>
<!-- cart&#45;&gt;user -->
<g id="edge1" class="edge">
<title>cart:w&#45;&gt;user:e</title>
<path fill="none" stroke="#000000" d="M155.776,-130.7C143.7815,-130.7 136.3229,-130.7 119.5,-130.7"/>
<polygon fill="#000000" stroke="#000000" points="162.5,-130.7001 170.5,-134.3 166.5,-130.7 170.5,-130.7 170.5,-130.7 170.5,-130.7 166.5,-130.7 170.5,-127.1 162.5,-130.7001 162.5,-130.7001"/>
<ellipse fill="none" stroke="#000000" cx="159.3" cy="-130.7001" rx="3.2" ry="3.2"/>
</g>
<!-- cart_item -->
<g id="node3" class="node">
<title>cart_item</title>
<g id="a_node3"><a xlink:href="../../tables/cart_item.html" xlink:title="cart_item" target="_top">
<polygon fill="#ffffff" stroke="transparent" points="390,-82.2 390,-209.2 482,-209.2 482,-82.2 390,-82.2"/>
<polygon fill="#f5f5f5" stroke="transparent" points="390,-185.7 390,-208.7 482,-208.7 482,-185.7 390,-185.7"/>
<polygon fill="none" stroke="#000000" points="390,-185.7 390,-208.7 482,-208.7 482,-185.7 390,-185.7"/>
<text text-anchor="start" x="395" y="-194.3" font-family="Helvetica,sans-Serif" font-weight="bold" font-size="11.00" fill="#000000">cart_item</text>
<text text-anchor="start" x="447.5219" y="-193.8" font-family="Helvetica,sans-Serif" font-size="11.00" fill="#000000">[table]</text>
<polygon fill="none" stroke="#000000" points="390,-163.7 390,-185.7 482,-185.7 482,-163.7 390,-163.7"/>
<image xlink:href="../../images/primaryKeys.png" width="11px" height="12px" preserveAspectRatio="xMinYMin meet" x="395" y="-180.7"/>
<text text-anchor="start" x="411" y="-170.8" font-family="Helvetica,sans-Serif" font-size="11.00" fill="#000000">cart_item_id</text>
<polygon fill="none" stroke="#000000" points="390,-141.7 390,-163.7 482,-163.7 482,-141.7 390,-141.7"/>
<image xlink:href="../../images/foreignKeys.png" width="11px" height="12px" preserveAspectRatio="xMinYMin meet" x="395" y="-158.7"/>
<text text-anchor="start" x="411" y="-148.8" font-family="Helvetica,sans-Serif" font-size="11.00" fill="#000000">cart_id</text>
<polygon fill="none" stroke="#000000" points="390,-119.7 390,-141.7 482,-141.7 482,-119.7 390,-119.7"/>
<image xlink:href="../../images/foreignKeys.png" width="11px" height="12px" preserveAspectRatio="xMinYMin meet" x="395" y="-136.7"/>
<text text-anchor="start" x="411" y="-126.8" font-family="Helvetica,sans-Serif" font-size="11.00" fill="#000000">product_id</text>
<polygon fill="none" stroke="#000000" points="390,-100.7 390,-119.7 482,-119.7 482,-100.7 390,-100.7"/>
<text text-anchor="start" x="393" y="-106.8" font-family="Helvetica,sans-Serif" font-size="11.00" fill="#000000">...</text>
<polygon fill="#ffffff" stroke="transparent" points="390,-81.7 390,-100.7 434,-100.7 434,-81.7 390,-81.7"/>
<polygon fill="none" stroke="#000000" points="390,-81.7 390,-100.7 434,-100.7 434,-81.7 390,-81.7"/>
<text text-anchor="start" x="393" y="-87.8" font-family="Helvetica,sans-Serif" font-size="11.00" fill="#000000">&lt; 2</text>
<polygon fill="#ffffff" stroke="transparent" points="434,-81.7 434,-100.7 458,-100.7 458,-81.7 434,-81.7"/>
<polygon fill="none" stroke="#000000" points="434,-81.7 434,-100.7 458,-100.7 458,-81.7 434,-81.7"/>
<text text-anchor="start" x="448.8862" y="-87.8" font-family="Helvetica,sans-Serif" font-size="11.00" fill="#000000"> &#160;</text>
<polygon fill="#ffffff" stroke="transparent" points="458,-81.7 458,-100.7 482,-100.7 482,-81.7 458,-81.7"/>
<polygon fill="none" stroke="#000000" points="458,-81.7 458,-100.7 482,-100.7 482,-81.7 458,-81.7"/>
<text text-anchor="start" x="472.8862" y="-87.8" font-family="Helvetica,sans-Serif" font-size="11.00" fill="#000000"> &#160;</text>
</a>
</g>
</g>
<!-- cart_item&#45;&gt;cart -->
<g id="edge2" class="edge">
<title>cart_item:w&#45;&gt;cart:e</title>
<path fill="none" stroke="#000000" d="M375.4203,-152.7C363.5435,-152.7 356.158,-152.7 339.5,-152.7"/>
<polygon fill="#000000" stroke="#000000" points="382,-152.7001 390,-156.3 386,-152.7 390,-152.7 390,-152.7 390,-152.7 386,-152.7 390,-149.1 382,-152.7001 382,-152.7001"/>
<ellipse fill="none" stroke="#000000" cx="378.8" cy="-152.7001" rx="3.2" ry="3.2"/>
</g>
</g>
</svg>
