<?xml version="1.0" encoding="UTF-8" standalone="no"?>
<!DOCTYPE svg PUBLIC "-//W3C//DTD SVG 1.1//EN"
 "http://www.w3.org/Graphics/SVG/1.1/DTD/svg11.dtd">
<!-- Generated by graphviz version 2.40.1 (20161225.0304)
 -->
<!-- Title: oneDegreeRelationshipsDiagram Pages: 1 -->
<svg width="585pt" height="404pt"
 viewBox="0.00 0.00 585.00 404.20" xmlns="http://www.w3.org/2000/svg" xmlns:xlink="http://www.w3.org/1999/xlink">
<g id="graph0" class="graph" transform="scale(1 1) rotate(0) translate(4 400.2)">
<title>oneDegreeRelationshipsDiagram</title>
<polygon fill="#ffffff" stroke="transparent" points="-4,4 -4,-400.2 581,-400.2 581,4 -4,4"/>
<text text-anchor="middle" x="72.4936" y="-7.3" font-family="Helvetica,sans-Serif" font-size="11.00" fill="#000000">Generated by SchemaSpy</text>
<!-- order_2024_08 -->
<g id="node1" class="node">
<title>order_2024_08</title>
<g id="a_node1"><a xlink:href="../../tables/order_2024_08.html" xlink:title="order_2024_08" target="_top">
<polygon fill="#ffffff" stroke="transparent" points="168,-38.2 168,-392.2 419,-392.2 419,-38.2 168,-38.2"/>
<polygon fill="#f5f5f5" stroke="transparent" points="170.5,-367.2 170.5,-390.2 417.5,-390.2 417.5,-367.2 170.5,-367.2"/>
<polygon fill="none" stroke="#000000" points="170.5,-367.2 170.5,-390.2 417.5,-390.2 417.5,-367.2 170.5,-367.2"/>
<text text-anchor="start" x="175.5" y="-375.8" font-family="Helvetica,sans-Serif" font-weight="bold" font-size="11.00" fill="#000000">order_2024_08</text>
<text text-anchor="start" x="382.5437" y="-375.3" font-family="Helvetica,sans-Serif" font-size="11.00" fill="#000000">[table]</text>
<polygon fill="none" stroke="#000000" points="170.5,-345.2 170.5,-367.2 333.5,-367.2 333.5,-345.2 170.5,-345.2"/>
<image xlink:href="../../images/primaryKeys.png" width="11px" height="12px" preserveAspectRatio="xMinYMin meet" x="175.5" y="-362.2"/>
<text text-anchor="start" x="190.5" y="-352.3" font-family="Helvetica,sans-Serif" font-size="11.00" fill="#000000">order_id</text>
<polygon fill="none" stroke="#000000" points="333.5,-345.2 333.5,-367.2 417.5,-367.2 417.5,-345.2 333.5,-345.2"/>
<text text-anchor="start" x="336.5" y="-352.9" font-family="Helvetica,sans-Serif" font-size="11.00" fill="#000000">int8[19]</text>
<polygon fill="none" stroke="#000000" points="170.5,-323.2 170.5,-345.2 333.5,-345.2 333.5,-323.2 170.5,-323.2"/>
<image xlink:href="../../images/foreignKeys.png" width="11px" height="12px" preserveAspectRatio="xMinYMin meet" x="175.5" y="-340.2"/>
<text text-anchor="start" x="190.5" y="-330.3" font-family="Helvetica,sans-Serif" font-size="11.00" fill="#000000">user_id</text>
<polygon fill="none" stroke="#000000" points="333.5,-323.2 333.5,-345.2 417.5,-345.2 417.5,-323.2 333.5,-323.2"/>
<text text-anchor="start" x="336.5" y="-330.9" font-family="Helvetica,sans-Serif" font-size="11.00" fill="#000000">int8[19]</text>
<polygon fill="none" stroke="#000000" points="170.5,-301.2 170.5,-323.2 333.5,-323.2 333.5,-301.2 170.5,-301.2"/>
<text text-anchor="start" x="190.5" y="-308.3" font-family="Helvetica,sans-Serif" font-size="11.00" fill="#000000">total_price</text>
<polygon fill="none" stroke="#000000" points="333.5,-301.2 333.5,-323.2 417.5,-323.2 417.5,-301.2 333.5,-301.2"/>
<text text-anchor="start" x="336.5" y="-308.9" font-family="Helvetica,sans-Serif" font-size="11.00" fill="#000000">numeric[10,2]</text>
<polygon fill="none" stroke="#000000" points="170.5,-279.2 170.5,-301.2 333.5,-301.2 333.5,-279.2 170.5,-279.2"/>
<text text-anchor="start" x="190.5" y="-286.3" font-family="Helvetica,sans-Serif" font-size="11.00" fill="#000000">status</text>
<polygon fill="none" stroke="#000000" points="333.5,-279.2 333.5,-301.2 417.5,-301.2 417.5,-279.2 333.5,-279.2"/>
<text text-anchor="start" x="336.5" y="-286.9" font-family="Helvetica,sans-Serif" font-size="11.00" fill="#000000">varchar[20]</text>
<polygon fill="none" stroke="#000000" points="170.5,-257.2 170.5,-279.2 333.5,-279.2 333.5,-257.2 170.5,-257.2"/>
<image xlink:href="../../images/primaryKeys.png" width="11px" height="12px" preserveAspectRatio="xMinYMin meet" x="175.5" y="-274.2"/>
<text text-anchor="start" x="190.5" y="-264.3" font-family="Helvetica,sans-Serif" font-size="11.00" fill="#000000">order_date</text>
<polygon fill="none" stroke="#000000" points="333.5,-257.2 333.5,-279.2 417.5,-279.2 417.5,-257.2 333.5,-257.2"/>
<text text-anchor="start" x="336.3807" y="-264.9" font-family="Helvetica,sans-Serif" font-size="11.00" fill="#000000">timestamp[29,6]</text>
<polygon fill="none" stroke="#000000" points="170.5,-235.2 170.5,-257.2 333.5,-257.2 333.5,-235.2 170.5,-235.2"/>
<text text-anchor="start" x="190.5" y="-242.3" font-family="Helvetica,sans-Serif" font-size="11.00" fill="#000000">shipping_prefecture</text>
<polygon fill="none" stroke="#000000" points="333.5,-235.2 333.5,-257.2 417.5,-257.2 417.5,-235.2 333.5,-235.2"/>
<text text-anchor="start" x="336.5" y="-242.9" font-family="Helvetica,sans-Serif" font-size="11.00" fill="#000000">varchar[5]</text>
<polygon fill="none" stroke="#000000" points="170.5,-213.2 170.5,-235.2 333.5,-235.2 333.5,-213.2 170.5,-213.2"/>
<text text-anchor="start" x="190.5" y="-220.3" font-family="Helvetica,sans-Serif" font-size="11.00" fill="#000000">shipping_city</text>
<polygon fill="none" stroke="#000000" points="333.5,-213.2 333.5,-235.2 417.5,-235.2 417.5,-213.2 333.5,-213.2"/>
<text text-anchor="start" x="336.5" y="-220.9" font-family="Helvetica,sans-Serif" font-size="11.00" fill="#000000">varchar[50]</text>
<polygon fill="none" stroke="#000000" points="170.5,-191.2 170.5,-213.2 333.5,-213.2 333.5,-191.2 170.5,-191.2"/>
<text text-anchor="start" x="190.5" y="-198.3" font-family="Helvetica,sans-Serif" font-size="11.00" fill="#000000">shipping_street_address</text>
<polygon fill="none" stroke="#000000" points="333.5,-191.2 333.5,-213.2 417.5,-213.2 417.5,-191.2 333.5,-191.2"/>
<text text-anchor="start" x="336.5" y="-198.9" font-family="Helvetica,sans-Serif" font-size="11.00" fill="#000000">varchar[255]</text>
<polygon fill="none" stroke="#000000" points="170.5,-169.2 170.5,-191.2 333.5,-191.2 333.5,-169.2 170.5,-169.2"/>
<text text-anchor="start" x="190.5" y="-176.3" font-family="Helvetica,sans-Serif" font-size="11.00" fill="#000000">shipping_building_name</text>
<polygon fill="none" stroke="#000000" points="333.5,-169.2 333.5,-191.2 417.5,-191.2 417.5,-169.2 333.5,-169.2"/>
<text text-anchor="start" x="336.5" y="-176.9" font-family="Helvetica,sans-Serif" font-size="11.00" fill="#000000">varchar[255]</text>
<polygon fill="none" stroke="#000000" points="170.5,-147.2 170.5,-169.2 333.5,-169.2 333.5,-147.2 170.5,-147.2"/>
<text text-anchor="start" x="190.5" y="-154.3" font-family="Helvetica,sans-Serif" font-size="11.00" fill="#000000">payment_method</text>
<polygon fill="none" stroke="#000000" points="333.5,-147.2 333.5,-169.2 417.5,-169.2 417.5,-147.2 333.5,-147.2"/>
<text text-anchor="start" x="336.5" y="-154.9" font-family="Helvetica,sans-Serif" font-size="11.00" fill="#000000">varchar[20]</text>
<polygon fill="none" stroke="#000000" points="170.5,-125.2 170.5,-147.2 333.5,-147.2 333.5,-125.2 170.5,-125.2"/>
<text text-anchor="start" x="190.5" y="-132.3" font-family="Helvetica,sans-Serif" font-size="11.00" fill="#000000">payment_status</text>
<polygon fill="none" stroke="#000000" points="333.5,-125.2 333.5,-147.2 417.5,-147.2 417.5,-125.2 333.5,-125.2"/>
<text text-anchor="start" x="336.5" y="-132.9" font-family="Helvetica,sans-Serif" font-size="11.00" fill="#000000">varchar[20]</text>
<polygon fill="none" stroke="#000000" points="170.5,-103.2 170.5,-125.2 333.5,-125.2 333.5,-103.2 170.5,-103.2"/>
<text text-anchor="start" x="190.5" y="-110.3" font-family="Helvetica,sans-Serif" font-size="11.00" fill="#000000">payment_date</text>
<polygon fill="none" stroke="#000000" points="333.5,-103.2 333.5,-125.2 417.5,-125.2 417.5,-103.2 333.5,-103.2"/>
<text text-anchor="start" x="336.3807" y="-110.9" font-family="Helvetica,sans-Serif" font-size="11.00" fill="#000000">timestamp[29,6]</text>
<polygon fill="none" stroke="#000000" points="170.5,-81.2 170.5,-103.2 333.5,-103.2 333.5,-81.2 170.5,-81.2"/>
<text text-anchor="start" x="190.5" y="-88.3" font-family="Helvetica,sans-Serif" font-size="11.00" fill="#000000">created_at</text>
<polygon fill="none" stroke="#000000" points="333.5,-81.2 333.5,-103.2 417.5,-103.2 417.5,-81.2 333.5,-81.2"/>
<text text-anchor="start" x="336.3807" y="-88.9" font-family="Helvetica,sans-Serif" font-size="11.00" fill="#000000">timestamp[29,6]</text>
<polygon fill="none" stroke="#000000" points="170.5,-59.2 170.5,-81.2 333.5,-81.2 333.5,-59.2 170.5,-59.2"/>
<text text-anchor="start" x="190.5" y="-66.3" font-family="Helvetica,sans-Serif" font-size="11.00" fill="#000000">updated_at</text>
<polygon fill="none" stroke="#000000" points="333.5,-59.2 333.5,-81.2 417.5,-81.2 417.5,-59.2 333.5,-59.2"/>
<text text-anchor="start" x="336.3807" y="-66.9" font-family="Helvetica,sans-Serif" font-size="11.00" fill="#000000">timestamp[29,6]</text>
<polygon fill="#ffffff" stroke="transparent" points="170.5,-40.2 170.5,-59.2 256.5,-59.2 256.5,-40.2 170.5,-40.2"/>
<polygon fill="none" stroke="#000000" points="170.5,-40.2 170.5,-59.2 256.5,-59.2 256.5,-40.2 170.5,-40.2"/>
<text text-anchor="start" x="173.5" y="-46.3" font-family="Helvetica,sans-Serif" font-size="11.00" fill="#000000">&lt; 1</text>
<polygon fill="#ffffff" stroke="transparent" points="256.5,-40.2 256.5,-59.2 333.5,-59.2 333.5,-40.2 256.5,-40.2"/>
<polygon fill="none" stroke="#000000" points="256.5,-40.2 256.5,-59.2 333.5,-59.2 333.5,-40.2 256.5,-40.2"/>
<text text-anchor="start" x="324.3862" y="-46.3" font-family="Helvetica,sans-Serif" font-size="11.00" fill="#000000"> &#160;</text>
<polygon fill="#ffffff" stroke="transparent" points="333.5,-40.2 333.5,-59.2 417.5,-59.2 417.5,-40.2 333.5,-40.2"/>
<polygon fill="none" stroke="#000000" points="333.5,-40.2 333.5,-59.2 417.5,-59.2 417.5,-40.2 333.5,-40.2"/>
<text text-anchor="start" x="398.9053" y="-46.3" font-family="Helvetica,sans-Serif" font-size="11.00" fill="#000000">2 &gt;</text>
<polygon fill="none" stroke="#000000" stroke-width="2" points="169,-39.2 169,-391.2 418,-391.2 418,-39.2 169,-39.2"/>
</a>
</g>
</g>
<!-- user -->
<g id="node2" class="node">
<title>user</title>
<g id="a_node2"><a xlink:href="../../tables/user.html" xlink:title="user" target="_top">
<polygon fill="#ffffff" stroke="transparent" points="8,-241.7 8,-368.7 119,-368.7 119,-241.7 8,-241.7"/>
<polygon fill="#f5f5f5" stroke="transparent" points="8.5,-345.2 8.5,-368.2 119.5,-368.2 119.5,-345.2 8.5,-345.2"/>
<polygon fill="none" stroke="#000000" points="8.5,-345.2 8.5,-368.2 119.5,-368.2 119.5,-345.2 8.5,-345.2"/>
<text text-anchor="start" x="13.3042" y="-353.8" font-family="Helvetica,sans-Serif" font-weight="bold" font-size="11.00" fill="#000000">user</text>
<text text-anchor="start" x="84.5437" y="-353.3" font-family="Helvetica,sans-Serif" font-size="11.00" fill="#000000">[table]</text>
<polygon fill="none" stroke="#000000" points="8.5,-323.2 8.5,-345.2 119.5,-345.2 119.5,-323.2 8.5,-323.2"/>
<image xlink:href="../../images/primaryKeys.png" width="11px" height="12px" preserveAspectRatio="xMinYMin meet" x="13.5" y="-340.2"/>
<text text-anchor="start" x="28.5" y="-330.3" font-family="Helvetica,sans-Serif" font-size="11.00" fill="#000000">user_id</text>
<polygon fill="#ffffff" stroke="transparent" points="8.5,-301.2 8.5,-323.2 119.5,-323.2 119.5,-301.2 8.5,-301.2"/>
<polygon fill="none" stroke="#000000" points="8.5,-301.2 8.5,-323.2 119.5,-323.2 119.5,-301.2 8.5,-301.2"/>
<text text-anchor="start" x="28.5" y="-308.3" font-family="Helvetica,sans-Serif" font-size="11.00" fill="#000000">email</text>
<polygon fill="#ffffff" stroke="transparent" points="8.5,-279.2 8.5,-301.2 119.5,-301.2 119.5,-279.2 8.5,-279.2"/>
<polygon fill="none" stroke="#000000" points="8.5,-279.2 8.5,-301.2 119.5,-301.2 119.5,-279.2 8.5,-279.2"/>
<text text-anchor="start" x="28.5" y="-286.3" font-family="Helvetica,sans-Serif" font-size="11.00" fill="#000000">phone_number</text>
<polygon fill="none" stroke="#000000" points="8.5,-260.2 8.5,-279.2 119.5,-279.2 119.5,-260.2 8.5,-260.2"/>
<text text-anchor="start" x="11.5" y="-266.3" font-family="Helvetica,sans-Serif" font-size="11.00" fill="#000000">...</text>
<polygon fill="#ffffff" stroke="transparent" points="8.5,-241.2 8.5,-260.2 50.5,-260.2 50.5,-241.2 8.5,-241.2"/>
<polygon fill="none" stroke="#000000" points="8.5,-241.2 8.5,-260.2 50.5,-260.2 50.5,-241.2 8.5,-241.2"/>
<text text-anchor="start" x="11.5" y="-247.3" font-family="Helvetica,sans-Serif" font-size="11.00" fill="#000000"> &#160;</text>
<polygon fill="#ffffff" stroke="transparent" points="50.5,-241.2 50.5,-260.2 77.5,-260.2 77.5,-241.2 50.5,-241.2"/>
<polygon fill="none" stroke="#000000" points="50.5,-241.2 50.5,-260.2 77.5,-260.2 77.5,-241.2 50.5,-241.2"/>
<text text-anchor="start" x="68.3862" y="-247.3" font-family="Helvetica,sans-Serif" font-size="11.00" fill="#000000"> &#160;</text>
<polygon fill="#ffffff" stroke="transparent" points="77.5,-241.2 77.5,-260.2 119.5,-260.2 119.5,-241.2 77.5,-241.2"/>
<polygon fill="none" stroke="#000000" points="77.5,-241.2 77.5,-260.2 119.5,-260.2 119.5,-241.2 77.5,-241.2"/>
<text text-anchor="start" x="94.7904" y="-247.3" font-family="Helvetica,sans-Serif" font-size="11.00" fill="#000000">14 &gt;</text>
</a>
</g>
</g>
<!-- order_2024_08&#45;&gt;user -->
<g id="edge1" class="edge">
<title>order_2024_08:w&#45;&gt;user:e</title>
<path fill="none" stroke="#000000" d="M155.776,-334.2C143.7815,-334.2 136.3229,-334.2 119.5,-334.2"/>
<polygon fill="#000000" stroke="#000000" points="162.5,-334.2001 170.5,-337.8 166.5,-334.2 170.5,-334.2 170.5,-334.2 170.5,-334.2 166.5,-334.2 170.5,-330.6 162.5,-334.2001 162.5,-334.2001"/>
<ellipse fill="none" stroke="#000000" cx="159.3" cy="-334.2001" rx="3.2" ry="3.2"/>
</g>
<!-- order_item -->
<g id="node3" class="node">
<title>order_item</title>
<g id="a_node3"><a xlink:href="../../tables/order_item.html" xlink:title="order_item" target="_top">
<polygon fill="#ffffff" stroke="transparent" points="468,-241.7 468,-390.7 569,-390.7 569,-241.7 468,-241.7"/>
<polygon fill="#f5f5f5" stroke="transparent" points="468.5,-367.2 468.5,-390.2 569.5,-390.2 569.5,-367.2 468.5,-367.2"/>
<polygon fill="none" stroke="#000000" points="468.5,-367.2 468.5,-390.2 569.5,-390.2 569.5,-367.2 468.5,-367.2"/>
<text text-anchor="start" x="473.5" y="-375.8" font-family="Helvetica,sans-Serif" font-weight="bold" font-size="11.00" fill="#000000">order_item</text>
<text text-anchor="start" x="535.0219" y="-375.3" font-family="Helvetica,sans-Serif" font-size="11.00" fill="#000000">[table]</text>
<polygon fill="none" stroke="#000000" points="468.5,-345.2 468.5,-367.2 569.5,-367.2 569.5,-345.2 468.5,-345.2"/>
<image xlink:href="../../images/primaryKeys.png" width="11px" height="12px" preserveAspectRatio="xMinYMin meet" x="473.5" y="-362.2"/>
<text text-anchor="start" x="489.5" y="-352.3" font-family="Helvetica,sans-Serif" font-size="11.00" fill="#000000">order_item_id</text>
<polygon fill="none" stroke="#000000" points="468.5,-323.2 468.5,-345.2 569.5,-345.2 569.5,-323.2 468.5,-323.2"/>
<image xlink:href="../../images/foreignKeys.png" width="11px" height="12px" preserveAspectRatio="xMinYMin meet" x="473.5" y="-340.2"/>
<text text-anchor="start" x="489.5" y="-330.3" font-family="Helvetica,sans-Serif" font-size="11.00" fill="#000000">order_id</text>
<polygon fill="none" stroke="#000000" points="468.5,-301.2 468.5,-323.2 569.5,-323.2 569.5,-301.2 468.5,-301.2"/>
<image xlink:href="../../images/foreignKeys.png" width="11px" height="12px" preserveAspectRatio="xMinYMin meet" x="473.5" y="-318.2"/>
<text text-anchor="start" x="489.5" y="-308.3" font-family="Helvetica,sans-Serif" font-size="11.00" fill="#000000">product_id</text>
<polygon fill="none" stroke="#000000" points="468.5,-279.2 468.5,-301.2 569.5,-301.2 569.5,-279.2 468.5,-279.2"/>
<image xlink:href="../../images/primaryKeys.png" width="11px" height="12px" preserveAspectRatio="xMinYMin meet" x="473.5" y="-296.2"/>
<text text-anchor="start" x="489.5" y="-286.3" font-family="Helvetica,sans-Serif" font-size="11.00" fill="#000000">order_date</text>
<polygon fill="none" stroke="#000000" points="468.5,-260.2 468.5,-279.2 569.5,-279.2 569.5,-260.2 468.5,-260.2"/>
<text text-anchor="start" x="471.5" y="-266.3" font-family="Helvetica,sans-Serif" font-size="11.00" fill="#000000">...</text>
<polygon fill="#ffffff" stroke="transparent" points="468.5,-241.2 468.5,-260.2 520.5,-260.2 520.5,-241.2 468.5,-241.2"/>
<polygon fill="none" stroke="#000000" points="468.5,-241.2 468.5,-260.2 520.5,-260.2 520.5,-241.2 468.5,-241.2"/>
<text text-anchor="start" x="471.5" y="-247.3" font-family="Helvetica,sans-Serif" font-size="11.00" fill="#000000">&lt; 27</text>
<polygon fill="#ffffff" stroke="transparent" points="520.5,-241.2 520.5,-260.2 544.5,-260.2 544.5,-241.2 520.5,-241.2"/>
<polygon fill="none" stroke="#000000" points="520.5,-241.2 520.5,-260.2 544.5,-260.2 544.5,-241.2 520.5,-241.2"/>
<text text-anchor="start" x="535.3862" y="-247.3" font-family="Helvetica,sans-Serif" font-size="11.00" fill="#000000"> &#160;</text>
<polygon fill="#ffffff" stroke="transparent" points="544.5,-241.2 544.5,-260.2 569.5,-260.2 569.5,-241.2 544.5,-241.2"/>
<polygon fill="none" stroke="#000000" points="544.5,-241.2 544.5,-260.2 569.5,-260.2 569.5,-241.2 544.5,-241.2"/>
<text text-anchor="start" x="560.3862" y="-247.3" font-family="Helvetica,sans-Serif" font-size="11.00" fill="#000000"> &#160;</text>
</a>
</g>
</g>
<!-- order_item&#45;&gt;order_2024_08 -->
<g id="edge2" class="edge">
<title>order_item:w&#45;&gt;order_2024_08:e</title>
<path fill="none" stroke="#000000" d="M454.3489,-287.141C441.7843,-281.096 436.4,-268.2 417.5,-268.2"/>
<polygon fill="#000000" stroke="#000000" points="460.6806,-288.5097 467.7393,-293.7187 464.5903,-289.3548 468.5,-290.2 468.5,-290.2 468.5,-290.2 464.5903,-289.3548 469.2607,-286.6813 460.6806,-288.5097 460.6806,-288.5097"/>
<ellipse fill="none" stroke="#000000" cx="457.5528" cy="-287.8335" rx="3.2" ry="3.2"/>
</g>
<!-- order_item&#45;&gt;order_2024_08 -->
<g id="edge3" class="edge">
<title>order_item:w&#45;&gt;order_2024_08:e</title>
<path fill="none" stroke="#000000" d="M454.3489,-337.259C441.7843,-343.304 436.4,-356.2 417.5,-356.2"/>
<polygon fill="#000000" stroke="#000000" points="460.6806,-335.8903 469.2607,-337.7187 464.5903,-335.0452 468.5,-334.2 468.5,-334.2 468.5,-334.2 464.5903,-335.0452 467.7393,-330.6813 460.6806,-335.8903 460.6806,-335.8903"/>
<ellipse fill="none" stroke="#000000" cx="457.5528" cy="-336.5665" rx="3.2" ry="3.2"/>
</g>
</g>
</svg>
