<?xml version="1.0" encoding="UTF-8" standalone="no"?>
<!DOCTYPE svg PUBLIC "-//W3C//DTD SVG 1.1//EN"
 "http://www.w3.org/Graphics/SVG/1.1/DTD/svg11.dtd">
<!-- Generated by graphviz version 2.40.1 (20161225.0304)
 -->
<!-- Title: compactImpliedRelationshipsDiagram Pages: 1 -->
<svg width="353pt" height="199pt"
 viewBox="0.00 0.00 353.00 199.20" xmlns="http://www.w3.org/2000/svg" xmlns:xlink="http://www.w3.org/1999/xlink">
<g id="graph0" class="graph" transform="scale(1 1) rotate(0) translate(4 195.2)">
<title>compactImpliedRelationshipsDiagram</title>
<polygon fill="#ffffff" stroke="transparent" points="-4,4 -4,-195.2 349,-195.2 349,4 -4,4"/>
<text text-anchor="middle" x="72.4936" y="-7.3" font-family="Helvetica,sans-Serif" font-size="11.00" fill="#000000">Generated by SchemaSpy</text>
<!-- spatial_ref_sys -->
<g id="node1" class="node">
<title>spatial_ref_sys</title>
<g id="a_node1"><a xlink:href="../../tables/spatial_ref_sys.html" xlink:title="spatial_ref_sys" target="_top">
<polygon fill="#ffffff" stroke="transparent" points="8,-61.7 8,-144.7 133,-144.7 133,-61.7 8,-61.7"/>
<polygon fill="#f5f5f5" stroke="transparent" points="8.5,-121.2 8.5,-144.2 133.5,-144.2 133.5,-121.2 8.5,-121.2"/>
<polygon fill="none" stroke="#000000" points="8.5,-121.2 8.5,-144.2 133.5,-144.2 133.5,-121.2 8.5,-121.2"/>
<text text-anchor="start" x="13.5" y="-129.8" font-family="Helvetica,sans-Serif" font-weight="bold" font-size="11.00" fill="#000000">spatial_ref_sys</text>
<text text-anchor="start" x="99.0219" y="-129.3" font-family="Helvetica,sans-Serif" font-size="11.00" fill="#000000">[table]</text>
<polygon fill="none" stroke="#000000" points="8.5,-99.2 8.5,-121.2 133.5,-121.2 133.5,-99.2 8.5,-99.2"/>
<image xlink:href="../../images/primaryKeys.png" width="11px" height="12px" preserveAspectRatio="xMinYMin meet" x="13.5" y="-116.2"/>
<text text-anchor="start" x="37.5" y="-106.3" font-family="Helvetica,sans-Serif" font-size="11.00" fill="#000000">srid</text>
<polygon fill="none" stroke="#000000" points="8.5,-80.2 8.5,-99.2 133.5,-99.2 133.5,-80.2 8.5,-80.2"/>
<text text-anchor="start" x="11.5" y="-86.3" font-family="Helvetica,sans-Serif" font-size="11.00" fill="#000000">...</text>
<polygon fill="#ffffff" stroke="transparent" points="8.5,-61.2 8.5,-80.2 41.5,-80.2 41.5,-61.2 8.5,-61.2"/>
<polygon fill="none" stroke="#000000" points="8.5,-61.2 8.5,-80.2 41.5,-80.2 41.5,-61.2 8.5,-61.2"/>
<text text-anchor="start" x="11.5" y="-67.3" font-family="Helvetica,sans-Serif" font-size="11.00" fill="#000000"> &#160;</text>
<polygon fill="#ffffff" stroke="transparent" points="41.5,-61.2 41.5,-80.2 110.5,-80.2 110.5,-61.2 41.5,-61.2"/>
<polygon fill="none" stroke="#000000" points="41.5,-61.2 41.5,-80.2 110.5,-80.2 110.5,-61.2 41.5,-61.2"/>
<text text-anchor="start" x="53.7089" y="-67.3" font-family="Helvetica,sans-Serif" font-size="11.00" fill="#000000">8,500 rows</text>
<polygon fill="#ffffff" stroke="transparent" points="110.5,-61.2 110.5,-80.2 133.5,-80.2 133.5,-61.2 110.5,-61.2"/>
<polygon fill="none" stroke="#000000" points="110.5,-61.2 110.5,-80.2 133.5,-80.2 133.5,-61.2 110.5,-61.2"/>
<text text-anchor="start" x="124.3862" y="-67.3" font-family="Helvetica,sans-Serif" font-size="11.00" fill="#000000"> &#160;</text>
</a>
</g>
</g>
<!-- geography_columns -->
<g id="node2" class="node">
<title>geography_columns</title>
<g id="a_node2"><a xlink:href="../../tables/geography_columns.html" xlink:title="geography_columns" target="_top">
<polygon fill="#ffffff" stroke="transparent" points="182,-123.2 182,-187.2 337,-187.2 337,-123.2 182,-123.2"/>
<polygon fill="#f5f5f5" stroke="transparent" points="182.5,-164.2 182.5,-187.2 337.5,-187.2 337.5,-164.2 182.5,-164.2"/>
<polygon fill="none" stroke="#000000" points="182.5,-164.2 182.5,-187.2 337.5,-187.2 337.5,-164.2 182.5,-164.2"/>
<text text-anchor="start" x="187.5" y="-172.8" font-family="Helvetica,sans-Serif" font-weight="bold" font-size="11.00" fill="#000000">geography_columns</text>
<text text-anchor="start" x="304.4448" y="-172.3" font-family="Helvetica,sans-Serif" font-size="11.00" fill="#000000">[view]</text>
<polygon fill="none" stroke="#000000" points="182.5,-142.2 182.5,-164.2 337.5,-164.2 337.5,-142.2 182.5,-142.2"/>
<image xlink:href="../../images/foreignKeys.png" width="11px" height="12px" preserveAspectRatio="xMinYMin meet" x="187.5" y="-159.2"/>
<text text-anchor="start" x="209.5" y="-149.3" font-family="Helvetica,sans-Serif" font-size="11.00" fill="#000000">srid</text>
<polygon fill="none" stroke="#000000" points="182.5,-123.2 182.5,-142.2 337.5,-142.2 337.5,-123.2 182.5,-123.2"/>
<text text-anchor="start" x="185.5" y="-129.3" font-family="Helvetica,sans-Serif" font-size="11.00" fill="#000000">...</text>
</a>
</g>
</g>
<!-- geography_columns&#45;&gt;spatial_ref_sys -->
<g id="edge1" class="edge">
<title>geography_columns:w&#45;&gt;spatial_ref_sys:e</title>
<path fill="none" stroke="#000000" stroke-dasharray="5,2" d="M168.515,-148.2674C155.6135,-136.9726 156.3625,-110.2 133.5,-110.2"/>
<polygon fill="#000000" stroke="#000000" points="174.9555,-150.539 181.3025,-156.595 178.7278,-151.8695 182.5,-153.2 182.5,-153.2 182.5,-153.2 178.7278,-151.8695 183.6975,-149.805 174.9555,-150.539 174.9555,-150.539"/>
<ellipse fill="none" stroke="#000000" cx="171.9377" cy="-149.4745" rx="3.2" ry="3.2"/>
</g>
<!-- geometry_columns -->
<g id="node3" class="node">
<title>geometry_columns</title>
<g id="a_node3"><a xlink:href="../../tables/geometry_columns.html" xlink:title="geometry_columns" target="_top">
<polygon fill="#ffffff" stroke="transparent" points="185.5,-38.2 185.5,-102.2 333.5,-102.2 333.5,-38.2 185.5,-38.2"/>
<polygon fill="#f5f5f5" stroke="transparent" points="185.5,-79.2 185.5,-102.2 333.5,-102.2 333.5,-79.2 185.5,-79.2"/>
<polygon fill="none" stroke="#000000" points="185.5,-79.2 185.5,-102.2 333.5,-102.2 333.5,-79.2 185.5,-79.2"/>
<text text-anchor="start" x="190.5" y="-87.8" font-family="Helvetica,sans-Serif" font-weight="bold" font-size="11.00" fill="#000000">geometry_columns</text>
<text text-anchor="start" x="300.4448" y="-87.3" font-family="Helvetica,sans-Serif" font-size="11.00" fill="#000000">[view]</text>
<polygon fill="none" stroke="#000000" points="185.5,-57.2 185.5,-79.2 333.5,-79.2 333.5,-57.2 185.5,-57.2"/>
<image xlink:href="../../images/foreignKeys.png" width="11px" height="12px" preserveAspectRatio="xMinYMin meet" x="190.5" y="-74.2"/>
<text text-anchor="start" x="212.5" y="-64.3" font-family="Helvetica,sans-Serif" font-size="11.00" fill="#000000">srid</text>
<polygon fill="none" stroke="#000000" points="185.5,-38.2 185.5,-57.2 333.5,-57.2 333.5,-38.2 185.5,-38.2"/>
<text text-anchor="start" x="188.5" y="-44.3" font-family="Helvetica,sans-Serif" font-size="11.00" fill="#000000">...</text>
</a>
</g>
</g>
<!-- geometry_columns&#45;&gt;spatial_ref_sys -->
<g id="edge2" class="edge">
<title>geometry_columns:w&#45;&gt;spatial_ref_sys:e</title>
<path fill="none" stroke="#000000" stroke-dasharray="5,2" d="M171.3696,-72.6947C157.273,-83.5296 157.1736,-110.2 133.5,-110.2"/>
<polygon fill="#000000" stroke="#000000" points="177.8764,-70.625 186.5913,-71.6306 181.6882,-69.4125 185.5,-68.2 185.5,-68.2 185.5,-68.2 181.6882,-69.4125 184.4087,-64.7694 177.8764,-70.625 177.8764,-70.625"/>
<ellipse fill="none" stroke="#000000" cx="174.8269" cy="-71.595" rx="3.2" ry="3.2"/>
</g>
</g>
</svg>
