<?xml version="1.0" encoding="UTF-8" standalone="no"?>
<!DOCTYPE svg PUBLIC "-//W3C//DTD SVG 1.1//EN"
 "http://www.w3.org/Graphics/SVG/1.1/DTD/svg11.dtd">
<!-- Generated by graphviz version 2.40.1 (20161225.0304)
 -->
<!-- Title: largeImpliedRelationshipsDiagram Pages: 1 -->
<svg width="353pt" height="425pt"
 viewBox="0.00 0.00 353.00 425.20" xmlns="http://www.w3.org/2000/svg" xmlns:xlink="http://www.w3.org/1999/xlink">
<g id="graph0" class="graph" transform="scale(1 1) rotate(0) translate(4 421.2)">
<title>largeImpliedRelationshipsDiagram</title>
<polygon fill="#ffffff" stroke="transparent" points="-4,4 -4,-421.2 349,-421.2 349,4 -4,4"/>
<text text-anchor="middle" x="72.4936" y="-7.3" font-family="Helvetica,sans-Serif" font-size="11.00" fill="#000000">Generated by SchemaSpy</text>
<!-- spatial_ref_sys -->
<g id="node1" class="node">
<title>spatial_ref_sys</title>
<g id="a_node1"><a xlink:href="../../tables/spatial_ref_sys.html" xlink:title="spatial_ref_sys" target="_top">
<polygon fill="#ffffff" stroke="transparent" points="8,-51.7 8,-203.7 133,-203.7 133,-51.7 8,-51.7"/>
<polygon fill="#f5f5f5" stroke="transparent" points="8.5,-180.7 8.5,-203.7 133.5,-203.7 133.5,-180.7 8.5,-180.7"/>
<polygon fill="none" stroke="#000000" points="8.5,-180.7 8.5,-203.7 133.5,-203.7 133.5,-180.7 8.5,-180.7"/>
<text text-anchor="start" x="13.5" y="-189.3" font-family="Helvetica,sans-Serif" font-weight="bold" font-size="11.00" fill="#000000">spatial_ref_sys</text>
<text text-anchor="start" x="99.0219" y="-188.8" font-family="Helvetica,sans-Serif" font-size="11.00" fill="#000000">[table]</text>
<polygon fill="none" stroke="#000000" points="8.5,-158.7 8.5,-180.7 133.5,-180.7 133.5,-158.7 8.5,-158.7"/>
<image xlink:href="../../images/primaryKeys.png" width="11px" height="12px" preserveAspectRatio="xMinYMin meet" x="13.5" y="-175.7"/>
<text text-anchor="start" x="37.5" y="-165.8" font-family="Helvetica,sans-Serif" font-size="11.00" fill="#000000">srid</text>
<polygon fill="none" stroke="#000000" points="8.5,-136.7 8.5,-158.7 133.5,-158.7 133.5,-136.7 8.5,-136.7"/>
<text text-anchor="start" x="37.5" y="-143.8" font-family="Helvetica,sans-Serif" font-size="11.00" fill="#000000">auth_name</text>
<polygon fill="none" stroke="#000000" points="8.5,-114.7 8.5,-136.7 133.5,-136.7 133.5,-114.7 8.5,-114.7"/>
<text text-anchor="start" x="37.5" y="-121.8" font-family="Helvetica,sans-Serif" font-size="11.00" fill="#000000">auth_srid</text>
<polygon fill="none" stroke="#000000" points="8.5,-92.7 8.5,-114.7 133.5,-114.7 133.5,-92.7 8.5,-92.7"/>
<text text-anchor="start" x="37.5" y="-99.8" font-family="Helvetica,sans-Serif" font-size="11.00" fill="#000000">srtext</text>
<polygon fill="none" stroke="#000000" points="8.5,-70.7 8.5,-92.7 133.5,-92.7 133.5,-70.7 8.5,-70.7"/>
<text text-anchor="start" x="37.5" y="-77.8" font-family="Helvetica,sans-Serif" font-size="11.00" fill="#000000">proj4text</text>
<polygon fill="#ffffff" stroke="transparent" points="8.5,-51.7 8.5,-70.7 41.5,-70.7 41.5,-51.7 8.5,-51.7"/>
<polygon fill="none" stroke="#000000" points="8.5,-51.7 8.5,-70.7 41.5,-70.7 41.5,-51.7 8.5,-51.7"/>
<text text-anchor="start" x="11.5" y="-57.8" font-family="Helvetica,sans-Serif" font-size="11.00" fill="#000000"> &#160;</text>
<polygon fill="#ffffff" stroke="transparent" points="41.5,-51.7 41.5,-70.7 110.5,-70.7 110.5,-51.7 41.5,-51.7"/>
<polygon fill="none" stroke="#000000" points="41.5,-51.7 41.5,-70.7 110.5,-70.7 110.5,-51.7 41.5,-51.7"/>
<text text-anchor="start" x="53.7089" y="-57.8" font-family="Helvetica,sans-Serif" font-size="11.00" fill="#000000">8,500 rows</text>
<polygon fill="#ffffff" stroke="transparent" points="110.5,-51.7 110.5,-70.7 133.5,-70.7 133.5,-51.7 110.5,-51.7"/>
<polygon fill="none" stroke="#000000" points="110.5,-51.7 110.5,-70.7 133.5,-70.7 133.5,-51.7 110.5,-51.7"/>
<text text-anchor="start" x="124.3862" y="-57.8" font-family="Helvetica,sans-Serif" font-size="11.00" fill="#000000"> &#160;</text>
</a>
</g>
</g>
<!-- geography_columns -->
<g id="node2" class="node">
<title>geography_columns</title>
<g id="a_node2"><a xlink:href="../../tables/geography_columns.html" xlink:title="geography_columns" target="_top">
<polygon fill="#ffffff" stroke="transparent" points="182,-236.2 182,-413.2 337,-413.2 337,-236.2 182,-236.2"/>
<polygon fill="#f5f5f5" stroke="transparent" points="182.5,-389.7 182.5,-412.7 337.5,-412.7 337.5,-389.7 182.5,-389.7"/>
<polygon fill="none" stroke="#000000" points="182.5,-389.7 182.5,-412.7 337.5,-412.7 337.5,-389.7 182.5,-389.7"/>
<text text-anchor="start" x="187.5" y="-398.3" font-family="Helvetica,sans-Serif" font-weight="bold" font-size="11.00" fill="#000000">geography_columns</text>
<text text-anchor="start" x="304.4448" y="-397.8" font-family="Helvetica,sans-Serif" font-size="11.00" fill="#000000">[view]</text>
<polygon fill="none" stroke="#000000" points="182.5,-367.7 182.5,-389.7 337.5,-389.7 337.5,-367.7 182.5,-367.7"/>
<text text-anchor="start" x="209.5" y="-374.8" font-family="Helvetica,sans-Serif" font-size="11.00" fill="#000000">f_table_catalog</text>
<polygon fill="none" stroke="#000000" points="182.5,-345.7 182.5,-367.7 337.5,-367.7 337.5,-345.7 182.5,-345.7"/>
<text text-anchor="start" x="209.5" y="-352.8" font-family="Helvetica,sans-Serif" font-size="11.00" fill="#000000">f_table_schema</text>
<polygon fill="none" stroke="#000000" points="182.5,-323.7 182.5,-345.7 337.5,-345.7 337.5,-323.7 182.5,-323.7"/>
<text text-anchor="start" x="209.5" y="-330.8" font-family="Helvetica,sans-Serif" font-size="11.00" fill="#000000">f_table_name</text>
<polygon fill="none" stroke="#000000" points="182.5,-301.7 182.5,-323.7 337.5,-323.7 337.5,-301.7 182.5,-301.7"/>
<text text-anchor="start" x="209.5" y="-308.8" font-family="Helvetica,sans-Serif" font-size="11.00" fill="#000000">f_geography_column</text>
<polygon fill="none" stroke="#000000" points="182.5,-279.7 182.5,-301.7 337.5,-301.7 337.5,-279.7 182.5,-279.7"/>
<text text-anchor="start" x="209.5" y="-286.8" font-family="Helvetica,sans-Serif" font-size="11.00" fill="#000000">coord_dimension</text>
<polygon fill="none" stroke="#000000" points="182.5,-257.7 182.5,-279.7 337.5,-279.7 337.5,-257.7 182.5,-257.7"/>
<image xlink:href="../../images/foreignKeys.png" width="11px" height="12px" preserveAspectRatio="xMinYMin meet" x="187.5" y="-274.7"/>
<text text-anchor="start" x="209.5" y="-264.8" font-family="Helvetica,sans-Serif" font-size="11.00" fill="#000000">srid</text>
<polygon fill="none" stroke="#000000" points="182.5,-235.7 182.5,-257.7 337.5,-257.7 337.5,-235.7 182.5,-235.7"/>
<text text-anchor="start" x="209.5" y="-242.8" font-family="Helvetica,sans-Serif" font-size="11.00" fill="#000000">type</text>
</a>
</g>
</g>
<!-- geography_columns&#45;&gt;spatial_ref_sys -->
<g id="edge1" class="edge">
<title>geography_columns:w&#45;&gt;spatial_ref_sys:e</title>
<path fill="none" stroke="#000000" stroke-dasharray="5,2" d="M168.6394,-264.6965C143.8773,-246.1751 176.6495,-169.7 133.5,-169.7"/>
<polygon fill="#000000" stroke="#000000" points="174.8142,-266.48 181.501,-272.1586 178.6571,-267.59 182.5,-268.7 182.5,-268.7 182.5,-268.7 178.6571,-267.59 183.499,-265.2414 174.8142,-266.48 174.8142,-266.48"/>
<ellipse fill="none" stroke="#000000" cx="171.7399" cy="-265.592" rx="3.2" ry="3.2"/>
</g>
<!-- geometry_columns -->
<g id="node3" class="node">
<title>geometry_columns</title>
<g id="a_node3"><a xlink:href="../../tables/geometry_columns.html" xlink:title="geometry_columns" target="_top">
<polygon fill="#ffffff" stroke="transparent" points="185.5,-38.2 185.5,-215.2 333.5,-215.2 333.5,-38.2 185.5,-38.2"/>
<polygon fill="#f5f5f5" stroke="transparent" points="185.5,-191.7 185.5,-214.7 333.5,-214.7 333.5,-191.7 185.5,-191.7"/>
<polygon fill="none" stroke="#000000" points="185.5,-191.7 185.5,-214.7 333.5,-214.7 333.5,-191.7 185.5,-191.7"/>
<text text-anchor="start" x="190.5" y="-200.3" font-family="Helvetica,sans-Serif" font-weight="bold" font-size="11.00" fill="#000000">geometry_columns</text>
<text text-anchor="start" x="300.4448" y="-199.8" font-family="Helvetica,sans-Serif" font-size="11.00" fill="#000000">[view]</text>
<polygon fill="none" stroke="#000000" points="185.5,-169.7 185.5,-191.7 333.5,-191.7 333.5,-169.7 185.5,-169.7"/>
<text text-anchor="start" x="212.5" y="-176.8" font-family="Helvetica,sans-Serif" font-size="11.00" fill="#000000">f_table_catalog</text>
<polygon fill="none" stroke="#000000" points="185.5,-147.7 185.5,-169.7 333.5,-169.7 333.5,-147.7 185.5,-147.7"/>
<text text-anchor="start" x="212.5" y="-154.8" font-family="Helvetica,sans-Serif" font-size="11.00" fill="#000000">f_table_schema</text>
<polygon fill="none" stroke="#000000" points="185.5,-125.7 185.5,-147.7 333.5,-147.7 333.5,-125.7 185.5,-125.7"/>
<text text-anchor="start" x="212.5" y="-132.8" font-family="Helvetica,sans-Serif" font-size="11.00" fill="#000000">f_table_name</text>
<polygon fill="none" stroke="#000000" points="185.5,-103.7 185.5,-125.7 333.5,-125.7 333.5,-103.7 185.5,-103.7"/>
<text text-anchor="start" x="212.5" y="-110.8" font-family="Helvetica,sans-Serif" font-size="11.00" fill="#000000">f_geometry_column</text>
<polygon fill="none" stroke="#000000" points="185.5,-81.7 185.5,-103.7 333.5,-103.7 333.5,-81.7 185.5,-81.7"/>
<text text-anchor="start" x="212.5" y="-88.8" font-family="Helvetica,sans-Serif" font-size="11.00" fill="#000000">coord_dimension</text>
<polygon fill="none" stroke="#000000" points="185.5,-59.7 185.5,-81.7 333.5,-81.7 333.5,-59.7 185.5,-59.7"/>
<image xlink:href="../../images/foreignKeys.png" width="11px" height="12px" preserveAspectRatio="xMinYMin meet" x="190.5" y="-76.7"/>
<text text-anchor="start" x="212.5" y="-66.8" font-family="Helvetica,sans-Serif" font-size="11.00" fill="#000000">srid</text>
<polygon fill="none" stroke="#000000" points="185.5,-37.7 185.5,-59.7 333.5,-59.7 333.5,-37.7 185.5,-37.7"/>
<text text-anchor="start" x="212.5" y="-44.8" font-family="Helvetica,sans-Serif" font-size="11.00" fill="#000000">type</text>
</a>
</g>
</g>
<!-- geometry_columns&#45;&gt;spatial_ref_sys -->
<g id="edge2" class="edge">
<title>geometry_columns:w&#45;&gt;spatial_ref_sys:e</title>
<path fill="none" stroke="#000000" stroke-dasharray="5,2" d="M171.3715,-74.7035C145.8557,-93.2249 177.1819,-169.7 133.5,-169.7"/>
<polygon fill="#000000" stroke="#000000" points="177.8031,-72.8811 186.4815,-74.1636 181.6515,-71.7905 185.5,-70.7 185.5,-70.7 185.5,-70.7 181.6515,-71.7905 184.5185,-67.2364 177.8031,-72.8811 177.8031,-72.8811"/>
<ellipse fill="none" stroke="#000000" cx="174.7243" cy="-73.7535" rx="3.2" ry="3.2"/>
</g>
</g>
</svg>
