<?xml version="1.0" encoding="UTF-8" standalone="no"?>
<!DOCTYPE svg PUBLIC "-//W3C//DTD SVG 1.1//EN"
 "http://www.w3.org/Graphics/SVG/1.1/DTD/svg11.dtd">
<!-- Generated by graphviz version 2.40.1 (20161225.0304)
 -->
<!-- Title: twoDegreesRelationshipsDiagramImplied Pages: 1 -->
<svg width="444pt" height="295pt"
 viewBox="0.00 0.00 444.00 294.70" xmlns="http://www.w3.org/2000/svg" xmlns:xlink="http://www.w3.org/1999/xlink">
<g id="graph0" class="graph" transform="scale(1 1) rotate(0) translate(4 290.7)">
<title>twoDegreesRelationshipsDiagramImplied</title>
<polygon fill="#ffffff" stroke="transparent" points="-4,4 -4,-290.7 440,-290.7 440,4 -4,4"/>
<text text-anchor="middle" x="72.4936" y="-7.3" font-family="Helvetica,sans-Serif" font-size="11.00" fill="#000000">Generated by SchemaSpy</text>
<!-- geography_columns -->
<g id="node1" class="node">
<title>geography_columns</title>
<g id="a_node1"><a xlink:href="../../tables/geography_columns.html" xlink:title="geography_columns" target="_top">
<polygon fill="#ffffff" stroke="transparent" points="182,-101.7 182,-282.7 428,-282.7 428,-101.7 182,-101.7"/>
<polygon fill="#f5f5f5" stroke="transparent" points="184,-257.2 184,-280.2 426,-280.2 426,-257.2 184,-257.2"/>
<polygon fill="none" stroke="#000000" points="184,-257.2 184,-280.2 426,-280.2 426,-257.2 184,-257.2"/>
<text text-anchor="start" x="189" y="-265.8" font-family="Helvetica,sans-Serif" font-weight="bold" font-size="11.00" fill="#000000">geography_columns</text>
<text text-anchor="start" x="392.8895" y="-265.3" font-family="Helvetica,sans-Serif" font-size="11.00" fill="#000000">[view]</text>
<polygon fill="none" stroke="#000000" points="184,-235.2 184,-257.2 326,-257.2 326,-235.2 184,-235.2"/>
<text text-anchor="start" x="204" y="-242.3" font-family="Helvetica,sans-Serif" font-size="11.00" fill="#000000">f_table_catalog</text>
<polygon fill="none" stroke="#000000" points="326,-235.2 326,-257.2 426,-257.2 426,-235.2 326,-235.2"/>
<text text-anchor="start" x="328.6153" y="-242.9" font-family="Helvetica,sans-Serif" font-size="11.00" fill="#000000">name[2147483647]</text>
<polygon fill="none" stroke="#000000" points="184,-213.2 184,-235.2 326,-235.2 326,-213.2 184,-213.2"/>
<text text-anchor="start" x="204" y="-220.3" font-family="Helvetica,sans-Serif" font-size="11.00" fill="#000000">f_table_schema</text>
<polygon fill="none" stroke="#000000" points="326,-213.2 326,-235.2 426,-235.2 426,-213.2 326,-213.2"/>
<text text-anchor="start" x="328.6153" y="-220.9" font-family="Helvetica,sans-Serif" font-size="11.00" fill="#000000">name[2147483647]</text>
<polygon fill="none" stroke="#000000" points="184,-191.2 184,-213.2 326,-213.2 326,-191.2 184,-191.2"/>
<text text-anchor="start" x="204" y="-198.3" font-family="Helvetica,sans-Serif" font-size="11.00" fill="#000000">f_table_name</text>
<polygon fill="none" stroke="#000000" points="326,-191.2 326,-213.2 426,-213.2 426,-191.2 326,-191.2"/>
<text text-anchor="start" x="328.6153" y="-198.9" font-family="Helvetica,sans-Serif" font-size="11.00" fill="#000000">name[2147483647]</text>
<polygon fill="none" stroke="#000000" points="184,-169.2 184,-191.2 326,-191.2 326,-169.2 184,-169.2"/>
<text text-anchor="start" x="204" y="-176.3" font-family="Helvetica,sans-Serif" font-size="11.00" fill="#000000">f_geography_column</text>
<polygon fill="none" stroke="#000000" points="326,-169.2 326,-191.2 426,-191.2 426,-169.2 326,-169.2"/>
<text text-anchor="start" x="328.6153" y="-176.9" font-family="Helvetica,sans-Serif" font-size="11.00" fill="#000000">name[2147483647]</text>
<polygon fill="none" stroke="#000000" points="184,-147.2 184,-169.2 326,-169.2 326,-147.2 184,-147.2"/>
<text text-anchor="start" x="204" y="-154.3" font-family="Helvetica,sans-Serif" font-size="11.00" fill="#000000">coord_dimension</text>
<polygon fill="none" stroke="#000000" points="326,-147.2 326,-169.2 426,-169.2 426,-147.2 326,-147.2"/>
<text text-anchor="start" x="329" y="-154.9" font-family="Helvetica,sans-Serif" font-size="11.00" fill="#000000">int4[10]</text>
<polygon fill="none" stroke="#000000" points="184,-125.2 184,-147.2 326,-147.2 326,-125.2 184,-125.2"/>
<image xlink:href="../../images/foreignKeys.png" width="11px" height="12px" preserveAspectRatio="xMinYMin meet" x="189" y="-142.2"/>
<text text-anchor="start" x="204" y="-132.3" font-family="Helvetica,sans-Serif" font-size="11.00" fill="#000000">srid</text>
<polygon fill="none" stroke="#000000" points="326,-125.2 326,-147.2 426,-147.2 426,-125.2 326,-125.2"/>
<text text-anchor="start" x="329" y="-132.9" font-family="Helvetica,sans-Serif" font-size="11.00" fill="#000000">int4[10]</text>
<polygon fill="none" stroke="#000000" points="184,-103.2 184,-125.2 326,-125.2 326,-103.2 184,-103.2"/>
<text text-anchor="start" x="204" y="-110.3" font-family="Helvetica,sans-Serif" font-size="11.00" fill="#000000">type</text>
<polygon fill="none" stroke="#000000" points="326,-103.2 326,-125.2 426,-125.2 426,-103.2 326,-103.2"/>
<text text-anchor="start" x="329" y="-110.9" font-family="Helvetica,sans-Serif" font-size="11.00" fill="#000000">text[2147483647]</text>
<polygon fill="none" stroke="#000000" stroke-width="2" points="183,-102.7 183,-281.7 427,-281.7 427,-102.7 183,-102.7"/>
</a>
</g>
</g>
<!-- spatial_ref_sys -->
<g id="node2" class="node">
<title>spatial_ref_sys</title>
<g id="a_node2"><a xlink:href="../../tables/spatial_ref_sys.html" xlink:title="spatial_ref_sys" target="_top">
<polygon fill="#ffffff" stroke="transparent" points="8,-42.7 8,-125.7 133,-125.7 133,-42.7 8,-42.7"/>
<polygon fill="#f5f5f5" stroke="transparent" points="8.5,-102.2 8.5,-125.2 133.5,-125.2 133.5,-102.2 8.5,-102.2"/>
<polygon fill="none" stroke="#000000" points="8.5,-102.2 8.5,-125.2 133.5,-125.2 133.5,-102.2 8.5,-102.2"/>
<text text-anchor="start" x="13.5" y="-110.8" font-family="Helvetica,sans-Serif" font-weight="bold" font-size="11.00" fill="#000000">spatial_ref_sys</text>
<text text-anchor="start" x="99.0219" y="-110.3" font-family="Helvetica,sans-Serif" font-size="11.00" fill="#000000">[table]</text>
<polygon fill="none" stroke="#000000" points="8.5,-80.2 8.5,-102.2 133.5,-102.2 133.5,-80.2 8.5,-80.2"/>
<image xlink:href="../../images/primaryKeys.png" width="11px" height="12px" preserveAspectRatio="xMinYMin meet" x="13.5" y="-97.2"/>
<text text-anchor="start" x="37.5" y="-87.3" font-family="Helvetica,sans-Serif" font-size="11.00" fill="#000000">srid</text>
<polygon fill="none" stroke="#000000" points="8.5,-61.2 8.5,-80.2 133.5,-80.2 133.5,-61.2 8.5,-61.2"/>
<text text-anchor="start" x="11.5" y="-67.3" font-family="Helvetica,sans-Serif" font-size="11.00" fill="#000000">...</text>
<polygon fill="#ffffff" stroke="transparent" points="8.5,-42.2 8.5,-61.2 36.5,-61.2 36.5,-42.2 8.5,-42.2"/>
<polygon fill="none" stroke="#000000" points="8.5,-42.2 8.5,-61.2 36.5,-61.2 36.5,-42.2 8.5,-42.2"/>
<text text-anchor="start" x="11.5" y="-48.3" font-family="Helvetica,sans-Serif" font-size="11.00" fill="#000000"> &#160;</text>
<polygon fill="#ffffff" stroke="transparent" points="36.5,-42.2 36.5,-61.2 103.5,-61.2 103.5,-42.2 36.5,-42.2"/>
<polygon fill="none" stroke="#000000" points="36.5,-42.2 36.5,-61.2 103.5,-61.2 103.5,-42.2 36.5,-42.2"/>
<text text-anchor="start" x="46.7089" y="-48.3" font-family="Helvetica,sans-Serif" font-size="11.00" fill="#000000">8,500 rows</text>
<polygon fill="#ffffff" stroke="transparent" points="103.5,-42.2 103.5,-61.2 133.5,-61.2 133.5,-42.2 103.5,-42.2"/>
<polygon fill="none" stroke="#000000" points="103.5,-42.2 103.5,-61.2 133.5,-61.2 133.5,-42.2 103.5,-42.2"/>
<text text-anchor="start" x="114.9053" y="-48.3" font-family="Helvetica,sans-Serif" font-size="11.00" fill="#000000">2 &gt;</text>
</a>
</g>
</g>
<!-- geography_columns&#45;&gt;spatial_ref_sys -->
<g id="edge1" class="edge">
<title>geography_columns:w&#45;&gt;spatial_ref_sys:e</title>
<path fill="none" stroke="#000000" stroke-dasharray="5,2" d="M169.9279,-131.3842C156.2102,-119.7754 157.456,-91.2 133.5,-91.2"/>
<polygon fill="#000000" stroke="#000000" points="176.431,-133.6097 182.8343,-139.6061 180.2155,-134.9048 184,-136.2 184,-136.2 184,-136.2 180.2155,-134.9048 185.1657,-132.7939 176.431,-133.6097 176.431,-133.6097"/>
<ellipse fill="none" stroke="#000000" cx="173.4033" cy="-132.5735" rx="3.2" ry="3.2"/>
</g>
<!-- geometry_columns -->
<g id="node3" class="node">
<title>geometry_columns</title>
<g id="a_node3"><a xlink:href="../../tables/geometry_columns.html" xlink:title="geometry_columns" target="_top">
<polygon fill="#ffffff" stroke="transparent" points="231,-38.2 231,-80.2 379,-80.2 379,-38.2 231,-38.2"/>
<polygon fill="#f5f5f5" stroke="transparent" points="231,-57.2 231,-80.2 379,-80.2 379,-57.2 231,-57.2"/>
<polygon fill="none" stroke="#000000" points="231,-57.2 231,-80.2 379,-80.2 379,-57.2 231,-57.2"/>
<text text-anchor="start" x="236" y="-65.8" font-family="Helvetica,sans-Serif" font-weight="bold" font-size="11.00" fill="#000000">geometry_columns</text>
<text text-anchor="start" x="345.9448" y="-65.3" font-family="Helvetica,sans-Serif" font-size="11.00" fill="#000000">[view]</text>
<polygon fill="none" stroke="#000000" points="231,-38.2 231,-57.2 379,-57.2 379,-38.2 231,-38.2"/>
<text text-anchor="start" x="234" y="-44.3" font-family="Helvetica,sans-Serif" font-size="11.00" fill="#000000">...</text>
</a>
</g>
</g>
<!-- geometry_columns&#45;&gt;spatial_ref_sys -->
<g id="edge2" class="edge">
<title>geometry_columns:w&#45;&gt;spatial_ref_sys:e</title>
<path fill="none" stroke="#000000" stroke-dasharray="5,2" d="M216.4493,-48.766C182.3318,-56.6041 175.656,-91.2 133.5,-91.2"/>
<polygon fill="#000000" stroke="#000000" points="223.0459,-48.0561 231.3852,-50.7793 227.023,-47.628 231,-47.2 231,-47.2 231,-47.2 227.023,-47.628 230.6148,-43.6207 223.0459,-48.0561 223.0459,-48.0561"/>
<ellipse fill="none" stroke="#000000" cx="219.8643" cy="-48.3985" rx="3.2" ry="3.2"/>
</g>
</g>
</svg>
