<?xml version="1.0" encoding="UTF-8" standalone="no"?>
<!DOCTYPE svg PUBLIC "-//W3C//DTD SVG 1.1//EN"
 "http://www.w3.org/Graphics/SVG/1.1/DTD/svg11.dtd">
<!-- Generated by graphviz version 2.40.1 (20161225.0304)
 -->
<!-- Title: oneDegreeRelationshipsDiagramImplied Pages: 1 -->
<svg width="444pt" height="245pt"
 viewBox="0.00 0.00 444.00 245.20" xmlns="http://www.w3.org/2000/svg" xmlns:xlink="http://www.w3.org/1999/xlink">
<g id="graph0" class="graph" transform="scale(1 1) rotate(0) translate(4 241.2)">
<title>oneDegreeRelationshipsDiagramImplied</title>
<polygon fill="#ffffff" stroke="transparent" points="-4,4 -4,-241.2 440,-241.2 440,4 -4,4"/>
<text text-anchor="middle" x="72.4936" y="-7.3" font-family="Helvetica,sans-Serif" font-size="11.00" fill="#000000">Generated by SchemaSpy</text>
<!-- geography_columns -->
<g id="node1" class="node">
<title>geography_columns</title>
<g id="a_node1"><a xlink:href="../../tables/geography_columns.html" xlink:title="geography_columns" target="_top">
<polygon fill="#ffffff" stroke="transparent" points="182,-52.2 182,-233.2 428,-233.2 428,-52.2 182,-52.2"/>
<polygon fill="#f5f5f5" stroke="transparent" points="184,-207.7 184,-230.7 426,-230.7 426,-207.7 184,-207.7"/>
<polygon fill="none" stroke="#000000" points="184,-207.7 184,-230.7 426,-230.7 426,-207.7 184,-207.7"/>
<text text-anchor="start" x="189" y="-216.3" font-family="Helvetica,sans-Serif" font-weight="bold" font-size="11.00" fill="#000000">geography_columns</text>
<text text-anchor="start" x="392.8895" y="-215.8" font-family="Helvetica,sans-Serif" font-size="11.00" fill="#000000">[view]</text>
<polygon fill="none" stroke="#000000" points="184,-185.7 184,-207.7 326,-207.7 326,-185.7 184,-185.7"/>
<text text-anchor="start" x="204" y="-192.8" font-family="Helvetica,sans-Serif" font-size="11.00" fill="#000000">f_table_catalog</text>
<polygon fill="none" stroke="#000000" points="326,-185.7 326,-207.7 426,-207.7 426,-185.7 326,-185.7"/>
<text text-anchor="start" x="328.6153" y="-193.4" font-family="Helvetica,sans-Serif" font-size="11.00" fill="#000000">name[2147483647]</text>
<polygon fill="none" stroke="#000000" points="184,-163.7 184,-185.7 326,-185.7 326,-163.7 184,-163.7"/>
<text text-anchor="start" x="204" y="-170.8" font-family="Helvetica,sans-Serif" font-size="11.00" fill="#000000">f_table_schema</text>
<polygon fill="none" stroke="#000000" points="326,-163.7 326,-185.7 426,-185.7 426,-163.7 326,-163.7"/>
<text text-anchor="start" x="328.6153" y="-171.4" font-family="Helvetica,sans-Serif" font-size="11.00" fill="#000000">name[2147483647]</text>
<polygon fill="none" stroke="#000000" points="184,-141.7 184,-163.7 326,-163.7 326,-141.7 184,-141.7"/>
<text text-anchor="start" x="204" y="-148.8" font-family="Helvetica,sans-Serif" font-size="11.00" fill="#000000">f_table_name</text>
<polygon fill="none" stroke="#000000" points="326,-141.7 326,-163.7 426,-163.7 426,-141.7 326,-141.7"/>
<text text-anchor="start" x="328.6153" y="-149.4" font-family="Helvetica,sans-Serif" font-size="11.00" fill="#000000">name[2147483647]</text>
<polygon fill="none" stroke="#000000" points="184,-119.7 184,-141.7 326,-141.7 326,-119.7 184,-119.7"/>
<text text-anchor="start" x="204" y="-126.8" font-family="Helvetica,sans-Serif" font-size="11.00" fill="#000000">f_geography_column</text>
<polygon fill="none" stroke="#000000" points="326,-119.7 326,-141.7 426,-141.7 426,-119.7 326,-119.7"/>
<text text-anchor="start" x="328.6153" y="-127.4" font-family="Helvetica,sans-Serif" font-size="11.00" fill="#000000">name[2147483647]</text>
<polygon fill="none" stroke="#000000" points="184,-97.7 184,-119.7 326,-119.7 326,-97.7 184,-97.7"/>
<text text-anchor="start" x="204" y="-104.8" font-family="Helvetica,sans-Serif" font-size="11.00" fill="#000000">coord_dimension</text>
<polygon fill="none" stroke="#000000" points="326,-97.7 326,-119.7 426,-119.7 426,-97.7 326,-97.7"/>
<text text-anchor="start" x="329" y="-105.4" font-family="Helvetica,sans-Serif" font-size="11.00" fill="#000000">int4[10]</text>
<polygon fill="none" stroke="#000000" points="184,-75.7 184,-97.7 326,-97.7 326,-75.7 184,-75.7"/>
<image xlink:href="../../images/foreignKeys.png" width="11px" height="12px" preserveAspectRatio="xMinYMin meet" x="189" y="-92.7"/>
<text text-anchor="start" x="204" y="-82.8" font-family="Helvetica,sans-Serif" font-size="11.00" fill="#000000">srid</text>
<polygon fill="none" stroke="#000000" points="326,-75.7 326,-97.7 426,-97.7 426,-75.7 326,-75.7"/>
<text text-anchor="start" x="329" y="-83.4" font-family="Helvetica,sans-Serif" font-size="11.00" fill="#000000">int4[10]</text>
<polygon fill="none" stroke="#000000" points="184,-53.7 184,-75.7 326,-75.7 326,-53.7 184,-53.7"/>
<text text-anchor="start" x="204" y="-60.8" font-family="Helvetica,sans-Serif" font-size="11.00" fill="#000000">type</text>
<polygon fill="none" stroke="#000000" points="326,-53.7 326,-75.7 426,-75.7 426,-53.7 326,-53.7"/>
<text text-anchor="start" x="329" y="-61.4" font-family="Helvetica,sans-Serif" font-size="11.00" fill="#000000">text[2147483647]</text>
<polygon fill="none" stroke="#000000" stroke-width="2" points="183,-53.2 183,-232.2 427,-232.2 427,-53.2 183,-53.2"/>
</a>
</g>
</g>
<!-- spatial_ref_sys -->
<g id="node2" class="node">
<title>spatial_ref_sys</title>
<g id="a_node2"><a xlink:href="../../tables/spatial_ref_sys.html" xlink:title="spatial_ref_sys" target="_top">
<polygon fill="#ffffff" stroke="transparent" points="8,-38.2 8,-121.2 133,-121.2 133,-38.2 8,-38.2"/>
<polygon fill="#f5f5f5" stroke="transparent" points="8.5,-97.7 8.5,-120.7 133.5,-120.7 133.5,-97.7 8.5,-97.7"/>
<polygon fill="none" stroke="#000000" points="8.5,-97.7 8.5,-120.7 133.5,-120.7 133.5,-97.7 8.5,-97.7"/>
<text text-anchor="start" x="13.5" y="-106.3" font-family="Helvetica,sans-Serif" font-weight="bold" font-size="11.00" fill="#000000">spatial_ref_sys</text>
<text text-anchor="start" x="99.0219" y="-105.8" font-family="Helvetica,sans-Serif" font-size="11.00" fill="#000000">[table]</text>
<polygon fill="none" stroke="#000000" points="8.5,-75.7 8.5,-97.7 133.5,-97.7 133.5,-75.7 8.5,-75.7"/>
<image xlink:href="../../images/primaryKeys.png" width="11px" height="12px" preserveAspectRatio="xMinYMin meet" x="13.5" y="-92.7"/>
<text text-anchor="start" x="37.5" y="-82.8" font-family="Helvetica,sans-Serif" font-size="11.00" fill="#000000">srid</text>
<polygon fill="none" stroke="#000000" points="8.5,-56.7 8.5,-75.7 133.5,-75.7 133.5,-56.7 8.5,-56.7"/>
<text text-anchor="start" x="11.5" y="-62.8" font-family="Helvetica,sans-Serif" font-size="11.00" fill="#000000">...</text>
<polygon fill="#ffffff" stroke="transparent" points="8.5,-37.7 8.5,-56.7 36.5,-56.7 36.5,-37.7 8.5,-37.7"/>
<polygon fill="none" stroke="#000000" points="8.5,-37.7 8.5,-56.7 36.5,-56.7 36.5,-37.7 8.5,-37.7"/>
<text text-anchor="start" x="11.5" y="-43.8" font-family="Helvetica,sans-Serif" font-size="11.00" fill="#000000"> &#160;</text>
<polygon fill="#ffffff" stroke="transparent" points="36.5,-37.7 36.5,-56.7 103.5,-56.7 103.5,-37.7 36.5,-37.7"/>
<polygon fill="none" stroke="#000000" points="36.5,-37.7 36.5,-56.7 103.5,-56.7 103.5,-37.7 36.5,-37.7"/>
<text text-anchor="start" x="46.7089" y="-43.8" font-family="Helvetica,sans-Serif" font-size="11.00" fill="#000000">8,500 rows</text>
<polygon fill="#ffffff" stroke="transparent" points="103.5,-37.7 103.5,-56.7 133.5,-56.7 133.5,-37.7 103.5,-37.7"/>
<polygon fill="none" stroke="#000000" points="103.5,-37.7 103.5,-56.7 133.5,-56.7 133.5,-37.7 103.5,-37.7"/>
<text text-anchor="start" x="114.9053" y="-43.8" font-family="Helvetica,sans-Serif" font-size="11.00" fill="#000000">2 &gt;</text>
</a>
</g>
</g>
<!-- geography_columns&#45;&gt;spatial_ref_sys -->
<g id="edge1" class="edge">
<title>geography_columns:w&#45;&gt;spatial_ref_sys:e</title>
<path fill="none" stroke="#000000" stroke-dasharray="5,2" d="M169.4203,-86.7C157.5435,-86.7 150.158,-86.7 133.5,-86.7"/>
<polygon fill="#000000" stroke="#000000" points="176,-86.7001 184,-90.3 180,-86.7 184,-86.7 184,-86.7 184,-86.7 180,-86.7 184,-83.1 176,-86.7001 176,-86.7001"/>
<ellipse fill="none" stroke="#000000" cx="172.8" cy="-86.7001" rx="3.2" ry="3.2"/>
</g>
</g>
</svg>
