<?xml version="1.0" encoding="UTF-8" standalone="no"?>
<!DOCTYPE svg PUBLIC "-//W3C//DTD SVG 1.1//EN"
 "http://www.w3.org/Graphics/SVG/1.1/DTD/svg11.dtd">
<!-- Generated by graphviz version 2.40.1 (20161225.0304)
 -->
<!-- Title: oneDegreeRelationshipsDiagramImplied Pages: 1 -->
<svg width="437pt" height="245pt"
 viewBox="0.00 0.00 437.00 245.20" xmlns="http://www.w3.org/2000/svg" xmlns:xlink="http://www.w3.org/1999/xlink">
<g id="graph0" class="graph" transform="scale(1 1) rotate(0) translate(4 241.2)">
<title>oneDegreeRelationshipsDiagramImplied</title>
<polygon fill="#ffffff" stroke="transparent" points="-4,4 -4,-241.2 433,-241.2 433,4 -4,4"/>
<text text-anchor="middle" x="72.4936" y="-7.3" font-family="Helvetica,sans-Serif" font-size="11.00" fill="#000000">Generated by SchemaSpy</text>
<!-- geometry_columns -->
<g id="node1" class="node">
<title>geometry_columns</title>
<g id="a_node1"><a xlink:href="../../tables/geometry_columns.html" xlink:title="geometry_columns" target="_top">
<polygon fill="#ffffff" stroke="transparent" points="182,-52.2 182,-233.2 421,-233.2 421,-52.2 182,-52.2"/>
<polygon fill="#f5f5f5" stroke="transparent" points="184.5,-207.7 184.5,-230.7 419.5,-230.7 419.5,-207.7 184.5,-207.7"/>
<polygon fill="none" stroke="#000000" points="184.5,-207.7 184.5,-230.7 419.5,-230.7 419.5,-207.7 184.5,-207.7"/>
<text text-anchor="start" x="189.5" y="-216.3" font-family="Helvetica,sans-Serif" font-weight="bold" font-size="11.00" fill="#000000">geometry_columns</text>
<text text-anchor="start" x="386.3895" y="-215.8" font-family="Helvetica,sans-Serif" font-size="11.00" fill="#000000">[view]</text>
<polygon fill="none" stroke="#000000" points="184.5,-185.7 184.5,-207.7 319.5,-207.7 319.5,-185.7 184.5,-185.7"/>
<text text-anchor="start" x="204.5" y="-192.8" font-family="Helvetica,sans-Serif" font-size="11.00" fill="#000000">f_table_catalog</text>
<polygon fill="none" stroke="#000000" points="319.5,-185.7 319.5,-207.7 419.5,-207.7 419.5,-185.7 319.5,-185.7"/>
<text text-anchor="start" x="322.5" y="-193.4" font-family="Helvetica,sans-Serif" font-size="11.00" fill="#000000">varchar[256]</text>
<polygon fill="none" stroke="#000000" points="184.5,-163.7 184.5,-185.7 319.5,-185.7 319.5,-163.7 184.5,-163.7"/>
<text text-anchor="start" x="204.5" y="-170.8" font-family="Helvetica,sans-Serif" font-size="11.00" fill="#000000">f_table_schema</text>
<polygon fill="none" stroke="#000000" points="319.5,-163.7 319.5,-185.7 419.5,-185.7 419.5,-163.7 319.5,-163.7"/>
<text text-anchor="start" x="322.1153" y="-171.4" font-family="Helvetica,sans-Serif" font-size="11.00" fill="#000000">name[2147483647]</text>
<polygon fill="none" stroke="#000000" points="184.5,-141.7 184.5,-163.7 319.5,-163.7 319.5,-141.7 184.5,-141.7"/>
<text text-anchor="start" x="204.5" y="-148.8" font-family="Helvetica,sans-Serif" font-size="11.00" fill="#000000">f_table_name</text>
<polygon fill="none" stroke="#000000" points="319.5,-141.7 319.5,-163.7 419.5,-163.7 419.5,-141.7 319.5,-141.7"/>
<text text-anchor="start" x="322.1153" y="-149.4" font-family="Helvetica,sans-Serif" font-size="11.00" fill="#000000">name[2147483647]</text>
<polygon fill="none" stroke="#000000" points="184.5,-119.7 184.5,-141.7 319.5,-141.7 319.5,-119.7 184.5,-119.7"/>
<text text-anchor="start" x="204.5" y="-126.8" font-family="Helvetica,sans-Serif" font-size="11.00" fill="#000000">f_geometry_column</text>
<polygon fill="none" stroke="#000000" points="319.5,-119.7 319.5,-141.7 419.5,-141.7 419.5,-119.7 319.5,-119.7"/>
<text text-anchor="start" x="322.1153" y="-127.4" font-family="Helvetica,sans-Serif" font-size="11.00" fill="#000000">name[2147483647]</text>
<polygon fill="none" stroke="#000000" points="184.5,-97.7 184.5,-119.7 319.5,-119.7 319.5,-97.7 184.5,-97.7"/>
<text text-anchor="start" x="204.5" y="-104.8" font-family="Helvetica,sans-Serif" font-size="11.00" fill="#000000">coord_dimension</text>
<polygon fill="none" stroke="#000000" points="319.5,-97.7 319.5,-119.7 419.5,-119.7 419.5,-97.7 319.5,-97.7"/>
<text text-anchor="start" x="322.5" y="-105.4" font-family="Helvetica,sans-Serif" font-size="11.00" fill="#000000">int4[10]</text>
<polygon fill="none" stroke="#000000" points="184.5,-75.7 184.5,-97.7 319.5,-97.7 319.5,-75.7 184.5,-75.7"/>
<image xlink:href="../../images/foreignKeys.png" width="11px" height="12px" preserveAspectRatio="xMinYMin meet" x="189.5" y="-92.7"/>
<text text-anchor="start" x="204.5" y="-82.8" font-family="Helvetica,sans-Serif" font-size="11.00" fill="#000000">srid</text>
<polygon fill="none" stroke="#000000" points="319.5,-75.7 319.5,-97.7 419.5,-97.7 419.5,-75.7 319.5,-75.7"/>
<text text-anchor="start" x="322.5" y="-83.4" font-family="Helvetica,sans-Serif" font-size="11.00" fill="#000000">int4[10]</text>
<polygon fill="none" stroke="#000000" points="184.5,-53.7 184.5,-75.7 319.5,-75.7 319.5,-53.7 184.5,-53.7"/>
<text text-anchor="start" x="204.5" y="-60.8" font-family="Helvetica,sans-Serif" font-size="11.00" fill="#000000">type</text>
<polygon fill="none" stroke="#000000" points="319.5,-53.7 319.5,-75.7 419.5,-75.7 419.5,-53.7 319.5,-53.7"/>
<text text-anchor="start" x="322.5" y="-61.4" font-family="Helvetica,sans-Serif" font-size="11.00" fill="#000000">varchar[30]</text>
<polygon fill="none" stroke="#000000" stroke-width="2" points="183,-53.2 183,-232.2 420,-232.2 420,-53.2 183,-53.2"/>
</a>
</g>
</g>
<!-- spatial_ref_sys -->
<g id="node2" class="node">
<title>spatial_ref_sys</title>
<g id="a_node2"><a xlink:href="../../tables/spatial_ref_sys.html" xlink:title="spatial_ref_sys" target="_top">
<polygon fill="#ffffff" stroke="transparent" points="8,-38.2 8,-121.2 133,-121.2 133,-38.2 8,-38.2"/>
<polygon fill="#f5f5f5" stroke="transparent" points="8.5,-97.7 8.5,-120.7 133.5,-120.7 133.5,-97.7 8.5,-97.7"/>
<polygon fill="none" stroke="#000000" points="8.5,-97.7 8.5,-120.7 133.5,-120.7 133.5,-97.7 8.5,-97.7"/>
<text text-anchor="start" x="13.5" y="-106.3" font-family="Helvetica,sans-Serif" font-weight="bold" font-size="11.00" fill="#000000">spatial_ref_sys</text>
<text text-anchor="start" x="99.0219" y="-105.8" font-family="Helvetica,sans-Serif" font-size="11.00" fill="#000000">[table]</text>
<polygon fill="none" stroke="#000000" points="8.5,-75.7 8.5,-97.7 133.5,-97.7 133.5,-75.7 8.5,-75.7"/>
<image xlink:href="../../images/primaryKeys.png" width="11px" height="12px" preserveAspectRatio="xMinYMin meet" x="13.5" y="-92.7"/>
<text text-anchor="start" x="37.5" y="-82.8" font-family="Helvetica,sans-Serif" font-size="11.00" fill="#000000">srid</text>
<polygon fill="none" stroke="#000000" points="8.5,-56.7 8.5,-75.7 133.5,-75.7 133.5,-56.7 8.5,-56.7"/>
<text text-anchor="start" x="11.5" y="-62.8" font-family="Helvetica,sans-Serif" font-size="11.00" fill="#000000">...</text>
<polygon fill="#ffffff" stroke="transparent" points="8.5,-37.7 8.5,-56.7 36.5,-56.7 36.5,-37.7 8.5,-37.7"/>
<polygon fill="none" stroke="#000000" points="8.5,-37.7 8.5,-56.7 36.5,-56.7 36.5,-37.7 8.5,-37.7"/>
<text text-anchor="start" x="11.5" y="-43.8" font-family="Helvetica,sans-Serif" font-size="11.00" fill="#000000"> &#160;</text>
<polygon fill="#ffffff" stroke="transparent" points="36.5,-37.7 36.5,-56.7 103.5,-56.7 103.5,-37.7 36.5,-37.7"/>
<polygon fill="none" stroke="#000000" points="36.5,-37.7 36.5,-56.7 103.5,-56.7 103.5,-37.7 36.5,-37.7"/>
<text text-anchor="start" x="46.7089" y="-43.8" font-family="Helvetica,sans-Serif" font-size="11.00" fill="#000000">8,500 rows</text>
<polygon fill="#ffffff" stroke="transparent" points="103.5,-37.7 103.5,-56.7 133.5,-56.7 133.5,-37.7 103.5,-37.7"/>
<polygon fill="none" stroke="#000000" points="103.5,-37.7 103.5,-56.7 133.5,-56.7 133.5,-37.7 103.5,-37.7"/>
<text text-anchor="start" x="114.9053" y="-43.8" font-family="Helvetica,sans-Serif" font-size="11.00" fill="#000000">2 &gt;</text>
</a>
</g>
</g>
<!-- geometry_columns&#45;&gt;spatial_ref_sys -->
<g id="edge1" class="edge">
<title>geometry_columns:w&#45;&gt;spatial_ref_sys:e</title>
<path fill="none" stroke="#000000" stroke-dasharray="5,2" d="M169.776,-86.7C157.7815,-86.7 150.3229,-86.7 133.5,-86.7"/>
<polygon fill="#000000" stroke="#000000" points="176.5,-86.7001 184.5,-90.3 180.5,-86.7 184.5,-86.7 184.5,-86.7 184.5,-86.7 180.5,-86.7 184.5,-83.1 176.5,-86.7001 176.5,-86.7001"/>
<ellipse fill="none" stroke="#000000" cx="173.3" cy="-86.7001" rx="3.2" ry="3.2"/>
</g>
</g>
</svg>
