<?xml version="1.0" encoding="UTF-8" standalone="no"?>
<!DOCTYPE svg PUBLIC "-//W3C//DTD SVG 1.1//EN"
 "http://www.w3.org/Graphics/SVG/1.1/DTD/svg11.dtd">
<!-- Generated by graphviz version 2.40.1 (20161225.0304)
 -->
<!-- Title: twoDegreesRelationshipsDiagramImplied Pages: 1 -->
<svg width="437pt" height="295pt"
 viewBox="0.00 0.00 437.00 294.70" xmlns="http://www.w3.org/2000/svg" xmlns:xlink="http://www.w3.org/1999/xlink">
<g id="graph0" class="graph" transform="scale(1 1) rotate(0) translate(4 290.7)">
<title>twoDegreesRelationshipsDiagramImplied</title>
<polygon fill="#ffffff" stroke="transparent" points="-4,4 -4,-290.7 433,-290.7 433,4 -4,4"/>
<text text-anchor="middle" x="72.4936" y="-7.3" font-family="Helvetica,sans-Serif" font-size="11.00" fill="#000000">Generated by SchemaSpy</text>
<!-- geography_columns -->
<g id="node1" class="node">
<title>geography_columns</title>
<g id="a_node1"><a xlink:href="../../tables/geography_columns.html" xlink:title="geography_columns" target="_top">
<polygon fill="#ffffff" stroke="transparent" points="224,-240.7 224,-282.7 379,-282.7 379,-240.7 224,-240.7"/>
<polygon fill="#f5f5f5" stroke="transparent" points="224.5,-259.7 224.5,-282.7 379.5,-282.7 379.5,-259.7 224.5,-259.7"/>
<polygon fill="none" stroke="#000000" points="224.5,-259.7 224.5,-282.7 379.5,-282.7 379.5,-259.7 224.5,-259.7"/>
<text text-anchor="start" x="229.5" y="-268.3" font-family="Helvetica,sans-Serif" font-weight="bold" font-size="11.00" fill="#000000">geography_columns</text>
<text text-anchor="start" x="346.4448" y="-267.8" font-family="Helvetica,sans-Serif" font-size="11.00" fill="#000000">[view]</text>
<polygon fill="none" stroke="#000000" points="224.5,-240.7 224.5,-259.7 379.5,-259.7 379.5,-240.7 224.5,-240.7"/>
<text text-anchor="start" x="227.5" y="-246.8" font-family="Helvetica,sans-Serif" font-size="11.00" fill="#000000">...</text>
</a>
</g>
</g>
<!-- spatial_ref_sys -->
<g id="node2" class="node">
<title>spatial_ref_sys</title>
<g id="a_node2"><a xlink:href="../../tables/spatial_ref_sys.html" xlink:title="spatial_ref_sys" target="_top">
<polygon fill="#ffffff" stroke="transparent" points="8,-112.2 8,-195.2 133,-195.2 133,-112.2 8,-112.2"/>
<polygon fill="#f5f5f5" stroke="transparent" points="8.5,-171.7 8.5,-194.7 133.5,-194.7 133.5,-171.7 8.5,-171.7"/>
<polygon fill="none" stroke="#000000" points="8.5,-171.7 8.5,-194.7 133.5,-194.7 133.5,-171.7 8.5,-171.7"/>
<text text-anchor="start" x="13.5" y="-180.3" font-family="Helvetica,sans-Serif" font-weight="bold" font-size="11.00" fill="#000000">spatial_ref_sys</text>
<text text-anchor="start" x="99.0219" y="-179.8" font-family="Helvetica,sans-Serif" font-size="11.00" fill="#000000">[table]</text>
<polygon fill="none" stroke="#000000" points="8.5,-149.7 8.5,-171.7 133.5,-171.7 133.5,-149.7 8.5,-149.7"/>
<image xlink:href="../../images/primaryKeys.png" width="11px" height="12px" preserveAspectRatio="xMinYMin meet" x="13.5" y="-166.7"/>
<text text-anchor="start" x="37.5" y="-156.8" font-family="Helvetica,sans-Serif" font-size="11.00" fill="#000000">srid</text>
<polygon fill="none" stroke="#000000" points="8.5,-130.7 8.5,-149.7 133.5,-149.7 133.5,-130.7 8.5,-130.7"/>
<text text-anchor="start" x="11.5" y="-136.8" font-family="Helvetica,sans-Serif" font-size="11.00" fill="#000000">...</text>
<polygon fill="#ffffff" stroke="transparent" points="8.5,-111.7 8.5,-130.7 36.5,-130.7 36.5,-111.7 8.5,-111.7"/>
<polygon fill="none" stroke="#000000" points="8.5,-111.7 8.5,-130.7 36.5,-130.7 36.5,-111.7 8.5,-111.7"/>
<text text-anchor="start" x="11.5" y="-117.8" font-family="Helvetica,sans-Serif" font-size="11.00" fill="#000000"> &#160;</text>
<polygon fill="#ffffff" stroke="transparent" points="36.5,-111.7 36.5,-130.7 103.5,-130.7 103.5,-111.7 36.5,-111.7"/>
<polygon fill="none" stroke="#000000" points="36.5,-111.7 36.5,-130.7 103.5,-130.7 103.5,-111.7 36.5,-111.7"/>
<text text-anchor="start" x="46.7089" y="-117.8" font-family="Helvetica,sans-Serif" font-size="11.00" fill="#000000">8,500 rows</text>
<polygon fill="#ffffff" stroke="transparent" points="103.5,-111.7 103.5,-130.7 133.5,-130.7 133.5,-111.7 103.5,-111.7"/>
<polygon fill="none" stroke="#000000" points="103.5,-111.7 103.5,-130.7 133.5,-130.7 133.5,-111.7 103.5,-111.7"/>
<text text-anchor="start" x="114.9053" y="-117.8" font-family="Helvetica,sans-Serif" font-size="11.00" fill="#000000">2 &gt;</text>
</a>
</g>
</g>
<!-- geography_columns&#45;&gt;spatial_ref_sys -->
<g id="edge1" class="edge">
<title>geography_columns:w&#45;&gt;spatial_ref_sys:e</title>
<path fill="none" stroke="#000000" stroke-dasharray="5,2" d="M209.8412,-248.9011C196.0298,-247.0614 188.0339,-241.7273 174,-229.7 146.9999,-206.5604 169.059,-160.7 133.5,-160.7"/>
<polygon fill="#000000" stroke="#000000" points="216.5119,-249.2646 224.3041,-253.2947 220.5059,-249.4823 224.5,-249.7 224.5,-249.7 224.5,-249.7 220.5059,-249.4823 224.6959,-246.1053 216.5119,-249.2646 216.5119,-249.2646"/>
<ellipse fill="none" stroke="#000000" cx="213.3166" cy="-249.0905" rx="3.2" ry="3.2"/>
</g>
<!-- geometry_columns -->
<g id="node3" class="node">
<title>geometry_columns</title>
<g id="a_node3"><a xlink:href="../../tables/geometry_columns.html" xlink:title="geometry_columns" target="_top">
<polygon fill="#ffffff" stroke="transparent" points="182,-38.2 182,-219.2 421,-219.2 421,-38.2 182,-38.2"/>
<polygon fill="#f5f5f5" stroke="transparent" points="184.5,-193.7 184.5,-216.7 419.5,-216.7 419.5,-193.7 184.5,-193.7"/>
<polygon fill="none" stroke="#000000" points="184.5,-193.7 184.5,-216.7 419.5,-216.7 419.5,-193.7 184.5,-193.7"/>
<text text-anchor="start" x="189.5" y="-202.3" font-family="Helvetica,sans-Serif" font-weight="bold" font-size="11.00" fill="#000000">geometry_columns</text>
<text text-anchor="start" x="386.3895" y="-201.8" font-family="Helvetica,sans-Serif" font-size="11.00" fill="#000000">[view]</text>
<polygon fill="none" stroke="#000000" points="184.5,-171.7 184.5,-193.7 319.5,-193.7 319.5,-171.7 184.5,-171.7"/>
<text text-anchor="start" x="204.5" y="-178.8" font-family="Helvetica,sans-Serif" font-size="11.00" fill="#000000">f_table_catalog</text>
<polygon fill="none" stroke="#000000" points="319.5,-171.7 319.5,-193.7 419.5,-193.7 419.5,-171.7 319.5,-171.7"/>
<text text-anchor="start" x="322.5" y="-179.4" font-family="Helvetica,sans-Serif" font-size="11.00" fill="#000000">varchar[256]</text>
<polygon fill="none" stroke="#000000" points="184.5,-149.7 184.5,-171.7 319.5,-171.7 319.5,-149.7 184.5,-149.7"/>
<text text-anchor="start" x="204.5" y="-156.8" font-family="Helvetica,sans-Serif" font-size="11.00" fill="#000000">f_table_schema</text>
<polygon fill="none" stroke="#000000" points="319.5,-149.7 319.5,-171.7 419.5,-171.7 419.5,-149.7 319.5,-149.7"/>
<text text-anchor="start" x="322.1153" y="-157.4" font-family="Helvetica,sans-Serif" font-size="11.00" fill="#000000">name[2147483647]</text>
<polygon fill="none" stroke="#000000" points="184.5,-127.7 184.5,-149.7 319.5,-149.7 319.5,-127.7 184.5,-127.7"/>
<text text-anchor="start" x="204.5" y="-134.8" font-family="Helvetica,sans-Serif" font-size="11.00" fill="#000000">f_table_name</text>
<polygon fill="none" stroke="#000000" points="319.5,-127.7 319.5,-149.7 419.5,-149.7 419.5,-127.7 319.5,-127.7"/>
<text text-anchor="start" x="322.1153" y="-135.4" font-family="Helvetica,sans-Serif" font-size="11.00" fill="#000000">name[2147483647]</text>
<polygon fill="none" stroke="#000000" points="184.5,-105.7 184.5,-127.7 319.5,-127.7 319.5,-105.7 184.5,-105.7"/>
<text text-anchor="start" x="204.5" y="-112.8" font-family="Helvetica,sans-Serif" font-size="11.00" fill="#000000">f_geometry_column</text>
<polygon fill="none" stroke="#000000" points="319.5,-105.7 319.5,-127.7 419.5,-127.7 419.5,-105.7 319.5,-105.7"/>
<text text-anchor="start" x="322.1153" y="-113.4" font-family="Helvetica,sans-Serif" font-size="11.00" fill="#000000">name[2147483647]</text>
<polygon fill="none" stroke="#000000" points="184.5,-83.7 184.5,-105.7 319.5,-105.7 319.5,-83.7 184.5,-83.7"/>
<text text-anchor="start" x="204.5" y="-90.8" font-family="Helvetica,sans-Serif" font-size="11.00" fill="#000000">coord_dimension</text>
<polygon fill="none" stroke="#000000" points="319.5,-83.7 319.5,-105.7 419.5,-105.7 419.5,-83.7 319.5,-83.7"/>
<text text-anchor="start" x="322.5" y="-91.4" font-family="Helvetica,sans-Serif" font-size="11.00" fill="#000000">int4[10]</text>
<polygon fill="none" stroke="#000000" points="184.5,-61.7 184.5,-83.7 319.5,-83.7 319.5,-61.7 184.5,-61.7"/>
<image xlink:href="../../images/foreignKeys.png" width="11px" height="12px" preserveAspectRatio="xMinYMin meet" x="189.5" y="-78.7"/>
<text text-anchor="start" x="204.5" y="-68.8" font-family="Helvetica,sans-Serif" font-size="11.00" fill="#000000">srid</text>
<polygon fill="none" stroke="#000000" points="319.5,-61.7 319.5,-83.7 419.5,-83.7 419.5,-61.7 319.5,-61.7"/>
<text text-anchor="start" x="322.5" y="-69.4" font-family="Helvetica,sans-Serif" font-size="11.00" fill="#000000">int4[10]</text>
<polygon fill="none" stroke="#000000" points="184.5,-39.7 184.5,-61.7 319.5,-61.7 319.5,-39.7 184.5,-39.7"/>
<text text-anchor="start" x="204.5" y="-46.8" font-family="Helvetica,sans-Serif" font-size="11.00" fill="#000000">type</text>
<polygon fill="none" stroke="#000000" points="319.5,-39.7 319.5,-61.7 419.5,-61.7 419.5,-39.7 319.5,-39.7"/>
<text text-anchor="start" x="322.5" y="-47.4" font-family="Helvetica,sans-Serif" font-size="11.00" fill="#000000">varchar[30]</text>
<polygon fill="none" stroke="#000000" stroke-width="2" points="183,-39.2 183,-218.2 420,-218.2 420,-39.2 183,-39.2"/>
</a>
</g>
</g>
<!-- geometry_columns&#45;&gt;spatial_ref_sys -->
<g id="edge2" class="edge">
<title>geometry_columns:w&#45;&gt;spatial_ref_sys:e</title>
<path fill="none" stroke="#000000" stroke-dasharray="5,2" d="M170.5699,-76.9444C148.2709,-94.5228 172.7009,-160.7 133.5,-160.7"/>
<polygon fill="#000000" stroke="#000000" points="176.8473,-75.0318 185.5493,-76.1437 180.6737,-73.8659 184.5,-72.7 184.5,-72.7 184.5,-72.7 180.6737,-73.8659 183.4507,-69.2563 176.8473,-75.0318 176.8473,-75.0318"/>
<ellipse fill="none" stroke="#000000" cx="173.7863" cy="-75.9645" rx="3.2" ry="3.2"/>
</g>
</g>
</svg>
