<?xml version="1.0" encoding="UTF-8" standalone="no"?>
<!DOCTYPE svg PUBLIC "-//W3C//DTD SVG 1.1//EN"
 "http://www.w3.org/Graphics/SVG/1.1/DTD/svg11.dtd">
<!-- Generated by graphviz version 2.40.1 (20161225.0304)
 -->
<!-- Title: oneDegreeRelationshipsDiagram Pages: 1 -->
<svg width="460pt" height="441pt"
 viewBox="0.00 0.00 460.00 440.70" xmlns="http://www.w3.org/2000/svg" xmlns:xlink="http://www.w3.org/1999/xlink">
<g id="graph0" class="graph" transform="scale(1 1) rotate(0) translate(4 436.7)">
<title>oneDegreeRelationshipsDiagram</title>
<polygon fill="#ffffff" stroke="transparent" points="-4,4 -4,-436.7 456,-436.7 456,4 -4,4"/>
<text text-anchor="middle" x="72.4936" y="-7.3" font-family="Helvetica,sans-Serif" font-size="11.00" fill="#000000">Generated by SchemaSpy</text>
<!-- order_item_2024_02 -->
<g id="node1" class="node">
<title>order_item_2024_02</title>
<g id="a_node1"><a xlink:href="../../tables/order_item_2024_02.html" xlink:title="order_item_2024_02" target="_top">
<polygon fill="#ffffff" stroke="transparent" points="220,-38.2 220,-260.2 444,-260.2 444,-38.2 220,-38.2"/>
<polygon fill="#f5f5f5" stroke="transparent" points="222,-235.2 222,-258.2 442,-258.2 442,-235.2 222,-235.2"/>
<polygon fill="none" stroke="#000000" points="222,-235.2 222,-258.2 442,-258.2 442,-235.2 222,-235.2"/>
<text text-anchor="start" x="227" y="-243.8" font-family="Helvetica,sans-Serif" font-weight="bold" font-size="11.00" fill="#000000">order_item_2024_02</text>
<text text-anchor="start" x="407.0437" y="-243.3" font-family="Helvetica,sans-Serif" font-size="11.00" fill="#000000">[table]</text>
<polygon fill="none" stroke="#000000" points="222,-213.2 222,-235.2 358,-235.2 358,-213.2 222,-213.2"/>
<image xlink:href="../../images/primaryKeys.png" width="11px" height="12px" preserveAspectRatio="xMinYMin meet" x="227" y="-230.2"/>
<text text-anchor="start" x="242" y="-220.3" font-family="Helvetica,sans-Serif" font-size="11.00" fill="#000000">order_item_id</text>
<polygon fill="none" stroke="#000000" points="358,-213.2 358,-235.2 442,-235.2 442,-213.2 358,-213.2"/>
<text text-anchor="start" x="361" y="-220.9" font-family="Helvetica,sans-Serif" font-size="11.00" fill="#000000">int8[19]</text>
<polygon fill="none" stroke="#000000" points="222,-191.2 222,-213.2 358,-213.2 358,-191.2 222,-191.2"/>
<image xlink:href="../../images/foreignKeys.png" width="11px" height="12px" preserveAspectRatio="xMinYMin meet" x="227" y="-208.2"/>
<text text-anchor="start" x="242" y="-198.3" font-family="Helvetica,sans-Serif" font-size="11.00" fill="#000000">order_id</text>
<polygon fill="none" stroke="#000000" points="358,-191.2 358,-213.2 442,-213.2 442,-191.2 358,-191.2"/>
<text text-anchor="start" x="361" y="-198.9" font-family="Helvetica,sans-Serif" font-size="11.00" fill="#000000">int8[19]</text>
<polygon fill="none" stroke="#000000" points="222,-169.2 222,-191.2 358,-191.2 358,-169.2 222,-169.2"/>
<image xlink:href="../../images/foreignKeys.png" width="11px" height="12px" preserveAspectRatio="xMinYMin meet" x="227" y="-186.2"/>
<text text-anchor="start" x="242" y="-176.3" font-family="Helvetica,sans-Serif" font-size="11.00" fill="#000000">product_id</text>
<polygon fill="none" stroke="#000000" points="358,-169.2 358,-191.2 442,-191.2 442,-169.2 358,-169.2"/>
<text text-anchor="start" x="361" y="-176.9" font-family="Helvetica,sans-Serif" font-size="11.00" fill="#000000">int8[19]</text>
<polygon fill="none" stroke="#000000" points="222,-147.2 222,-169.2 358,-169.2 358,-147.2 222,-147.2"/>
<image xlink:href="../../images/primaryKeys.png" width="11px" height="12px" preserveAspectRatio="xMinYMin meet" x="227" y="-164.2"/>
<text text-anchor="start" x="242" y="-154.3" font-family="Helvetica,sans-Serif" font-size="11.00" fill="#000000">order_date</text>
<polygon fill="none" stroke="#000000" points="358,-147.2 358,-169.2 442,-169.2 442,-147.2 358,-147.2"/>
<text text-anchor="start" x="360.8807" y="-154.9" font-family="Helvetica,sans-Serif" font-size="11.00" fill="#000000">timestamp[29,6]</text>
<polygon fill="none" stroke="#000000" points="222,-125.2 222,-147.2 358,-147.2 358,-125.2 222,-125.2"/>
<text text-anchor="start" x="242" y="-132.3" font-family="Helvetica,sans-Serif" font-size="11.00" fill="#000000">quantity</text>
<polygon fill="none" stroke="#000000" points="358,-125.2 358,-147.2 442,-147.2 442,-125.2 358,-125.2"/>
<text text-anchor="start" x="361" y="-132.9" font-family="Helvetica,sans-Serif" font-size="11.00" fill="#000000">int4[10]</text>
<polygon fill="none" stroke="#000000" points="222,-103.2 222,-125.2 358,-125.2 358,-103.2 222,-103.2"/>
<text text-anchor="start" x="242" y="-110.3" font-family="Helvetica,sans-Serif" font-size="11.00" fill="#000000">price</text>
<polygon fill="none" stroke="#000000" points="358,-103.2 358,-125.2 442,-125.2 442,-103.2 358,-103.2"/>
<text text-anchor="start" x="361" y="-110.9" font-family="Helvetica,sans-Serif" font-size="11.00" fill="#000000">numeric[10,2]</text>
<polygon fill="none" stroke="#000000" points="222,-81.2 222,-103.2 358,-103.2 358,-81.2 222,-81.2"/>
<text text-anchor="start" x="242" y="-88.3" font-family="Helvetica,sans-Serif" font-size="11.00" fill="#000000">created_at</text>
<polygon fill="none" stroke="#000000" points="358,-81.2 358,-103.2 442,-103.2 442,-81.2 358,-81.2"/>
<text text-anchor="start" x="360.8807" y="-88.9" font-family="Helvetica,sans-Serif" font-size="11.00" fill="#000000">timestamp[29,6]</text>
<polygon fill="none" stroke="#000000" points="222,-59.2 222,-81.2 358,-81.2 358,-59.2 222,-59.2"/>
<text text-anchor="start" x="242" y="-66.3" font-family="Helvetica,sans-Serif" font-size="11.00" fill="#000000">updated_at</text>
<polygon fill="none" stroke="#000000" points="358,-59.2 358,-81.2 442,-81.2 442,-59.2 358,-59.2"/>
<text text-anchor="start" x="360.8807" y="-66.9" font-family="Helvetica,sans-Serif" font-size="11.00" fill="#000000">timestamp[29,6]</text>
<polygon fill="#ffffff" stroke="transparent" points="222,-40.2 222,-59.2 294,-59.2 294,-40.2 222,-40.2"/>
<polygon fill="none" stroke="#000000" points="222,-40.2 222,-59.2 294,-59.2 294,-40.2 222,-40.2"/>
<text text-anchor="start" x="225" y="-46.3" font-family="Helvetica,sans-Serif" font-size="11.00" fill="#000000">&lt; 3</text>
<polygon fill="#ffffff" stroke="transparent" points="294,-40.2 294,-59.2 358,-59.2 358,-40.2 294,-40.2"/>
<polygon fill="none" stroke="#000000" points="294,-40.2 294,-59.2 358,-59.2 358,-40.2 294,-40.2"/>
<text text-anchor="start" x="348.8862" y="-46.3" font-family="Helvetica,sans-Serif" font-size="11.00" fill="#000000"> &#160;</text>
<polygon fill="#ffffff" stroke="transparent" points="358,-40.2 358,-59.2 442,-59.2 442,-40.2 358,-40.2"/>
<polygon fill="none" stroke="#000000" points="358,-40.2 358,-59.2 442,-59.2 442,-40.2 358,-40.2"/>
<text text-anchor="start" x="423.4053" y="-46.3" font-family="Helvetica,sans-Serif" font-size="11.00" fill="#000000">0 &gt;</text>
<polygon fill="none" stroke="#000000" stroke-width="2" points="221,-39.2 221,-259.2 443,-259.2 443,-39.2 221,-39.2"/>
</a>
</g>
</g>
<!-- order -->
<g id="node2" class="node">
<title>order</title>
<g id="a_node2"><a xlink:href="../../tables/order.html" xlink:title="order" target="_top">
<polygon fill="#ffffff" stroke="transparent" points="8,-109.7 8,-236.7 171,-236.7 171,-109.7 8,-109.7"/>
<polygon fill="#f5f5f5" stroke="transparent" points="8.5,-213.2 8.5,-236.2 171.5,-236.2 171.5,-213.2 8.5,-213.2"/>
<polygon fill="none" stroke="#000000" points="8.5,-213.2 8.5,-236.2 171.5,-236.2 171.5,-213.2 8.5,-213.2"/>
<text text-anchor="start" x="13.5" y="-221.8" font-family="Helvetica,sans-Serif" font-weight="bold" font-size="11.00" fill="#000000">order</text>
<text text-anchor="start" x="136.5437" y="-221.3" font-family="Helvetica,sans-Serif" font-size="11.00" fill="#000000">[table]</text>
<polygon fill="none" stroke="#000000" points="8.5,-191.2 8.5,-213.2 171.5,-213.2 171.5,-191.2 8.5,-191.2"/>
<image xlink:href="../../images/primaryKeys.png" width="11px" height="12px" preserveAspectRatio="xMinYMin meet" x="13.5" y="-208.2"/>
<text text-anchor="start" x="28.5" y="-198.3" font-family="Helvetica,sans-Serif" font-size="11.00" fill="#000000">order_id</text>
<polygon fill="none" stroke="#000000" points="8.5,-169.2 8.5,-191.2 171.5,-191.2 171.5,-169.2 8.5,-169.2"/>
<image xlink:href="../../images/foreignKeys.png" width="11px" height="12px" preserveAspectRatio="xMinYMin meet" x="13.5" y="-186.2"/>
<text text-anchor="start" x="28.5" y="-176.3" font-family="Helvetica,sans-Serif" font-size="11.00" fill="#000000">user_id</text>
<polygon fill="none" stroke="#000000" points="8.5,-147.2 8.5,-169.2 171.5,-169.2 171.5,-147.2 8.5,-147.2"/>
<image xlink:href="../../images/primaryKeys.png" width="11px" height="12px" preserveAspectRatio="xMinYMin meet" x="13.5" y="-164.2"/>
<text text-anchor="start" x="28.5" y="-154.3" font-family="Helvetica,sans-Serif" font-size="11.00" fill="#000000">order_date</text>
<polygon fill="none" stroke="#000000" points="8.5,-128.2 8.5,-147.2 171.5,-147.2 171.5,-128.2 8.5,-128.2"/>
<text text-anchor="start" x="11.5" y="-134.3" font-family="Helvetica,sans-Serif" font-size="11.00" fill="#000000">...</text>
<polygon fill="#ffffff" stroke="transparent" points="8.5,-109.2 8.5,-128.2 80.5,-128.2 80.5,-109.2 8.5,-109.2"/>
<polygon fill="none" stroke="#000000" points="8.5,-109.2 8.5,-128.2 80.5,-128.2 80.5,-109.2 8.5,-109.2"/>
<text text-anchor="start" x="11.5" y="-115.3" font-family="Helvetica,sans-Serif" font-size="11.00" fill="#000000">&lt; 1</text>
<polygon fill="#ffffff" stroke="transparent" points="80.5,-109.2 80.5,-128.2 118.5,-128.2 118.5,-109.2 80.5,-109.2"/>
<polygon fill="none" stroke="#000000" points="80.5,-109.2 80.5,-128.2 118.5,-128.2 118.5,-109.2 80.5,-109.2"/>
<text text-anchor="start" x="109.3862" y="-115.3" font-family="Helvetica,sans-Serif" font-size="11.00" fill="#000000"> &#160;</text>
<polygon fill="#ffffff" stroke="transparent" points="118.5,-109.2 118.5,-128.2 171.5,-128.2 171.5,-109.2 118.5,-109.2"/>
<polygon fill="none" stroke="#000000" points="118.5,-109.2 118.5,-128.2 171.5,-128.2 171.5,-109.2 118.5,-109.2"/>
<text text-anchor="start" x="146.7904" y="-115.3" font-family="Helvetica,sans-Serif" font-size="11.00" fill="#000000">26 &gt;</text>
</a>
</g>
</g>
<!-- order_item_2024_02&#45;&gt;order -->
<g id="edge1" class="edge">
<title>order_item_2024_02:w&#45;&gt;order:e</title>
<path fill="none" stroke="#000000" d="M207.4203,-158.2C195.5435,-158.2 188.158,-158.2 171.5,-158.2"/>
<polygon fill="#000000" stroke="#000000" points="214,-158.2001 222,-161.8 218,-158.2 222,-158.2 222,-158.2 222,-158.2 218,-158.2 222,-154.6 214,-158.2001 214,-158.2001"/>
<ellipse fill="none" stroke="#000000" cx="210.8" cy="-158.2001" rx="3.2" ry="3.2"/>
</g>
<!-- order_item_2024_02&#45;&gt;order -->
<g id="edge2" class="edge">
<title>order_item_2024_02:w&#45;&gt;order:e</title>
<path fill="none" stroke="#000000" d="M207.4203,-202.2C195.5435,-202.2 188.158,-202.2 171.5,-202.2"/>
<polygon fill="#000000" stroke="#000000" points="214,-202.2001 222,-205.8 218,-202.2 222,-202.2 222,-202.2 222,-202.2 218,-202.2 222,-198.6 214,-202.2001 214,-202.2001"/>
<ellipse fill="none" stroke="#000000" cx="210.8" cy="-202.2001" rx="3.2" ry="3.2"/>
</g>
<!-- product -->
<g id="node3" class="node">
<title>product</title>
<g id="a_node3"><a xlink:href="../../tables/product.html" xlink:title="product" target="_top">
<polygon fill="#ffffff" stroke="transparent" points="20,-257.7 20,-428.7 159,-428.7 159,-257.7 20,-257.7"/>
<polygon fill="#f5f5f5" stroke="transparent" points="20.5,-405.2 20.5,-428.2 159.5,-428.2 159.5,-405.2 20.5,-405.2"/>
<polygon fill="none" stroke="#000000" points="20.5,-405.2 20.5,-428.2 159.5,-428.2 159.5,-405.2 20.5,-405.2"/>
<text text-anchor="start" x="25.5" y="-413.8" font-family="Helvetica,sans-Serif" font-weight="bold" font-size="11.00" fill="#000000">product</text>
<text text-anchor="start" x="124.5437" y="-413.3" font-family="Helvetica,sans-Serif" font-size="11.00" fill="#000000">[table]</text>
<polygon fill="none" stroke="#000000" points="20.5,-383.2 20.5,-405.2 159.5,-405.2 159.5,-383.2 20.5,-383.2"/>
<image xlink:href="../../images/primaryKeys.png" width="11px" height="12px" preserveAspectRatio="xMinYMin meet" x="25.5" y="-400.2"/>
<text text-anchor="start" x="40.5" y="-390.3" font-family="Helvetica,sans-Serif" font-size="11.00" fill="#000000">product_id</text>
<polygon fill="none" stroke="#000000" points="20.5,-361.2 20.5,-383.2 159.5,-383.2 159.5,-361.2 20.5,-361.2"/>
<image xlink:href="../../images/foreignKeys.png" width="11px" height="12px" preserveAspectRatio="xMinYMin meet" x="25.5" y="-378.2"/>
<text text-anchor="start" x="40.5" y="-368.3" font-family="Helvetica,sans-Serif" font-size="11.00" fill="#000000">product_brand_id</text>
<polygon fill="none" stroke="#000000" points="20.5,-339.2 20.5,-361.2 159.5,-361.2 159.5,-339.2 20.5,-339.2"/>
<image xlink:href="../../images/foreignKeys.png" width="11px" height="12px" preserveAspectRatio="xMinYMin meet" x="25.5" y="-356.2"/>
<text text-anchor="start" x="40.5" y="-346.3" font-family="Helvetica,sans-Serif" font-size="11.00" fill="#000000">product_category_id</text>
<polygon fill="#ffffff" stroke="transparent" points="20.5,-317.2 20.5,-339.2 159.5,-339.2 159.5,-317.2 20.5,-317.2"/>
<polygon fill="none" stroke="#000000" points="20.5,-317.2 20.5,-339.2 159.5,-339.2 159.5,-317.2 20.5,-317.2"/>
<text text-anchor="start" x="40.5" y="-324.3" font-family="Helvetica,sans-Serif" font-size="11.00" fill="#000000">valid_from</text>
<polygon fill="#ffffff" stroke="transparent" points="20.5,-295.2 20.5,-317.2 159.5,-317.2 159.5,-295.2 20.5,-295.2"/>
<polygon fill="none" stroke="#000000" points="20.5,-295.2 20.5,-317.2 159.5,-317.2 159.5,-295.2 20.5,-295.2"/>
<text text-anchor="start" x="40.5" y="-302.3" font-family="Helvetica,sans-Serif" font-size="11.00" fill="#000000">valid_to</text>
<polygon fill="none" stroke="#000000" points="20.5,-276.2 20.5,-295.2 159.5,-295.2 159.5,-276.2 20.5,-276.2"/>
<text text-anchor="start" x="23.5" y="-282.3" font-family="Helvetica,sans-Serif" font-size="11.00" fill="#000000">...</text>
<polygon fill="#ffffff" stroke="transparent" points="20.5,-257.2 20.5,-276.2 80.5,-276.2 80.5,-257.2 20.5,-257.2"/>
<polygon fill="none" stroke="#000000" points="20.5,-257.2 20.5,-276.2 80.5,-276.2 80.5,-257.2 20.5,-257.2"/>
<text text-anchor="start" x="23.5" y="-263.3" font-family="Helvetica,sans-Serif" font-size="11.00" fill="#000000">&lt; 2</text>
<polygon fill="#ffffff" stroke="transparent" points="80.5,-257.2 80.5,-276.2 112.5,-276.2 112.5,-257.2 80.5,-257.2"/>
<polygon fill="none" stroke="#000000" points="80.5,-257.2 80.5,-276.2 112.5,-276.2 112.5,-257.2 80.5,-257.2"/>
<text text-anchor="start" x="103.3862" y="-263.3" font-family="Helvetica,sans-Serif" font-size="11.00" fill="#000000"> &#160;</text>
<polygon fill="#ffffff" stroke="transparent" points="112.5,-257.2 112.5,-276.2 159.5,-276.2 159.5,-257.2 112.5,-257.2"/>
<polygon fill="none" stroke="#000000" points="112.5,-257.2 112.5,-276.2 159.5,-276.2 159.5,-257.2 112.5,-257.2"/>
<text text-anchor="start" x="134.7904" y="-263.3" font-family="Helvetica,sans-Serif" font-size="11.00" fill="#000000">14 &gt;</text>
</a>
</g>
</g>
<!-- order_item_2024_02&#45;&gt;product -->
<g id="edge3" class="edge">
<title>order_item_2024_02:w&#45;&gt;product:e</title>
<path fill="none" stroke="#000000" d="M207.3374,-182.1819C137.5312,-203.7556 252.9722,-394.2 159.5,-394.2"/>
<polygon fill="#000000" stroke="#000000" points="214.0721,-181.2716 222.4822,-183.7676 218.036,-180.7358 222,-180.2 222,-180.2 222,-180.2 218.036,-180.7358 221.5178,-176.6324 214.0721,-181.2716 214.0721,-181.2716"/>
<ellipse fill="none" stroke="#000000" cx="210.9009" cy="-181.7003" rx="3.2" ry="3.2"/>
</g>
</g>
</svg>
