<?xml version="1.0" encoding="UTF-8" standalone="no"?>
<!DOCTYPE svg PUBLIC "-//W3C//DTD SVG 1.1//EN"
 "http://www.w3.org/Graphics/SVG/1.1/DTD/svg11.dtd">
<!-- Generated by graphviz version 2.40.1 (20161225.0304)
 -->
<!-- Title: oneDegreeRelationshipsDiagram Pages: 1 -->
<svg width="423pt" height="249pt"
 viewBox="0.00 0.00 423.00 248.70" xmlns="http://www.w3.org/2000/svg" xmlns:xlink="http://www.w3.org/1999/xlink">
<g id="graph0" class="graph" transform="scale(1 1) rotate(0) translate(4 244.7)">
<title>oneDegreeRelationshipsDiagram</title>
<polygon fill="#ffffff" stroke="transparent" points="-4,4 -4,-244.7 419,-244.7 419,4 -4,4"/>
<text text-anchor="middle" x="72.4936" y="-7.3" font-family="Helvetica,sans-Serif" font-size="11.00" fill="#000000">Generated by SchemaSpy</text>
<!-- product -->
<g id="node1" class="node">
<title>product</title>
<g id="a_node1"><a xlink:href="../../tables/product.html" xlink:title="product" target="_top">
<polygon fill="#ffffff" stroke="transparent" points="268,-65.7 268,-236.7 407,-236.7 407,-65.7 268,-65.7"/>
<polygon fill="#f5f5f5" stroke="transparent" points="268.5,-213.2 268.5,-236.2 407.5,-236.2 407.5,-213.2 268.5,-213.2"/>
<polygon fill="none" stroke="#000000" points="268.5,-213.2 268.5,-236.2 407.5,-236.2 407.5,-213.2 268.5,-213.2"/>
<text text-anchor="start" x="273.5" y="-221.8" font-family="Helvetica,sans-Serif" font-weight="bold" font-size="11.00" fill="#000000">product</text>
<text text-anchor="start" x="372.5437" y="-221.3" font-family="Helvetica,sans-Serif" font-size="11.00" fill="#000000">[table]</text>
<polygon fill="none" stroke="#000000" points="268.5,-191.2 268.5,-213.2 407.5,-213.2 407.5,-191.2 268.5,-191.2"/>
<image xlink:href="../../images/primaryKeys.png" width="11px" height="12px" preserveAspectRatio="xMinYMin meet" x="273.5" y="-208.2"/>
<text text-anchor="start" x="288.5" y="-198.3" font-family="Helvetica,sans-Serif" font-size="11.00" fill="#000000">product_id</text>
<polygon fill="none" stroke="#000000" points="268.5,-169.2 268.5,-191.2 407.5,-191.2 407.5,-169.2 268.5,-169.2"/>
<image xlink:href="../../images/foreignKeys.png" width="11px" height="12px" preserveAspectRatio="xMinYMin meet" x="273.5" y="-186.2"/>
<text text-anchor="start" x="288.5" y="-176.3" font-family="Helvetica,sans-Serif" font-size="11.00" fill="#000000">product_brand_id</text>
<polygon fill="none" stroke="#000000" points="268.5,-147.2 268.5,-169.2 407.5,-169.2 407.5,-147.2 268.5,-147.2"/>
<image xlink:href="../../images/foreignKeys.png" width="11px" height="12px" preserveAspectRatio="xMinYMin meet" x="273.5" y="-164.2"/>
<text text-anchor="start" x="288.5" y="-154.3" font-family="Helvetica,sans-Serif" font-size="11.00" fill="#000000">product_category_id</text>
<polygon fill="#ffffff" stroke="transparent" points="268.5,-125.2 268.5,-147.2 407.5,-147.2 407.5,-125.2 268.5,-125.2"/>
<polygon fill="none" stroke="#000000" points="268.5,-125.2 268.5,-147.2 407.5,-147.2 407.5,-125.2 268.5,-125.2"/>
<text text-anchor="start" x="288.5" y="-132.3" font-family="Helvetica,sans-Serif" font-size="11.00" fill="#000000">valid_from</text>
<polygon fill="#ffffff" stroke="transparent" points="268.5,-103.2 268.5,-125.2 407.5,-125.2 407.5,-103.2 268.5,-103.2"/>
<polygon fill="none" stroke="#000000" points="268.5,-103.2 268.5,-125.2 407.5,-125.2 407.5,-103.2 268.5,-103.2"/>
<text text-anchor="start" x="288.5" y="-110.3" font-family="Helvetica,sans-Serif" font-size="11.00" fill="#000000">valid_to</text>
<polygon fill="none" stroke="#000000" points="268.5,-84.2 268.5,-103.2 407.5,-103.2 407.5,-84.2 268.5,-84.2"/>
<text text-anchor="start" x="271.5" y="-90.3" font-family="Helvetica,sans-Serif" font-size="11.00" fill="#000000">...</text>
<polygon fill="#ffffff" stroke="transparent" points="268.5,-65.2 268.5,-84.2 328.5,-84.2 328.5,-65.2 268.5,-65.2"/>
<polygon fill="none" stroke="#000000" points="268.5,-65.2 268.5,-84.2 328.5,-84.2 328.5,-65.2 268.5,-65.2"/>
<text text-anchor="start" x="271.5" y="-71.3" font-family="Helvetica,sans-Serif" font-size="11.00" fill="#000000">&lt; 2</text>
<polygon fill="#ffffff" stroke="transparent" points="328.5,-65.2 328.5,-84.2 360.5,-84.2 360.5,-65.2 328.5,-65.2"/>
<polygon fill="none" stroke="#000000" points="328.5,-65.2 328.5,-84.2 360.5,-84.2 360.5,-65.2 328.5,-65.2"/>
<text text-anchor="start" x="351.3862" y="-71.3" font-family="Helvetica,sans-Serif" font-size="11.00" fill="#000000"> &#160;</text>
<polygon fill="#ffffff" stroke="transparent" points="360.5,-65.2 360.5,-84.2 407.5,-84.2 407.5,-65.2 360.5,-65.2"/>
<polygon fill="none" stroke="#000000" points="360.5,-65.2 360.5,-84.2 407.5,-84.2 407.5,-65.2 360.5,-65.2"/>
<text text-anchor="start" x="382.7904" y="-71.3" font-family="Helvetica,sans-Serif" font-size="11.00" fill="#000000">14 &gt;</text>
</a>
</g>
</g>
<!-- product_brand -->
<g id="node2" class="node">
<title>product_brand</title>
<g id="a_node2"><a xlink:href="../../tables/product_brand.html" xlink:title="product_brand" target="_top">
<polygon fill="#ffffff" stroke="transparent" points="8,-38.2 8,-216.2 219,-216.2 219,-38.2 8,-38.2"/>
<polygon fill="#f5f5f5" stroke="transparent" points="10.5,-191.2 10.5,-214.2 217.5,-214.2 217.5,-191.2 10.5,-191.2"/>
<polygon fill="none" stroke="#000000" points="10.5,-191.2 10.5,-214.2 217.5,-214.2 217.5,-191.2 10.5,-191.2"/>
<text text-anchor="start" x="15.5" y="-199.8" font-family="Helvetica,sans-Serif" font-weight="bold" font-size="11.00" fill="#000000">product_brand</text>
<text text-anchor="start" x="182.5437" y="-199.3" font-family="Helvetica,sans-Serif" font-size="11.00" fill="#000000">[table]</text>
<polygon fill="none" stroke="#000000" points="10.5,-169.2 10.5,-191.2 133.5,-191.2 133.5,-169.2 10.5,-169.2"/>
<image xlink:href="../../images/primaryKeys.png" width="11px" height="12px" preserveAspectRatio="xMinYMin meet" x="15.5" y="-186.2"/>
<text text-anchor="start" x="30.5" y="-176.3" font-family="Helvetica,sans-Serif" font-size="11.00" fill="#000000">product_brand_id</text>
<polygon fill="none" stroke="#000000" points="133.5,-169.2 133.5,-191.2 217.5,-191.2 217.5,-169.2 133.5,-169.2"/>
<text text-anchor="start" x="136.5" y="-176.9" font-family="Helvetica,sans-Serif" font-size="11.00" fill="#000000">int8[19]</text>
<polygon fill="none" stroke="#000000" points="10.5,-147.2 10.5,-169.2 133.5,-169.2 133.5,-147.2 10.5,-147.2"/>
<text text-anchor="start" x="30.5" y="-154.3" font-family="Helvetica,sans-Serif" font-size="11.00" fill="#000000">name</text>
<polygon fill="none" stroke="#000000" points="133.5,-147.2 133.5,-169.2 217.5,-169.2 217.5,-147.2 133.5,-147.2"/>
<text text-anchor="start" x="136.5" y="-154.9" font-family="Helvetica,sans-Serif" font-size="11.00" fill="#000000">varchar[50]</text>
<polygon fill="none" stroke="#000000" points="10.5,-125.2 10.5,-147.2 133.5,-147.2 133.5,-125.2 10.5,-125.2"/>
<text text-anchor="start" x="30.5" y="-132.3" font-family="Helvetica,sans-Serif" font-size="11.00" fill="#000000">description</text>
<polygon fill="none" stroke="#000000" points="133.5,-125.2 133.5,-147.2 217.5,-147.2 217.5,-125.2 133.5,-125.2"/>
<text text-anchor="start" x="136.5" y="-132.9" font-family="Helvetica,sans-Serif" font-size="11.00" fill="#000000">varchar[1000]</text>
<polygon fill="none" stroke="#000000" points="10.5,-103.2 10.5,-125.2 133.5,-125.2 133.5,-103.2 10.5,-103.2"/>
<text text-anchor="start" x="30.5" y="-110.3" font-family="Helvetica,sans-Serif" font-size="11.00" fill="#000000">deleted_at</text>
<polygon fill="none" stroke="#000000" points="133.5,-103.2 133.5,-125.2 217.5,-125.2 217.5,-103.2 133.5,-103.2"/>
<text text-anchor="start" x="136.3807" y="-110.9" font-family="Helvetica,sans-Serif" font-size="11.00" fill="#000000">timestamp[29,6]</text>
<polygon fill="none" stroke="#000000" points="10.5,-81.2 10.5,-103.2 133.5,-103.2 133.5,-81.2 10.5,-81.2"/>
<text text-anchor="start" x="30.5" y="-88.3" font-family="Helvetica,sans-Serif" font-size="11.00" fill="#000000">created_at</text>
<polygon fill="none" stroke="#000000" points="133.5,-81.2 133.5,-103.2 217.5,-103.2 217.5,-81.2 133.5,-81.2"/>
<text text-anchor="start" x="136.3807" y="-88.9" font-family="Helvetica,sans-Serif" font-size="11.00" fill="#000000">timestamp[29,6]</text>
<polygon fill="none" stroke="#000000" points="10.5,-59.2 10.5,-81.2 133.5,-81.2 133.5,-59.2 10.5,-59.2"/>
<text text-anchor="start" x="30.5" y="-66.3" font-family="Helvetica,sans-Serif" font-size="11.00" fill="#000000">updated_at</text>
<polygon fill="none" stroke="#000000" points="133.5,-59.2 133.5,-81.2 217.5,-81.2 217.5,-59.2 133.5,-59.2"/>
<text text-anchor="start" x="136.3807" y="-66.9" font-family="Helvetica,sans-Serif" font-size="11.00" fill="#000000">timestamp[29,6]</text>
<polygon fill="#ffffff" stroke="transparent" points="10.5,-40.2 10.5,-59.2 76.5,-59.2 76.5,-40.2 10.5,-40.2"/>
<polygon fill="none" stroke="#000000" points="10.5,-40.2 10.5,-59.2 76.5,-59.2 76.5,-40.2 10.5,-40.2"/>
<text text-anchor="start" x="13.5" y="-46.3" font-family="Helvetica,sans-Serif" font-size="11.00" fill="#000000">&lt; 0</text>
<polygon fill="#ffffff" stroke="transparent" points="76.5,-40.2 76.5,-59.2 133.5,-59.2 133.5,-40.2 76.5,-40.2"/>
<polygon fill="none" stroke="#000000" points="76.5,-40.2 76.5,-59.2 133.5,-59.2 133.5,-40.2 76.5,-40.2"/>
<text text-anchor="start" x="124.3862" y="-46.3" font-family="Helvetica,sans-Serif" font-size="11.00" fill="#000000"> &#160;</text>
<polygon fill="#ffffff" stroke="transparent" points="133.5,-40.2 133.5,-59.2 217.5,-59.2 217.5,-40.2 133.5,-40.2"/>
<polygon fill="none" stroke="#000000" points="133.5,-40.2 133.5,-59.2 217.5,-59.2 217.5,-40.2 133.5,-40.2"/>
<text text-anchor="start" x="198.9053" y="-46.3" font-family="Helvetica,sans-Serif" font-size="11.00" fill="#000000">1 &gt;</text>
<polygon fill="none" stroke="#000000" stroke-width="2" points="9,-39.2 9,-215.2 218,-215.2 218,-39.2 9,-39.2"/>
</a>
</g>
</g>
<!-- product&#45;&gt;product_brand -->
<g id="edge1" class="edge">
<title>product:w&#45;&gt;product_brand:e</title>
<path fill="none" stroke="#000000" d="M253.776,-180.2C241.7815,-180.2 234.3229,-180.2 217.5,-180.2"/>
<polygon fill="#000000" stroke="#000000" points="260.5,-180.2001 268.5,-183.8 264.5,-180.2 268.5,-180.2 268.5,-180.2 268.5,-180.2 264.5,-180.2 268.5,-176.6 260.5,-180.2001 260.5,-180.2001"/>
<ellipse fill="none" stroke="#000000" cx="257.3" cy="-180.2001" rx="3.2" ry="3.2"/>
</g>
</g>
</svg>
