<?xml version="1.0" encoding="UTF-8" standalone="no"?>
<!DOCTYPE svg PUBLIC "-//W3C//DTD SVG 1.1//EN"
 "http://www.w3.org/Graphics/SVG/1.1/DTD/svg11.dtd">
<!-- Generated by graphviz version 2.40.1 (20161225.0304)
 -->
<!-- Title: oneDegreeRelationshipsDiagram Pages: 1 -->
<svg width="439pt" height="271pt"
 viewBox="0.00 0.00 439.00 270.70" xmlns="http://www.w3.org/2000/svg" xmlns:xlink="http://www.w3.org/1999/xlink">
<g id="graph0" class="graph" transform="scale(1 1) rotate(0) translate(4 266.7)">
<title>oneDegreeRelationshipsDiagram</title>
<polygon fill="#ffffff" stroke="transparent" points="-4,4 -4,-266.7 435,-266.7 435,4 -4,4"/>
<text text-anchor="middle" x="72.4936" y="-7.3" font-family="Helvetica,sans-Serif" font-size="11.00" fill="#000000">Generated by SchemaSpy</text>
<!-- product -->
<g id="node1" class="node">
<title>product</title>
<g id="a_node1"><a xlink:href="../../tables/product.html" xlink:title="product" target="_top">
<polygon fill="#ffffff" stroke="transparent" points="284,-87.7 284,-258.7 423,-258.7 423,-87.7 284,-87.7"/>
<polygon fill="#f5f5f5" stroke="transparent" points="284.5,-235.2 284.5,-258.2 423.5,-258.2 423.5,-235.2 284.5,-235.2"/>
<polygon fill="none" stroke="#000000" points="284.5,-235.2 284.5,-258.2 423.5,-258.2 423.5,-235.2 284.5,-235.2"/>
<text text-anchor="start" x="289.5" y="-243.8" font-family="Helvetica,sans-Serif" font-weight="bold" font-size="11.00" fill="#000000">product</text>
<text text-anchor="start" x="388.5437" y="-243.3" font-family="Helvetica,sans-Serif" font-size="11.00" fill="#000000">[table]</text>
<polygon fill="none" stroke="#000000" points="284.5,-213.2 284.5,-235.2 423.5,-235.2 423.5,-213.2 284.5,-213.2"/>
<image xlink:href="../../images/primaryKeys.png" width="11px" height="12px" preserveAspectRatio="xMinYMin meet" x="289.5" y="-230.2"/>
<text text-anchor="start" x="304.5" y="-220.3" font-family="Helvetica,sans-Serif" font-size="11.00" fill="#000000">product_id</text>
<polygon fill="none" stroke="#000000" points="284.5,-191.2 284.5,-213.2 423.5,-213.2 423.5,-191.2 284.5,-191.2"/>
<image xlink:href="../../images/foreignKeys.png" width="11px" height="12px" preserveAspectRatio="xMinYMin meet" x="289.5" y="-208.2"/>
<text text-anchor="start" x="304.5" y="-198.3" font-family="Helvetica,sans-Serif" font-size="11.00" fill="#000000">product_brand_id</text>
<polygon fill="none" stroke="#000000" points="284.5,-169.2 284.5,-191.2 423.5,-191.2 423.5,-169.2 284.5,-169.2"/>
<image xlink:href="../../images/foreignKeys.png" width="11px" height="12px" preserveAspectRatio="xMinYMin meet" x="289.5" y="-186.2"/>
<text text-anchor="start" x="304.5" y="-176.3" font-family="Helvetica,sans-Serif" font-size="11.00" fill="#000000">product_category_id</text>
<polygon fill="#ffffff" stroke="transparent" points="284.5,-147.2 284.5,-169.2 423.5,-169.2 423.5,-147.2 284.5,-147.2"/>
<polygon fill="none" stroke="#000000" points="284.5,-147.2 284.5,-169.2 423.5,-169.2 423.5,-147.2 284.5,-147.2"/>
<text text-anchor="start" x="304.5" y="-154.3" font-family="Helvetica,sans-Serif" font-size="11.00" fill="#000000">valid_from</text>
<polygon fill="#ffffff" stroke="transparent" points="284.5,-125.2 284.5,-147.2 423.5,-147.2 423.5,-125.2 284.5,-125.2"/>
<polygon fill="none" stroke="#000000" points="284.5,-125.2 284.5,-147.2 423.5,-147.2 423.5,-125.2 284.5,-125.2"/>
<text text-anchor="start" x="304.5" y="-132.3" font-family="Helvetica,sans-Serif" font-size="11.00" fill="#000000">valid_to</text>
<polygon fill="none" stroke="#000000" points="284.5,-106.2 284.5,-125.2 423.5,-125.2 423.5,-106.2 284.5,-106.2"/>
<text text-anchor="start" x="287.5" y="-112.3" font-family="Helvetica,sans-Serif" font-size="11.00" fill="#000000">...</text>
<polygon fill="#ffffff" stroke="transparent" points="284.5,-87.2 284.5,-106.2 344.5,-106.2 344.5,-87.2 284.5,-87.2"/>
<polygon fill="none" stroke="#000000" points="284.5,-87.2 284.5,-106.2 344.5,-106.2 344.5,-87.2 284.5,-87.2"/>
<text text-anchor="start" x="287.5" y="-93.3" font-family="Helvetica,sans-Serif" font-size="11.00" fill="#000000">&lt; 2</text>
<polygon fill="#ffffff" stroke="transparent" points="344.5,-87.2 344.5,-106.2 376.5,-106.2 376.5,-87.2 344.5,-87.2"/>
<polygon fill="none" stroke="#000000" points="344.5,-87.2 344.5,-106.2 376.5,-106.2 376.5,-87.2 344.5,-87.2"/>
<text text-anchor="start" x="367.3862" y="-93.3" font-family="Helvetica,sans-Serif" font-size="11.00" fill="#000000"> &#160;</text>
<polygon fill="#ffffff" stroke="transparent" points="376.5,-87.2 376.5,-106.2 423.5,-106.2 423.5,-87.2 376.5,-87.2"/>
<polygon fill="none" stroke="#000000" points="376.5,-87.2 376.5,-106.2 423.5,-106.2 423.5,-87.2 376.5,-87.2"/>
<text text-anchor="start" x="398.7904" y="-93.3" font-family="Helvetica,sans-Serif" font-size="11.00" fill="#000000">14 &gt;</text>
</a>
</g>
</g>
<!-- product_category -->
<g id="node2" class="node">
<title>product_category</title>
<g id="a_node2"><a xlink:href="../../tables/product_category.html" xlink:title="product_category" target="_top">
<polygon fill="#ffffff" stroke="transparent" points="8,-38.2 8,-216.2 235,-216.2 235,-38.2 8,-38.2"/>
<polygon fill="#f5f5f5" stroke="transparent" points="10.5,-191.2 10.5,-214.2 233.5,-214.2 233.5,-191.2 10.5,-191.2"/>
<polygon fill="none" stroke="#000000" points="10.5,-191.2 10.5,-214.2 233.5,-214.2 233.5,-191.2 10.5,-191.2"/>
<text text-anchor="start" x="15.5" y="-199.8" font-family="Helvetica,sans-Serif" font-weight="bold" font-size="11.00" fill="#000000">product_category</text>
<text text-anchor="start" x="198.5437" y="-199.3" font-family="Helvetica,sans-Serif" font-size="11.00" fill="#000000">[table]</text>
<polygon fill="none" stroke="#000000" points="10.5,-169.2 10.5,-191.2 149.5,-191.2 149.5,-169.2 10.5,-169.2"/>
<image xlink:href="../../images/primaryKeys.png" width="11px" height="12px" preserveAspectRatio="xMinYMin meet" x="15.5" y="-186.2"/>
<text text-anchor="start" x="30.5" y="-176.3" font-family="Helvetica,sans-Serif" font-size="11.00" fill="#000000">product_category_id</text>
<polygon fill="none" stroke="#000000" points="149.5,-169.2 149.5,-191.2 233.5,-191.2 233.5,-169.2 149.5,-169.2"/>
<text text-anchor="start" x="152.5" y="-176.9" font-family="Helvetica,sans-Serif" font-size="11.00" fill="#000000">int8[19]</text>
<polygon fill="none" stroke="#000000" points="10.5,-147.2 10.5,-169.2 149.5,-169.2 149.5,-147.2 10.5,-147.2"/>
<text text-anchor="start" x="30.5" y="-154.3" font-family="Helvetica,sans-Serif" font-size="11.00" fill="#000000">name</text>
<polygon fill="none" stroke="#000000" points="149.5,-147.2 149.5,-169.2 233.5,-169.2 233.5,-147.2 149.5,-147.2"/>
<text text-anchor="start" x="152.5" y="-154.9" font-family="Helvetica,sans-Serif" font-size="11.00" fill="#000000">varchar[50]</text>
<polygon fill="none" stroke="#000000" points="10.5,-125.2 10.5,-147.2 149.5,-147.2 149.5,-125.2 10.5,-125.2"/>
<text text-anchor="start" x="30.5" y="-132.3" font-family="Helvetica,sans-Serif" font-size="11.00" fill="#000000">description</text>
<polygon fill="none" stroke="#000000" points="149.5,-125.2 149.5,-147.2 233.5,-147.2 233.5,-125.2 149.5,-125.2"/>
<text text-anchor="start" x="152.5" y="-132.9" font-family="Helvetica,sans-Serif" font-size="11.00" fill="#000000">varchar[1000]</text>
<polygon fill="none" stroke="#000000" points="10.5,-103.2 10.5,-125.2 149.5,-125.2 149.5,-103.2 10.5,-103.2"/>
<text text-anchor="start" x="30.5" y="-110.3" font-family="Helvetica,sans-Serif" font-size="11.00" fill="#000000">deleted_at</text>
<polygon fill="none" stroke="#000000" points="149.5,-103.2 149.5,-125.2 233.5,-125.2 233.5,-103.2 149.5,-103.2"/>
<text text-anchor="start" x="152.3807" y="-110.9" font-family="Helvetica,sans-Serif" font-size="11.00" fill="#000000">timestamp[29,6]</text>
<polygon fill="none" stroke="#000000" points="10.5,-81.2 10.5,-103.2 149.5,-103.2 149.5,-81.2 10.5,-81.2"/>
<text text-anchor="start" x="30.5" y="-88.3" font-family="Helvetica,sans-Serif" font-size="11.00" fill="#000000">created_at</text>
<polygon fill="none" stroke="#000000" points="149.5,-81.2 149.5,-103.2 233.5,-103.2 233.5,-81.2 149.5,-81.2"/>
<text text-anchor="start" x="152.3807" y="-88.9" font-family="Helvetica,sans-Serif" font-size="11.00" fill="#000000">timestamp[29,6]</text>
<polygon fill="none" stroke="#000000" points="10.5,-59.2 10.5,-81.2 149.5,-81.2 149.5,-59.2 10.5,-59.2"/>
<text text-anchor="start" x="30.5" y="-66.3" font-family="Helvetica,sans-Serif" font-size="11.00" fill="#000000">updated_at</text>
<polygon fill="none" stroke="#000000" points="149.5,-59.2 149.5,-81.2 233.5,-81.2 233.5,-59.2 149.5,-59.2"/>
<text text-anchor="start" x="152.3807" y="-66.9" font-family="Helvetica,sans-Serif" font-size="11.00" fill="#000000">timestamp[29,6]</text>
<polygon fill="#ffffff" stroke="transparent" points="10.5,-40.2 10.5,-59.2 84.5,-59.2 84.5,-40.2 10.5,-40.2"/>
<polygon fill="none" stroke="#000000" points="10.5,-40.2 10.5,-59.2 84.5,-59.2 84.5,-40.2 10.5,-40.2"/>
<text text-anchor="start" x="13.5" y="-46.3" font-family="Helvetica,sans-Serif" font-size="11.00" fill="#000000">&lt; 0</text>
<polygon fill="#ffffff" stroke="transparent" points="84.5,-40.2 84.5,-59.2 149.5,-59.2 149.5,-40.2 84.5,-40.2"/>
<polygon fill="none" stroke="#000000" points="84.5,-40.2 84.5,-59.2 149.5,-59.2 149.5,-40.2 84.5,-40.2"/>
<text text-anchor="start" x="140.3862" y="-46.3" font-family="Helvetica,sans-Serif" font-size="11.00" fill="#000000"> &#160;</text>
<polygon fill="#ffffff" stroke="transparent" points="149.5,-40.2 149.5,-59.2 233.5,-59.2 233.5,-40.2 149.5,-40.2"/>
<polygon fill="none" stroke="#000000" points="149.5,-40.2 149.5,-59.2 233.5,-59.2 233.5,-40.2 149.5,-40.2"/>
<text text-anchor="start" x="214.9053" y="-46.3" font-family="Helvetica,sans-Serif" font-size="11.00" fill="#000000">1 &gt;</text>
<polygon fill="none" stroke="#000000" stroke-width="2" points="9,-39.2 9,-215.2 234,-215.2 234,-39.2 9,-39.2"/>
</a>
</g>
</g>
<!-- product&#45;&gt;product_category -->
<g id="edge1" class="edge">
<title>product:w&#45;&gt;product_category:e</title>
<path fill="none" stroke="#000000" d="M269.776,-180.2C257.7815,-180.2 250.3229,-180.2 233.5,-180.2"/>
<polygon fill="#000000" stroke="#000000" points="276.5,-180.2001 284.5,-183.8 280.5,-180.2 284.5,-180.2 284.5,-180.2 284.5,-180.2 280.5,-180.2 284.5,-176.6 276.5,-180.2001 276.5,-180.2001"/>
<ellipse fill="none" stroke="#000000" cx="273.3" cy="-180.2001" rx="3.2" ry="3.2"/>
</g>
</g>
</svg>
