<?xml version="1.0" encoding="UTF-8" standalone="no"?>
<!DOCTYPE svg PUBLIC "-//W3C//DTD SVG 1.1//EN"
 "http://www.w3.org/Graphics/SVG/1.1/DTD/svg11.dtd">
<!-- Generated by graphviz version 2.40.1 (20161225.0304)
 -->
<!-- Title: oneDegreeRelationshipsDiagramImplied Pages: 1 -->
<svg width="412pt" height="246pt"
 viewBox="0.00 0.00 412.00 246.20" xmlns="http://www.w3.org/2000/svg" xmlns:xlink="http://www.w3.org/1999/xlink">
<g id="graph0" class="graph" transform="scale(1 1) rotate(0) translate(4 242.2)">
<title>oneDegreeRelationshipsDiagramImplied</title>
<polygon fill="#ffffff" stroke="transparent" points="-4,4 -4,-242.2 408,-242.2 408,4 -4,4"/>
<text text-anchor="middle" x="72.4936" y="-7.3" font-family="Helvetica,sans-Serif" font-size="11.00" fill="#000000">Generated by SchemaSpy</text>
<!-- geography_columns -->
<g id="node1" class="node">
<title>geography_columns</title>
<g id="a_node1"><a xlink:href="../../tables/geography_columns.html" xlink:title="geography_columns" target="_top">
<polygon fill="#ffffff" stroke="transparent" points="241,-170.2 241,-234.2 396,-234.2 396,-170.2 241,-170.2"/>
<polygon fill="#f5f5f5" stroke="transparent" points="241.5,-211.2 241.5,-234.2 396.5,-234.2 396.5,-211.2 241.5,-211.2"/>
<polygon fill="none" stroke="#000000" points="241.5,-211.2 241.5,-234.2 396.5,-234.2 396.5,-211.2 241.5,-211.2"/>
<text text-anchor="start" x="246.5" y="-219.8" font-family="Helvetica,sans-Serif" font-weight="bold" font-size="11.00" fill="#000000">geography_columns</text>
<text text-anchor="start" x="363.4448" y="-219.3" font-family="Helvetica,sans-Serif" font-size="11.00" fill="#000000">[view]</text>
<polygon fill="none" stroke="#000000" points="241.5,-189.2 241.5,-211.2 396.5,-211.2 396.5,-189.2 241.5,-189.2"/>
<image xlink:href="../../images/foreignKeys.png" width="11px" height="12px" preserveAspectRatio="xMinYMin meet" x="246.5" y="-206.2"/>
<text text-anchor="start" x="268.5" y="-196.3" font-family="Helvetica,sans-Serif" font-size="11.00" fill="#000000">srid</text>
<polygon fill="none" stroke="#000000" points="241.5,-170.2 241.5,-189.2 396.5,-189.2 396.5,-170.2 241.5,-170.2"/>
<text text-anchor="start" x="244.5" y="-176.3" font-family="Helvetica,sans-Serif" font-size="11.00" fill="#000000">...</text>
</a>
</g>
</g>
<!-- spatial_ref_sys -->
<g id="node2" class="node">
<title>spatial_ref_sys</title>
<g id="a_node2"><a xlink:href="../../tables/spatial_ref_sys.html" xlink:title="spatial_ref_sys" target="_top">
<polygon fill="#ffffff" stroke="transparent" points="8,-38.2 8,-194.2 192,-194.2 192,-38.2 8,-38.2"/>
<polygon fill="#f5f5f5" stroke="transparent" points="10,-169.2 10,-192.2 190,-192.2 190,-169.2 10,-169.2"/>
<polygon fill="none" stroke="#000000" points="10,-169.2 10,-192.2 190,-192.2 190,-169.2 10,-169.2"/>
<text text-anchor="start" x="15" y="-177.8" font-family="Helvetica,sans-Serif" font-weight="bold" font-size="11.00" fill="#000000">spatial_ref_sys</text>
<text text-anchor="start" x="155.0437" y="-177.3" font-family="Helvetica,sans-Serif" font-size="11.00" fill="#000000">[table]</text>
<polygon fill="none" stroke="#000000" points="10,-147.2 10,-169.2 117,-169.2 117,-147.2 10,-147.2"/>
<image xlink:href="../../images/primaryKeys.png" width="11px" height="12px" preserveAspectRatio="xMinYMin meet" x="15" y="-164.2"/>
<text text-anchor="start" x="30" y="-154.3" font-family="Helvetica,sans-Serif" font-size="11.00" fill="#000000">srid</text>
<polygon fill="none" stroke="#000000" points="117,-147.2 117,-169.2 190,-169.2 190,-147.2 117,-147.2"/>
<text text-anchor="start" x="120" y="-154.9" font-family="Helvetica,sans-Serif" font-size="11.00" fill="#000000">int4[10]</text>
<polygon fill="none" stroke="#000000" points="10,-125.2 10,-147.2 117,-147.2 117,-125.2 10,-125.2"/>
<text text-anchor="start" x="30" y="-132.3" font-family="Helvetica,sans-Serif" font-size="11.00" fill="#000000">auth_name</text>
<polygon fill="none" stroke="#000000" points="117,-125.2 117,-147.2 190,-147.2 190,-125.2 117,-125.2"/>
<text text-anchor="start" x="120" y="-132.9" font-family="Helvetica,sans-Serif" font-size="11.00" fill="#000000">varchar[256]</text>
<polygon fill="none" stroke="#000000" points="10,-103.2 10,-125.2 117,-125.2 117,-103.2 10,-103.2"/>
<text text-anchor="start" x="30" y="-110.3" font-family="Helvetica,sans-Serif" font-size="11.00" fill="#000000">auth_srid</text>
<polygon fill="none" stroke="#000000" points="117,-103.2 117,-125.2 190,-125.2 190,-103.2 117,-103.2"/>
<text text-anchor="start" x="120" y="-110.9" font-family="Helvetica,sans-Serif" font-size="11.00" fill="#000000">int4[10]</text>
<polygon fill="none" stroke="#000000" points="10,-81.2 10,-103.2 117,-103.2 117,-81.2 10,-81.2"/>
<text text-anchor="start" x="30" y="-88.3" font-family="Helvetica,sans-Serif" font-size="11.00" fill="#000000">srtext</text>
<polygon fill="none" stroke="#000000" points="117,-81.2 117,-103.2 190,-103.2 190,-81.2 117,-81.2"/>
<text text-anchor="start" x="119.8791" y="-88.9" font-family="Helvetica,sans-Serif" font-size="11.00" fill="#000000">varchar[2048]</text>
<polygon fill="none" stroke="#000000" points="10,-59.2 10,-81.2 117,-81.2 117,-59.2 10,-59.2"/>
<text text-anchor="start" x="30" y="-66.3" font-family="Helvetica,sans-Serif" font-size="11.00" fill="#000000">proj4text</text>
<polygon fill="none" stroke="#000000" points="117,-59.2 117,-81.2 190,-81.2 190,-59.2 117,-59.2"/>
<text text-anchor="start" x="119.8791" y="-66.9" font-family="Helvetica,sans-Serif" font-size="11.00" fill="#000000">varchar[2048]</text>
<polygon fill="#ffffff" stroke="transparent" points="10,-40.2 10,-59.2 44,-59.2 44,-40.2 10,-40.2"/>
<polygon fill="none" stroke="#000000" points="10,-40.2 10,-59.2 44,-59.2 44,-40.2 10,-40.2"/>
<text text-anchor="start" x="13" y="-46.3" font-family="Helvetica,sans-Serif" font-size="11.00" fill="#000000">&lt; 0</text>
<polygon fill="#ffffff" stroke="transparent" points="44,-40.2 44,-59.2 117,-59.2 117,-40.2 44,-40.2"/>
<polygon fill="none" stroke="#000000" points="44,-40.2 44,-59.2 117,-59.2 117,-40.2 44,-40.2"/>
<text text-anchor="start" x="60.2089" y="-46.3" font-family="Helvetica,sans-Serif" font-size="11.00" fill="#000000">8,500 rows</text>
<polygon fill="#ffffff" stroke="transparent" points="117,-40.2 117,-59.2 190,-59.2 190,-40.2 117,-40.2"/>
<polygon fill="none" stroke="#000000" points="117,-40.2 117,-59.2 190,-59.2 190,-40.2 117,-40.2"/>
<text text-anchor="start" x="171.4053" y="-46.3" font-family="Helvetica,sans-Serif" font-size="11.00" fill="#000000">2 &gt;</text>
<polygon fill="none" stroke="#000000" stroke-width="2" points="9,-39.2 9,-193.2 191,-193.2 191,-39.2 9,-39.2"/>
</a>
</g>
</g>
<!-- geography_columns&#45;&gt;spatial_ref_sys -->
<g id="edge1" class="edge">
<title>geography_columns:w&#45;&gt;spatial_ref_sys:e</title>
<path fill="none" stroke="#000000" stroke-dasharray="5,2" d="M227.4729,-195.7053C213.5092,-184.8704 213.5361,-158.2 190,-158.2"/>
<polygon fill="#000000" stroke="#000000" points="233.8816,-197.7588 240.4014,-203.6283 237.6908,-198.9794 241.5,-200.2 241.5,-200.2 241.5,-200.2 237.6908,-198.9794 242.5986,-196.7717 233.8816,-197.7588 233.8816,-197.7588"/>
<ellipse fill="none" stroke="#000000" cx="230.8342" cy="-196.7823" rx="3.2" ry="3.2"/>
</g>
<!-- geometry_columns -->
<g id="node3" class="node">
<title>geometry_columns</title>
<g id="a_node3"><a xlink:href="../../tables/geometry_columns.html" xlink:title="geometry_columns" target="_top">
<polygon fill="#ffffff" stroke="transparent" points="244.5,-85.2 244.5,-149.2 392.5,-149.2 392.5,-85.2 244.5,-85.2"/>
<polygon fill="#f5f5f5" stroke="transparent" points="244.5,-126.2 244.5,-149.2 392.5,-149.2 392.5,-126.2 244.5,-126.2"/>
<polygon fill="none" stroke="#000000" points="244.5,-126.2 244.5,-149.2 392.5,-149.2 392.5,-126.2 244.5,-126.2"/>
<text text-anchor="start" x="249.5" y="-134.8" font-family="Helvetica,sans-Serif" font-weight="bold" font-size="11.00" fill="#000000">geometry_columns</text>
<text text-anchor="start" x="359.4448" y="-134.3" font-family="Helvetica,sans-Serif" font-size="11.00" fill="#000000">[view]</text>
<polygon fill="none" stroke="#000000" points="244.5,-104.2 244.5,-126.2 392.5,-126.2 392.5,-104.2 244.5,-104.2"/>
<image xlink:href="../../images/foreignKeys.png" width="11px" height="12px" preserveAspectRatio="xMinYMin meet" x="249.5" y="-121.2"/>
<text text-anchor="start" x="271.5" y="-111.3" font-family="Helvetica,sans-Serif" font-size="11.00" fill="#000000">srid</text>
<polygon fill="none" stroke="#000000" points="244.5,-85.2 244.5,-104.2 392.5,-104.2 392.5,-85.2 244.5,-85.2"/>
<text text-anchor="start" x="247.5" y="-91.3" font-family="Helvetica,sans-Serif" font-size="11.00" fill="#000000">...</text>
</a>
</g>
</g>
<!-- geometry_columns&#45;&gt;spatial_ref_sys -->
<g id="edge2" class="edge">
<title>geometry_columns:w&#45;&gt;spatial_ref_sys:e</title>
<path fill="none" stroke="#000000" stroke-dasharray="5,2" d="M230.6573,-119.1683C215.011,-129.8133 215.0686,-158.2 190,-158.2"/>
<polygon fill="#000000" stroke="#000000" points="236.8097,-117.4046 245.4921,-118.6606 240.6549,-116.3023 244.5,-115.2 244.5,-115.2 244.5,-115.2 240.6549,-116.3023 243.5079,-111.7394 236.8097,-117.4046 236.8097,-117.4046"/>
<ellipse fill="none" stroke="#000000" cx="233.7336" cy="-118.2864" rx="3.2" ry="3.2"/>
</g>
</g>
</svg>
