<?xml version="1.0" encoding="UTF-8" standalone="no"?>
<!DOCTYPE svg PUBLIC "-//W3C//DTD SVG 1.1//EN"
 "http://www.w3.org/Graphics/SVG/1.1/DTD/svg11.dtd">
<!-- Generated by graphviz version 2.40.1 (20161225.0304)
 -->
<!-- Title: orphans Pages: 1 -->
<svg width="267pt" height="503pt"
 viewBox="0.00 0.00 267.00 503.00" xmlns="http://www.w3.org/2000/svg" xmlns:xlink="http://www.w3.org/1999/xlink">
<g id="graph0" class="graph" transform="scale(1 1) rotate(0) translate(4 499)">
<title>orphans</title>
<polygon fill="#ffffff" stroke="transparent" points="-4,4 -4,-499 263,-499 263,4 -4,4"/>
<!-- flyway_schema_history -->
<g id="node1" class="node">
<title>flyway_schema_history</title>
<g id="a_node1"><a xlink:href="../../tables/flyway_schema_history.html" xlink:title="flyway_schema_history" target="_top">
<polygon fill="#ffffff" stroke="transparent" points="8,-4 8,-270 251,-270 251,-4 8,-4"/>
<polygon fill="#f5f5f5" stroke="transparent" points="10.5,-245 10.5,-268 249.5,-268 249.5,-245 10.5,-245"/>
<polygon fill="none" stroke="#000000" points="10.5,-245 10.5,-268 249.5,-268 249.5,-245 10.5,-245"/>
<text text-anchor="start" x="15.5" y="-253.6" font-family="Helvetica,sans-Serif" font-weight="bold" font-size="11.00" fill="#000000">flyway_schema_history</text>
<text text-anchor="start" x="214.5437" y="-253.1" font-family="Helvetica,sans-Serif" font-size="11.00" fill="#000000">[table]</text>
<polygon fill="none" stroke="#000000" points="10.5,-223 10.5,-245 165.5,-245 165.5,-223 10.5,-223"/>
<image xlink:href="../../images/primaryKeys.png" width="11px" height="12px" preserveAspectRatio="xMinYMin meet" x="15.5" y="-240"/>
<text text-anchor="start" x="30.5" y="-230.1" font-family="Helvetica,sans-Serif" font-size="11.00" fill="#000000">installed_rank</text>
<polygon fill="none" stroke="#000000" points="165.5,-223 165.5,-245 249.5,-245 249.5,-223 165.5,-223"/>
<text text-anchor="start" x="168.5" y="-230.7" font-family="Helvetica,sans-Serif" font-size="11.00" fill="#000000">int4[10]</text>
<polygon fill="none" stroke="#000000" points="10.5,-201 10.5,-223 165.5,-223 165.5,-201 10.5,-201"/>
<text text-anchor="start" x="30.5" y="-208.1" font-family="Helvetica,sans-Serif" font-size="11.00" fill="#000000">version</text>
<polygon fill="none" stroke="#000000" points="165.5,-201 165.5,-223 249.5,-223 249.5,-201 165.5,-201"/>
<text text-anchor="start" x="168.5" y="-208.7" font-family="Helvetica,sans-Serif" font-size="11.00" fill="#000000">varchar[50]</text>
<polygon fill="none" stroke="#000000" points="10.5,-179 10.5,-201 165.5,-201 165.5,-179 10.5,-179"/>
<text text-anchor="start" x="30.5" y="-186.1" font-family="Helvetica,sans-Serif" font-size="11.00" fill="#000000">description</text>
<polygon fill="none" stroke="#000000" points="165.5,-179 165.5,-201 249.5,-201 249.5,-179 165.5,-179"/>
<text text-anchor="start" x="168.5" y="-186.7" font-family="Helvetica,sans-Serif" font-size="11.00" fill="#000000">varchar[200]</text>
<polygon fill="none" stroke="#000000" points="10.5,-157 10.5,-179 165.5,-179 165.5,-157 10.5,-157"/>
<text text-anchor="start" x="30.5" y="-164.1" font-family="Helvetica,sans-Serif" font-size="11.00" fill="#000000">type</text>
<polygon fill="none" stroke="#000000" points="165.5,-157 165.5,-179 249.5,-179 249.5,-157 165.5,-157"/>
<text text-anchor="start" x="168.5" y="-164.7" font-family="Helvetica,sans-Serif" font-size="11.00" fill="#000000">varchar[20]</text>
<polygon fill="none" stroke="#000000" points="10.5,-135 10.5,-157 165.5,-157 165.5,-135 10.5,-135"/>
<text text-anchor="start" x="30.5" y="-142.1" font-family="Helvetica,sans-Serif" font-size="11.00" fill="#000000">script</text>
<polygon fill="none" stroke="#000000" points="165.5,-135 165.5,-157 249.5,-157 249.5,-135 165.5,-135"/>
<text text-anchor="start" x="168.5" y="-142.7" font-family="Helvetica,sans-Serif" font-size="11.00" fill="#000000">varchar[1000]</text>
<polygon fill="none" stroke="#000000" points="10.5,-113 10.5,-135 165.5,-135 165.5,-113 10.5,-113"/>
<text text-anchor="start" x="30.5" y="-120.1" font-family="Helvetica,sans-Serif" font-size="11.00" fill="#000000">checksum</text>
<polygon fill="none" stroke="#000000" points="165.5,-113 165.5,-135 249.5,-135 249.5,-113 165.5,-113"/>
<text text-anchor="start" x="168.5" y="-120.7" font-family="Helvetica,sans-Serif" font-size="11.00" fill="#000000">int4[10]</text>
<polygon fill="none" stroke="#000000" points="10.5,-91 10.5,-113 165.5,-113 165.5,-91 10.5,-91"/>
<text text-anchor="start" x="30.5" y="-98.1" font-family="Helvetica,sans-Serif" font-size="11.00" fill="#000000">installed_by</text>
<polygon fill="none" stroke="#000000" points="165.5,-91 165.5,-113 249.5,-113 249.5,-91 165.5,-91"/>
<text text-anchor="start" x="168.5" y="-98.7" font-family="Helvetica,sans-Serif" font-size="11.00" fill="#000000">varchar[100]</text>
<polygon fill="none" stroke="#000000" points="10.5,-69 10.5,-91 165.5,-91 165.5,-69 10.5,-69"/>
<text text-anchor="start" x="30.5" y="-76.1" font-family="Helvetica,sans-Serif" font-size="11.00" fill="#000000">installed_on</text>
<polygon fill="none" stroke="#000000" points="165.5,-69 165.5,-91 249.5,-91 249.5,-69 165.5,-69"/>
<text text-anchor="start" x="168.3807" y="-76.7" font-family="Helvetica,sans-Serif" font-size="11.00" fill="#000000">timestamp[29,6]</text>
<polygon fill="none" stroke="#000000" points="10.5,-47 10.5,-69 165.5,-69 165.5,-47 10.5,-47"/>
<text text-anchor="start" x="30.5" y="-54.1" font-family="Helvetica,sans-Serif" font-size="11.00" fill="#000000">execution_time</text>
<polygon fill="none" stroke="#000000" points="165.5,-47 165.5,-69 249.5,-69 249.5,-47 165.5,-47"/>
<text text-anchor="start" x="168.5" y="-54.7" font-family="Helvetica,sans-Serif" font-size="11.00" fill="#000000">int4[10]</text>
<polygon fill="#ffffff" stroke="transparent" points="10.5,-25 10.5,-47 165.5,-47 165.5,-25 10.5,-25"/>
<polygon fill="none" stroke="#000000" points="10.5,-25 10.5,-47 165.5,-47 165.5,-25 10.5,-25"/>
<text text-anchor="start" x="30.5" y="-32.1" font-family="Helvetica,sans-Serif" font-size="11.00" fill="#000000">success</text>
<polygon fill="none" stroke="#000000" points="165.5,-25 165.5,-47 249.5,-47 249.5,-25 165.5,-25"/>
<text text-anchor="start" x="168.5" y="-32.7" font-family="Helvetica,sans-Serif" font-size="11.00" fill="#000000">bool[1]</text>
<polygon fill="#ffffff" stroke="transparent" points="10.5,-6 10.5,-25 92.5,-25 92.5,-6 10.5,-6"/>
<polygon fill="none" stroke="#000000" points="10.5,-6 10.5,-25 92.5,-25 92.5,-6 10.5,-6"/>
<text text-anchor="start" x="13.5" y="-12.1" font-family="Helvetica,sans-Serif" font-size="11.00" fill="#000000">&lt; 0</text>
<polygon fill="#ffffff" stroke="transparent" points="92.5,-6 92.5,-25 165.5,-25 165.5,-6 92.5,-6"/>
<polygon fill="none" stroke="#000000" points="92.5,-6 92.5,-25 165.5,-25 165.5,-6 92.5,-6"/>
<text text-anchor="start" x="156.3862" y="-12.1" font-family="Helvetica,sans-Serif" font-size="11.00" fill="#000000"> &#160;</text>
<polygon fill="#ffffff" stroke="transparent" points="165.5,-6 165.5,-25 249.5,-25 249.5,-6 165.5,-6"/>
<polygon fill="none" stroke="#000000" points="165.5,-6 165.5,-25 249.5,-25 249.5,-6 165.5,-6"/>
<text text-anchor="start" x="230.9053" y="-12.1" font-family="Helvetica,sans-Serif" font-size="11.00" fill="#000000">0 &gt;</text>
<polygon fill="none" stroke="#000000" stroke-width="2" points="9,-5 9,-269 250,-269 250,-5 9,-5"/>
</a>
</g>
</g>
<!-- store -->
<g id="node2" class="node">
<title>store</title>
<g id="a_node2"><a xlink:href="../../tables/store.html" xlink:title="store" target="_top">
<polygon fill="#ffffff" stroke="transparent" points="43,-291 43,-491 216,-491 216,-291 43,-291"/>
<polygon fill="#f5f5f5" stroke="transparent" points="45.5,-466 45.5,-489 214.5,-489 214.5,-466 45.5,-466"/>
<polygon fill="none" stroke="#000000" points="45.5,-466 45.5,-489 214.5,-489 214.5,-466 45.5,-466"/>
<text text-anchor="start" x="50.5" y="-474.6" font-family="Helvetica,sans-Serif" font-weight="bold" font-size="11.00" fill="#000000">store</text>
<text text-anchor="start" x="179.5437" y="-474.1" font-family="Helvetica,sans-Serif" font-size="11.00" fill="#000000">[table]</text>
<polygon fill="none" stroke="#000000" points="45.5,-444 45.5,-466 130.5,-466 130.5,-444 45.5,-444"/>
<image xlink:href="../../images/primaryKeys.png" width="11px" height="12px" preserveAspectRatio="xMinYMin meet" x="50.5" y="-461"/>
<text text-anchor="start" x="65.5" y="-451.1" font-family="Helvetica,sans-Serif" font-size="11.00" fill="#000000">store_id</text>
<polygon fill="none" stroke="#000000" points="130.5,-444 130.5,-466 214.5,-466 214.5,-444 130.5,-444"/>
<text text-anchor="start" x="133.5" y="-451.7" font-family="Helvetica,sans-Serif" font-size="11.00" fill="#000000">int8[19]</text>
<polygon fill="none" stroke="#000000" points="45.5,-422 45.5,-444 130.5,-444 130.5,-422 45.5,-422"/>
<text text-anchor="start" x="65.5" y="-429.1" font-family="Helvetica,sans-Serif" font-size="11.00" fill="#000000">name</text>
<polygon fill="none" stroke="#000000" points="130.5,-422 130.5,-444 214.5,-444 214.5,-422 130.5,-422"/>
<text text-anchor="start" x="133.5" y="-429.7" font-family="Helvetica,sans-Serif" font-size="11.00" fill="#000000">varchar[100]</text>
<polygon fill="#ffffff" stroke="transparent" points="45.5,-400 45.5,-422 130.5,-422 130.5,-400 45.5,-400"/>
<polygon fill="none" stroke="#000000" points="45.5,-400 45.5,-422 130.5,-422 130.5,-400 45.5,-400"/>
<text text-anchor="start" x="65.5" y="-407.1" font-family="Helvetica,sans-Serif" font-size="11.00" fill="#000000">valid_from</text>
<polygon fill="none" stroke="#000000" points="130.5,-400 130.5,-422 214.5,-422 214.5,-400 130.5,-400"/>
<text text-anchor="start" x="133.3807" y="-407.7" font-family="Helvetica,sans-Serif" font-size="11.00" fill="#000000">timestamp[29,6]</text>
<polygon fill="#ffffff" stroke="transparent" points="45.5,-378 45.5,-400 130.5,-400 130.5,-378 45.5,-378"/>
<polygon fill="none" stroke="#000000" points="45.5,-378 45.5,-400 130.5,-400 130.5,-378 45.5,-378"/>
<text text-anchor="start" x="65.5" y="-385.1" font-family="Helvetica,sans-Serif" font-size="11.00" fill="#000000">valid_to</text>
<polygon fill="none" stroke="#000000" points="130.5,-378 130.5,-400 214.5,-400 214.5,-378 130.5,-378"/>
<text text-anchor="start" x="133.3807" y="-385.7" font-family="Helvetica,sans-Serif" font-size="11.00" fill="#000000">timestamp[29,6]</text>
<polygon fill="none" stroke="#000000" points="45.5,-356 45.5,-378 130.5,-378 130.5,-356 45.5,-356"/>
<text text-anchor="start" x="65.5" y="-363.1" font-family="Helvetica,sans-Serif" font-size="11.00" fill="#000000">deleted_at</text>
<polygon fill="none" stroke="#000000" points="130.5,-356 130.5,-378 214.5,-378 214.5,-356 130.5,-356"/>
<text text-anchor="start" x="133.3807" y="-363.7" font-family="Helvetica,sans-Serif" font-size="11.00" fill="#000000">timestamp[29,6]</text>
<polygon fill="none" stroke="#000000" points="45.5,-334 45.5,-356 130.5,-356 130.5,-334 45.5,-334"/>
<text text-anchor="start" x="65.5" y="-341.1" font-family="Helvetica,sans-Serif" font-size="11.00" fill="#000000">created_at</text>
<polygon fill="none" stroke="#000000" points="130.5,-334 130.5,-356 214.5,-356 214.5,-334 130.5,-334"/>
<text text-anchor="start" x="133.3807" y="-341.7" font-family="Helvetica,sans-Serif" font-size="11.00" fill="#000000">timestamp[29,6]</text>
<polygon fill="none" stroke="#000000" points="45.5,-312 45.5,-334 130.5,-334 130.5,-312 45.5,-312"/>
<text text-anchor="start" x="65.5" y="-319.1" font-family="Helvetica,sans-Serif" font-size="11.00" fill="#000000">updated_at</text>
<polygon fill="none" stroke="#000000" points="130.5,-312 130.5,-334 214.5,-334 214.5,-312 130.5,-312"/>
<text text-anchor="start" x="133.3807" y="-319.7" font-family="Helvetica,sans-Serif" font-size="11.00" fill="#000000">timestamp[29,6]</text>
<polygon fill="#ffffff" stroke="transparent" points="45.5,-293 45.5,-312 92.5,-312 92.5,-293 45.5,-293"/>
<polygon fill="none" stroke="#000000" points="45.5,-293 45.5,-312 92.5,-312 92.5,-293 45.5,-293"/>
<text text-anchor="start" x="48.5" y="-299.1" font-family="Helvetica,sans-Serif" font-size="11.00" fill="#000000">&lt; 0</text>
<polygon fill="#ffffff" stroke="transparent" points="92.5,-293 92.5,-312 130.5,-312 130.5,-293 92.5,-293"/>
<polygon fill="none" stroke="#000000" points="92.5,-293 92.5,-312 130.5,-312 130.5,-293 92.5,-293"/>
<text text-anchor="start" x="121.3862" y="-299.1" font-family="Helvetica,sans-Serif" font-size="11.00" fill="#000000"> &#160;</text>
<polygon fill="#ffffff" stroke="transparent" points="130.5,-293 130.5,-312 214.5,-312 214.5,-293 130.5,-293"/>
<polygon fill="none" stroke="#000000" points="130.5,-293 130.5,-312 214.5,-312 214.5,-293 130.5,-293"/>
<text text-anchor="start" x="195.9053" y="-299.1" font-family="Helvetica,sans-Serif" font-size="11.00" fill="#000000">0 &gt;</text>
<polygon fill="none" stroke="#000000" stroke-width="2" points="44,-292 44,-490 215,-490 215,-292 44,-292"/>
</a>
</g>
</g>
</g>
</svg>
